<svg width="114" height="32" viewBox="0 0 114 32" fill="none" xmlns="http://www.w3.org/2000/svg">
<path fill-rule="evenodd" clip-rule="evenodd" d="M8.75837 25.5442L11.8662 31.0909L17.658 20.7273L14.5502 15.1805L8.75837 25.5442ZM20.2007 5.2548L23.3086 10.8015C25.2862 7.29834 24.2974 9.04994 26.2751 5.54674L23.1673 0L20.2007 5.2548ZM0 25.5442L3.10781 31.0909L14.6915 10.3636L21.0483 21.749H19.777L16.6691 27.2958C19.6357 27.2958 22.6022 27.2958 25.5688 27.2958C26.5576 27.2958 27.4052 26.8579 27.829 25.9821C28.2528 25.1063 28.2528 24.0845 27.829 23.2087L16.9517 3.35724C16.5279 2.48144 15.6803 2.04353 14.6915 2.04353C13.7026 2.04353 12.855 2.48144 12.4312 3.35724L0 25.5442Z" fill="white"/>
<path d="M39.6952 10.0723H42.3792V17.5166C42.3792 20.8738 40.8253 22.0415 38.2825 22.0415C37.7175 22.0415 36.8699 21.8956 36.4461 21.7496L36.7286 19.5601C37.1524 19.7061 37.5762 19.7061 38 19.7061C39.1301 19.7061 39.6952 19.2682 39.6952 17.3706V10.0723Z" fill="white"/>
<path d="M49.0186 21.895L48.8773 21.0192C48.3123 21.749 47.4647 22.0409 46.4758 22.0409C44.7807 22.0409 43.7918 20.7272 43.7918 19.4135C43.7918 17.224 45.7695 16.0563 48.5948 16.2023V16.0563C48.5948 15.6184 48.3123 14.8886 47.0409 14.8886C46.1933 14.8886 45.3457 15.1805 44.7807 15.4724L44.3569 13.7208C44.9219 13.4289 46.052 13.137 47.606 13.137C50.4312 13.137 51.2788 14.8886 51.2788 16.7861V19.7055C51.2788 20.5813 51.2788 21.3111 51.4201 21.749H49.0186V21.895ZM48.7361 17.8079C47.3234 17.8079 46.3346 18.0998 46.3346 19.1216C46.3346 19.8514 46.7584 20.1434 47.3234 20.1434C48.0297 20.1434 48.4535 19.7055 48.5948 19.1216C48.5948 18.9756 48.5948 18.8297 48.5948 18.6837V17.8079H48.7361Z" fill="white"/>
<path d="M55.7993 16.9315C56.0818 16.6395 56.2231 16.2016 56.3643 15.9097L58.0595 13.2823H61.1673L58.2008 16.7855L61.5911 21.8943H58.4833L56.5056 18.2452L55.7993 19.121V21.8943H53.2565V9.34119H55.7993V16.9315Z" fill="white"/>
<path d="M65.9703 19.1211C66.6766 19.559 67.6654 19.8509 68.7956 19.8509C69.9257 19.8509 70.632 19.413 70.632 18.5372C70.632 17.8074 70.0669 17.3695 68.6543 16.9316C66.8179 16.2017 65.5465 15.18 65.5465 13.4284C65.5465 11.3848 67.2417 9.92517 69.9257 9.92517C71.197 9.92517 72.1859 10.2171 72.8922 10.509L72.3271 12.6985C71.9034 12.4066 71.0558 12.1147 69.9257 12.1147C68.7956 12.1147 68.2305 12.6985 68.2305 13.2824C68.2305 14.0122 68.9368 14.3042 70.3495 14.888C72.3271 15.6179 73.316 16.7856 73.316 18.3912C73.316 20.4348 71.9034 22.0404 68.6543 22.0404C67.3829 22.0404 66.1115 21.7485 65.4052 21.3106L65.9703 19.1211Z" fill="white"/>
<path d="M77.8365 10.8011V13.2826H79.6729V15.1801H77.8365V18.2455C77.8365 19.2672 78.119 19.7051 78.8254 19.7051C79.1079 19.7051 79.3904 19.7051 79.5317 19.7051V21.7487C79.2491 21.8946 78.5428 22.0406 77.8365 22.0406C76.9889 22.0406 76.2826 21.7487 75.8588 21.3108C75.435 20.8729 75.1525 19.9971 75.1525 18.8293V15.3261H74.0224V13.2826H75.1525V11.385L77.8365 10.8011Z" fill="white"/>
<path d="M88.9962 19.1227C88.9962 20.2905 88.9962 21.1663 88.9962 21.8961H86.736L86.5947 20.7284C86.3122 21.3122 85.4646 22.188 84.052 22.188C82.3568 22.188 81.0855 21.1663 81.0855 18.3929V13.2841H83.6282V17.955C83.6282 19.2687 84.052 19.9985 84.8996 19.9985C85.6059 19.9985 86.0297 19.5606 86.1709 19.1227C86.1709 18.9768 86.3122 18.6848 86.3122 18.5389V13.2841H88.9962V19.1227Z" fill="white"/>
<path d="M99.026 9.34119V19.2669C99.026 20.2887 99.026 21.3105 99.026 21.8943H96.7658L96.6245 20.5806C96.0595 21.6024 95.0706 22.0403 94.0818 22.0403C92.1041 22.0403 90.5502 20.2887 90.5502 17.6613C90.5502 14.742 92.2454 13.1363 94.223 13.1363C95.2119 13.1363 96.0595 13.5742 96.342 14.1581V9.34119H99.026ZM96.4833 16.9315C96.4833 16.7855 96.4833 16.6395 96.4833 16.4936C96.342 15.7637 95.7769 15.1799 94.9294 15.1799C93.7993 15.1799 93.0929 16.2016 93.0929 17.6613C93.0929 19.121 93.7993 19.9968 94.7881 19.9968C95.4944 19.9968 96.0595 19.4129 96.342 18.6831C96.342 18.5371 96.342 18.2452 96.342 18.0992V16.9315H96.4833Z" fill="white"/>
<path d="M103.829 10.9482C103.829 11.6781 103.264 12.2619 102.416 12.2619C101.569 12.2619 101.004 11.6781 101.145 10.9482C101.145 10.2184 101.71 9.63454 102.558 9.63454C103.264 9.48857 103.829 10.0724 103.829 10.9482ZM101.145 21.8957V13.2837H103.688V21.8957H101.145Z" fill="white"/>
<path d="M114 17.516C114 20.5813 111.881 22.0409 109.621 22.0409C107.219 22.0409 105.383 20.4353 105.383 17.6619C105.383 14.8886 107.078 13.137 109.762 13.137C112.305 13.137 114 14.8886 114 17.516ZM107.926 17.516C107.926 18.9756 108.491 20.1434 109.621 20.1434C110.61 20.1434 111.316 19.1216 111.316 17.516C111.316 16.2023 110.892 14.8886 109.621 14.8886C108.491 15.0345 107.926 16.3482 107.926 17.516Z" fill="white"/>
</svg>
