<svg width="109" height="89" viewBox="0 0 109 89" fill="none" xmlns="http://www.w3.org/2000/svg">
<path d="M37.871 42.561C40.2915 41.413 41.1076 38.7989 39.7659 36.5029C37.5805 32.7684 30.4712 28.0933 27.1931 32.7822C26.3771 33.3355 25.6993 34.0685 25.3259 35.0091C24.2747 37.6094 26.6952 40.1267 28.7699 41.2609C31.2734 42.6579 35.1047 43.875 37.871 42.561ZM28.4518 35.1889C28.5486 35.1889 28.6454 35.1889 28.7561 35.1612C31.2319 34.608 34.9249 34.0685 36.4602 36.5997C37.1103 37.6785 37.2486 38.3978 36.7783 39.5458C36.1974 40.9566 35.6303 40.5416 34.2472 40.3342C32.0065 40.0022 29.3508 39.2277 28.5348 36.821C28.3273 36.1986 28.3135 35.6591 28.4518 35.1889Z" fill="white"/>
<path d="M9.90375 31.7863C6.55654 29.5041 1.56335 29.9329 0.069556 34.0961C-0.207073 34.8569 0.387697 35.3686 1.03778 35.3963C1.66019 39.034 5.56067 41.8694 9.21218 40.4586C13.1127 38.951 13.1265 33.9855 9.90375 31.7863ZM3.31996 35.5623C2.22727 31.7033 6.91614 32.4779 8.63124 33.9163C8.79722 34.0546 8.96323 34.1238 9.14304 34.1653C10.3602 35.4101 10.706 37.0561 8.88024 38.2179C6.69486 39.6011 3.95621 37.7891 3.31996 35.5623Z" fill="white"/>
<path d="M18.5069 54.8711C17.8015 53.9167 16.7088 52.907 15.4778 52.2154C15.2427 51.925 14.8831 51.7175 14.482 51.7451C13.5829 51.3993 12.6562 51.2472 11.7848 51.427C10.8443 51.6207 10.0835 52.1877 9.54411 52.9346C8.6174 53.3496 7.96733 54.055 7.99499 55.4658C8.05032 57.9831 10.7889 61.1505 12.8222 62.4369C13.5967 62.921 14.4266 63.1838 15.2289 63.2114C17.0961 63.7094 18.8665 63.2391 19.8071 61.0122C20.5401 59.2695 20.1805 57.5682 19.2261 56.1435C19.0325 55.6871 18.8112 55.2583 18.5069 54.8711ZM10.8581 55.3275C12.4072 54.1795 14.4405 54.8849 15.9066 55.9499C16.4737 56.3649 17.1514 57.1947 17.5802 58.0523V58.0661C17.7185 59.6844 16.695 60.9154 15.3672 60.9569C13.7351 60.5005 12.0199 58.7715 11.273 57.5267C10.8581 56.8075 10.7336 56.0052 10.8581 55.3275Z" fill="white"/>
<path d="M33.763 60.5835C33.7215 61.3027 34.2747 61.6347 34.828 61.607C35.16 62.4231 35.7409 63.17 36.4463 63.7371C38.1476 65.0787 40.7894 66.2683 43.0854 65.9778C45.3538 65.9916 47.47 64.4425 47.3317 61.9943C46.9859 55.8117 34.1779 53.0592 33.763 60.5835ZM40.2776 62.4093C39.7105 61.8837 37.3592 59.9058 37.29 59.1312C37.3453 59.0759 37.4145 59.0067 37.4837 58.9514C37.6358 58.8269 37.871 58.7024 38.1337 58.6056C38.7147 58.6056 39.4892 58.7716 40.1531 58.9514C40.3744 59.1174 40.6372 59.1865 40.8862 59.1727C41.1213 59.2557 41.315 59.3249 41.4394 59.3663C42.8779 59.9196 46.1007 61.9805 43.7355 63.5849C43.5695 63.6956 43.3759 63.7786 43.1822 63.8477C42.1864 63.8201 41.0245 63.1008 40.2776 62.4093Z" fill="white"/>
<path d="M42.8088 78.4676C42.463 78.2048 42.0618 77.9005 41.6054 77.5824C41.5501 77.0845 41.2043 76.628 40.568 76.5865C40.3744 76.5727 40.1531 76.5589 39.9318 76.5312C37.9124 75.4108 35.5472 74.6916 33.8875 76.0886C33.5693 76.3514 33.348 76.6419 33.182 76.96C30.1945 78.7581 31.8957 82.7277 33.8875 84.8854C34.2056 85.2312 34.6067 85.2865 34.9387 85.1482C35.976 86.2132 37.1517 87.0984 38.1891 87.707C40.5266 89.0625 44.2611 90.0307 45.7687 87.0016C47.3178 83.9034 45.257 80.3764 42.8088 78.4676ZM37.4837 82.6447C36.8612 81.967 36.308 81.2201 35.8654 80.4179C35.6164 79.9891 35.4089 79.5465 35.2291 79.0762C35.5472 78.5229 36.1143 78.3431 36.9166 78.5506C37.0549 78.5229 37.207 78.5091 37.3592 78.4953C37.7326 78.5921 38.1061 78.7166 38.438 78.8411C40.2638 79.5603 42.1587 81.2201 42.5736 83.2395C42.8779 84.7471 41.5501 85.5632 40.2085 84.8439C39.1849 84.3045 38.2721 83.4884 37.4837 82.6447Z" fill="white"/>
<path d="M67.4704 79.4909C67.0278 78.3152 66.1702 77.4577 65.1329 76.9597C64.0955 76.1022 62.8921 75.4106 61.6197 74.9818C61.0664 74.7882 60.4163 74.6222 59.7524 74.5254C59.4066 74.0136 58.6459 73.7232 58.0511 74.2764C57.982 74.3318 57.9267 74.4009 57.8713 74.4562C56.9031 74.553 56.0041 74.8988 55.3678 75.6319C53.7219 77.5545 55.3125 79.9058 56.9032 81.2198C57 81.3028 57.1244 81.3858 57.2351 81.4688C58.3278 83.3084 60.1397 84.899 61.9378 85.798C63.8189 86.7524 66.4607 87.3472 67.913 85.3554C69.1163 83.7095 68.5354 81.4964 67.5811 79.8228C67.5396 79.7122 67.5119 79.6015 67.4704 79.4909ZM59.0747 80.1271C58.9778 80.0718 58.8949 80.0027 58.8119 79.9335C58.3001 78.8408 58.2171 77.6651 58.9364 76.5725C59.1715 76.5863 59.462 76.6416 59.8631 76.7246C60.3333 76.8214 60.8036 76.9736 61.2601 77.1395C60.9834 77.8449 61.5505 78.8823 62.5464 78.6748C63.0443 78.5642 63.5284 78.6057 63.971 78.7717C64.5381 79.2696 65.0499 79.8367 65.4786 80.4729C65.4095 80.6942 65.202 80.9017 64.8701 81.1092C64.5381 81.9667 63.9433 82.188 63.0996 81.7593C61.6473 81.4965 60.278 80.9294 59.0747 80.1271ZM64.5934 84.4979C64.1508 84.5947 63.5422 84.2766 63.0166 83.9585C63.5146 84.0276 64.0263 84.0829 64.5243 84.0691C64.8009 84.0691 65.0499 84.0276 65.2988 83.9723C65.0637 84.1521 64.8286 84.3181 64.5934 84.4979Z" fill="white"/>
<path d="M85.6864 62.5196C83.9437 61.1779 80.5549 59.2554 78.3557 60.514C76.1565 61.7727 76.8758 64.5666 78.0929 66.2264C78.8813 67.3053 79.891 68.2596 81.0114 69.0342C82.0626 70.0439 83.3074 70.8738 84.6214 71.4132C86.2673 72.1048 88.3697 72.2708 89.3103 70.9014C90.0018 70.5418 90.4721 69.9332 90.4998 68.9374C90.5136 66.6552 87.8441 63.6814 85.6864 62.5196ZM86.8621 69.1448C85.6587 69.3108 84.0267 68.4533 82.8372 67.6787C82.1318 66.918 81.537 66.0051 80.8316 65.3135C81.5646 63.5293 83.5149 63.8612 84.9119 64.6358C85.8662 65.5763 86.6546 66.6275 87.0557 67.4159C87.36 67.9968 87.4153 68.6193 87.2217 69.048C87.1249 69.0895 87.0004 69.1172 86.8621 69.1448ZM80.2921 62.3536C80.4996 62.3259 80.7209 62.3398 80.9422 62.3536C80.8177 62.4227 80.6794 62.4919 80.5549 62.5611C80.306 62.4781 80.0847 62.4366 79.8772 62.4366C80.0017 62.3951 80.14 62.3674 80.2921 62.3536Z" fill="white"/>
<path d="M59.5864 55.7839C60.3057 56.0744 61.1632 56.268 62.0208 56.2819C68.3003 57.8033 66.516 48.0245 62.2697 46.3785C61.758 46.1711 61.3569 46.3924 61.1494 46.752C58.1341 44.4698 53.5421 42.0354 52.8229 45.9359C52.6016 47.1254 53.058 48.3564 53.7219 49.4629C53.7496 49.8779 53.8464 50.3067 54.04 50.7493C54.9806 52.907 57.4425 54.9125 59.5864 55.7839ZM57.816 47.0424C59.2406 47.7755 66.1564 53.1836 62.2144 54.0965C62.1314 54.1103 62.0484 54.1242 61.9654 54.138C60.7483 53.6262 59.1162 52.3261 58.6736 51.9388C57.7192 51.1365 56.8893 50.196 56.1839 49.1587C56.1701 48.0106 56.7095 47.5542 57.5394 46.8765C57.6362 46.9456 57.733 47.0009 57.816 47.0424Z" fill="white"/>
<path d="M60.5961 24.9122C58.4799 22.7268 54.7315 22.1183 51.979 23.3354C50.2363 24.11 48.369 25.9219 48.0924 27.9275C47.6913 28.6744 47.5806 29.5596 47.9679 30.6108C48.9776 33.3771 52.1174 36.0189 55.0081 36.4753C60.7482 37.3882 64.4965 28.9233 60.5961 24.9122ZM56.9722 33.2664C55.2848 33.2664 52.9334 31.4683 51.6333 30.3618C52.3802 28.5361 54.2612 27.2774 56.3083 27.9136C58.5767 28.619 60.6652 33.2802 56.9722 33.2664ZM59.6002 27.5817C58.715 26.6273 57.5393 25.9219 56.253 25.6729C55.354 25.507 54.4826 25.5623 53.6803 25.7974C53.5835 25.5346 53.4037 25.3133 53.1547 25.1888C53.2654 25.1473 53.376 25.1058 53.5005 25.0782C55.7274 24.4419 58.8118 25.258 59.6002 27.5817Z" fill="white"/>
<path d="M25.5748 16.5992C25.146 14.0128 22.8638 12.021 20.3742 11.4401C17.8707 10.8453 15.215 11.8135 13.9563 14.1234C13.3892 15.1608 13.2786 16.2258 13.4861 17.2217C12.9328 18.342 12.8221 19.5868 13.735 20.7763C14.8692 22.284 17.2897 22.8787 19.4059 22.8096C20.8721 23.2245 22.3797 23.1415 23.666 22.0627C24.5374 21.3434 24.9939 20.4306 25.1183 19.49C25.5609 18.6186 25.7407 17.6366 25.5748 16.5992ZM21.2732 14.0957C21.9786 14.5107 22.5042 15.0501 22.85 15.6449C22.3244 15.963 21.9924 16.7652 22.5042 17.4153C22.8085 17.8026 22.9883 18.259 23.016 18.7293C22.5872 19.6007 21.7158 20.2922 20.4018 20.5689C20.2082 20.6104 19.9869 20.638 19.7517 20.6519C19.6272 20.6104 19.5166 20.5689 19.3921 20.5135C18.1196 20.0018 16.7226 19.0612 16.0034 17.8717C15.9204 17.7334 15.8513 17.5813 15.7959 17.4291C15.8651 17.3461 15.9481 17.2632 16.0587 17.194C16.446 16.779 16.9163 16.4333 17.3451 16.0736C18.2026 15.3959 17.4142 14.3171 16.5152 14.3032C16.6396 14.1787 16.7779 14.0681 16.9301 13.9574C18.2441 13.0999 19.9869 13.3488 21.2732 14.0957Z" fill="white"/>
<path d="M38.1338 5.78315C38.2444 8.30047 39.6137 10.9285 41.8959 11.9935C43.86 12.9064 45.8517 12.5467 47.4562 11.4955C48.8808 11.2466 50.098 10.4029 50.7757 8.77075C51.3151 7.47059 51.2322 6.05977 50.7481 4.78728C50.6374 3.94356 50.3331 3.11367 49.7937 2.33911C48.4382 0.402707 45.3953 -0.316527 42.7258 0.12608C42.629 0.112248 42.5183 0.0984137 42.3939 0.112245C41.3565 0.264391 40.5266 0.637839 39.8904 1.1911C38.5349 2.10398 37.7188 3.51478 38.0646 5.45118C38.0784 5.56183 38.1061 5.67249 38.1338 5.78315ZM41.8959 7.35993C41.1767 6.73752 40.5958 6.19809 40.416 5.47885C40.8862 5.72782 41.5225 5.70016 41.8683 5.11924C42.9194 3.39031 45.1325 2.46359 46.9998 3.51479C47.6083 3.86057 48.1339 4.45532 48.4935 5.13306C48.5765 6.57154 47.9403 8.31431 46.8891 9.37934C45.0633 9.76662 43.2238 8.49411 41.8959 7.35993Z" fill="white"/>
<path d="M73.6115 16.2674C74.7457 15.23 75.3404 13.6809 74.8563 11.7583C74.0541 8.6186 70.4441 7.18013 67.4703 7.84404C65.8382 7.83021 64.3168 8.45261 63.8189 10.2922C63.7635 10.4858 63.7358 10.6933 63.7082 10.887C62.0069 15.1332 66.4053 20.4168 70.9282 18.6879C72.0347 18.273 72.9476 17.3601 73.6115 16.2674ZM67.1246 10.0847C67.4703 10.0017 67.8991 10.0156 68.4109 10.1262C68.6045 10.1677 68.7843 10.1539 68.9503 10.1124C68.729 10.7763 69.0471 11.5924 69.9185 11.4817C70.4718 11.4125 71.2602 11.2466 71.7996 11.4402C72.8646 11.8413 72.5742 12.9893 72.2837 13.8746C72.1592 14.2342 72.0071 14.6076 71.8272 14.9672C71.4815 15.2577 71.0665 15.479 70.6239 15.5896C69.061 15.9769 67.5257 15.1747 66.6404 13.8884C65.9627 12.8925 65.7137 11.6892 66.0872 10.9008C66.35 10.5688 66.6819 10.2922 67.1246 10.0847Z" fill="white"/>
<path d="M95.6035 27.2358C97.5952 27.2496 100.016 26.807 101.122 25.3409C102.353 23.7226 100.901 21.6755 99.5455 20.6797C99.2965 20.4998 98.9922 20.3062 98.6602 20.1402C98.1346 19.6423 97.4845 19.2412 96.7653 18.9645C94.7183 18.19 92.4637 18.2591 90.5826 19.2412C88.826 19.8083 87.6089 21.6617 88.2175 23.5289C88.9505 25.7835 91.9381 26.8347 94.0544 27.1251C94.2203 27.1528 94.4002 27.1666 94.58 27.1804C94.9257 27.2358 95.2715 27.2496 95.6035 27.2358ZM93.0723 24.3035C92.2839 23.7087 91.62 22.2426 92.3808 21.3021C92.7404 20.8595 94.0267 21.0116 94.5108 21.0669C95.147 21.1499 96.5025 21.6064 97.5952 22.1873C97.8027 22.5607 97.8857 23.0033 97.7474 23.5428C97.4707 24.5801 96.6547 25.0089 95.7418 25.0781C95.5067 25.0919 95.2715 25.0781 95.0364 25.0642C94.2895 24.9674 93.5703 24.6908 93.0723 24.3035Z" fill="white"/>
<path d="M83.3904 37.3603C84.5246 35.991 85.2299 34.3035 84.5799 32.7682C83.9298 31.2467 82.2423 30.6935 80.4304 30.6105C79.6282 30.4445 78.743 30.403 77.8439 30.4445C76.5714 30.0572 75.4926 30.3477 74.635 31.0531C73.0997 31.5511 71.7719 32.3118 71.025 33.2385C69.3099 35.3824 70.0015 38.0518 72.2975 39.4073C72.4497 39.4903 72.6018 39.5595 72.7678 39.6424C72.92 40.0712 73.1274 40.4585 73.3764 40.8043C76.5576 45.2304 81.5646 41.2884 83.3904 37.3603ZM74.5382 37.5401C74.4276 36.4751 74.6212 34.3588 75.4511 33.2246C75.6862 33.4183 76.0044 33.5013 76.3778 33.3768C76.8342 33.2246 77.4428 33.0448 78.1067 32.9204C78.4664 33.0587 78.8122 32.9757 79.075 32.7682C79.1579 32.7544 79.2548 32.7544 79.3378 32.7544C80.4304 32.8927 81.6476 33.363 81.9795 34.5525C82.0902 34.9398 81.9934 35.4515 81.7859 35.9909C81.0943 36.9038 79.9325 37.6784 79.1165 37.9827C77.7333 38.5083 76.0735 38.5359 74.635 38.0518C74.5797 37.8859 74.5521 37.7199 74.5382 37.5401ZM72.4497 35.493C72.422 35.6866 72.3943 35.8803 72.3805 36.0878C72.3667 35.8941 72.3943 35.7005 72.4497 35.493Z" fill="white"/>
<path d="M108.093 51.1918C106.738 45.4379 97.9548 43.4462 94.7736 48.7436C94.3033 49.5182 94.9396 50.2375 95.6312 50.3343C95.7833 51.2748 96.2121 52.2015 96.8068 52.9623C97.4431 53.7645 98.2868 54.539 99.2273 55.1753C100.472 57.3607 102.713 58.9513 105.272 58.564C107.665 58.1906 109.075 56.0882 108.868 53.7368C108.785 52.8378 108.508 51.9802 108.093 51.1918ZM100.832 49.5597C101.274 48.9926 101.067 48.301 100.638 47.9276C102.602 48.2181 104.677 49.9193 105.811 51.6483C106.779 54.9955 102.824 54.7604 100.846 53.5985C100.209 52.243 99.988 50.6386 100.832 49.5597ZM98.8262 48.1212C99.006 48.0382 99.1997 47.9829 99.3795 47.9414C99.3518 47.9691 99.3242 47.9967 99.2965 48.0244C98.5773 48.9373 98.2453 50.0162 98.19 51.1503C97.4016 50.0438 97.1665 48.8266 98.8262 48.1212Z" fill="white"/>
</svg>
