<svg width="64" height="47" viewBox="0 0 64 47" fill="none" xmlns="http://www.w3.org/2000/svg">
<path d="M47.8132 2.3996e-06C52.7108 2.82776e-06 56.6537 1.80454 59.642 5.41362C62.5473 9.02269 64 13.9852 64 20.301C64 29.3237 61.7588 36.0087 57.2763 40.356C52.7108 44.7853 46.2361 47 37.8521 47C37.5201 47 37.1466 46.959 36.7315 46.877C36.2335 46.877 35.7354 46.836 35.2374 46.7539C34.6563 46.6719 34.1997 46.6309 33.8677 46.6309L33.8677 37.7722C35.6939 38.0183 37.3126 38.1414 38.7237 38.1414C43.2892 38.1414 46.8171 36.911 49.3074 34.4503C51.4656 32.3176 52.7523 29.6518 53.1673 26.4529C51.9222 27.8473 49.8885 28.5445 47.0662 28.5445C42.7497 28.5445 39.3878 27.1091 36.9805 24.2382C34.4903 21.4494 33.2451 18.0454 33.2451 14.0262C33.2451 10.171 34.6148 6.84904 37.3541 4.06021C40.0934 1.35341 43.5798 2.0295e-06 47.8132 2.3996e-06ZM14.5681 -5.06777e-07C19.4656 -7.8621e-08 23.4086 1.80454 26.3969 5.41361C29.3022 9.02269 30.7549 13.9852 30.7549 20.301C30.7549 29.3237 28.5136 36.0087 24.0311 40.356C19.4656 44.7853 12.9909 47 4.60701 47C4.27497 47 3.90142 46.959 3.48638 46.877C2.98833 46.877 2.49027 46.8359 1.99221 46.7539C1.41115 46.6719 0.954601 46.6309 0.622562 46.6309L0.622563 37.7722C2.44877 38.0183 4.06745 38.1414 5.4786 38.1414C10.0441 38.1414 13.572 36.911 16.0623 34.4503C18.2205 32.3176 19.5071 29.6518 19.9222 26.4529C18.677 27.8473 16.6433 28.5445 13.821 28.5445C9.50454 28.5445 6.14268 27.1091 3.73541 24.2382C1.24514 21.4494 -5.0981e-06 18.0454 -4.74673e-06 14.0262C-4.4097e-06 10.171 1.36965 6.84904 4.10895 4.06021C6.84825 1.3534 10.3346 -8.76878e-07 14.5681 -5.06777e-07Z" fill="#FFBA08"/>
</svg>
