<svg width="195" height="202" viewBox="0 0 195 202" fill="none" xmlns="http://www.w3.org/2000/svg">
<path d="M31.5792 183.728C37.4821 189.745 44.2932 195.129 52.1097 198.421C59.0342 201.324 66.7373 202.086 73.8402 199.361C82.4027 196.069 88.4353 188.334 92.5706 180.453C95.5058 174.842 97.8248 168.922 100.565 163.214C103.501 157.117 106.712 151.1 110.766 145.651C114.642 140.446 119.426 135.759 125.329 132.937C131.085 130.164 137.653 129.548 143.897 130.667C149.021 131.575 153.935 133.473 159.124 133.943C163.697 134.348 168.271 133.424 172.438 131.559C173.8 131.186 175.146 130.667 176.444 129.97C181.195 127.375 184.812 122.996 187.487 118.358C193.326 108.223 195.677 96.3199 194.834 84.7249C192.839 57.3833 176.265 33.0744 153.805 18.0738C133.777 4.7112 108.885 -1.92147 84.9 1.43541C72.8347 3.12195 61.11 7.53292 51.0394 14.4251C41.1795 21.1875 32.4063 29.7661 24.9628 39.107C10.9839 56.6374 2.34034 78.1084 0.978128 100.536C-0.302998 121.456 4.35122 143.04 14.7624 161.268C19.4166 169.393 25.0276 177.047 31.5792 183.728Z" fill="#73CDA6"/>
<path d="M76.9212 161.155C72.5913 161.365 68.2614 161.69 63.9478 162.128C59.553 162.582 55.1744 163.198 50.7959 163.701C46.5958 164.187 42.3956 164.609 38.1631 164.82C34.044 165.03 29.9735 164.917 25.8545 164.787C23.0165 164.706 20.0489 164.803 17.1299 165.225C17.4542 165.744 17.7785 166.247 18.1029 166.749C20.1948 166.49 22.2868 166.393 24.2977 166.393C26.2275 166.393 28.1573 166.539 30.1033 166.571C32.1791 166.62 34.271 166.587 36.3467 166.522C40.4334 166.376 44.4876 166.02 48.558 165.582C52.8879 165.112 57.2178 164.511 61.5476 164.009C65.8451 163.506 70.175 163.149 74.5048 162.906C83.1646 162.403 91.8244 162.306 100.5 162.322C100.663 162.322 100.841 162.322 101.003 162.322C101.263 161.771 101.538 161.236 101.814 160.684C93.511 160.684 85.208 160.749 76.9212 161.155Z" fill="white"/>
<path d="M97.6623 137.397C94.2568 137.316 90.9972 136.699 87.7052 135.872C84.6078 135.078 81.5104 134.137 78.3319 133.699C75.4453 133.294 72.5749 133.359 69.737 134.04C67.2396 134.624 64.872 135.645 62.4881 136.602C60.1043 137.559 57.6555 138.418 55.077 138.645C52.0121 138.921 48.8822 138.856 45.8172 138.921C42.6063 138.986 39.4116 139.018 36.2007 139.035C34.6925 139.035 33.1681 139.099 31.66 138.889C30.2491 138.694 28.8545 138.321 27.5085 137.851C24.93 136.959 22.4813 135.726 19.9352 134.721C17.373 133.715 14.7621 133.067 12.0052 132.953C9.62137 132.856 7.23748 133.148 4.93469 133.748C4.61036 133.829 4.30226 133.926 3.99414 134.007C4.12387 134.542 4.25361 135.078 4.39956 135.613C5.2104 135.37 6.02124 135.142 6.83208 134.98C9.19973 134.51 11.6647 134.429 14.0485 134.753C16.7243 135.126 19.2379 136.132 21.6867 137.218C24.1516 138.289 26.6328 139.424 29.2599 140.072C32.0978 140.77 34.9844 140.672 37.871 140.656C41.0657 140.64 44.2442 140.591 47.4389 140.51C50.3741 140.445 53.4067 140.559 56.3095 140.121C61.3367 139.343 65.699 136.553 70.6452 135.499C76.7427 134.186 82.6294 136.326 88.4836 137.753C91.6297 138.516 94.7757 139.002 98.0029 139.051C101.554 139.116 105.106 138.856 108.657 138.645C111.544 138.483 114.382 138.402 117.236 138.467C117.852 137.916 118.485 137.38 119.133 136.861C118.712 136.829 118.29 136.813 117.868 136.797C111.122 136.472 104.408 137.543 97.6623 137.397Z" fill="white"/>
<path d="M15.0547 87.0438C18.2008 85.9411 21.0711 84.2059 24.1199 82.8923C27.6227 81.3842 31.2877 80.6544 35.0986 80.5409C43.353 80.2976 51.4614 82.422 59.4725 84.0599C63.3807 84.8708 67.3214 85.5843 71.2945 85.9735C73.3378 86.1681 75.4136 86.2816 77.4731 86.233C79.1597 86.2006 80.8949 86.1519 82.5003 85.5519C85.3707 84.4653 87.6086 81.9193 90.9006 82.3247C94.144 82.7139 96.5765 85.4221 98.9441 87.433C101.652 89.7358 104.474 91.0818 108.058 91.4061C111.934 91.7629 115.761 90.871 119.556 90.1575C121.615 89.7683 123.707 89.4439 125.815 89.3953C128.053 89.3466 130.291 89.6061 132.529 89.6547C136.827 89.7683 141.124 89.6061 145.405 89.2006C153.968 88.4222 162.417 86.7681 170.866 85.2762C178.747 83.8815 186.515 81.7896 194.299 79.8111C194.218 79.2598 194.137 78.7246 194.056 78.1895C188.493 79.6165 182.947 81.0923 177.401 82.3247C168.887 84.2059 160.211 85.6978 151.568 86.8654C147.481 87.4168 143.362 87.8222 139.243 87.9844C137.054 88.0655 134.864 88.0817 132.691 88.0331C130.453 87.9844 128.199 87.7249 125.961 87.7573C118.453 87.8547 109.663 92.3954 102.593 88.1304C99.8361 86.4762 97.7603 83.8816 95.0359 82.1788C92.4574 80.5571 89.4411 80.1355 86.6356 81.449C85.322 82.0653 84.1706 82.941 82.8733 83.5896C81.2678 84.4005 79.5651 84.5302 77.7974 84.5789C73.6946 84.7086 69.6079 84.2383 65.5862 83.5572C57.5589 82.195 49.6613 79.9733 41.5367 79.1625C37.6933 78.7733 33.785 78.7408 29.9579 79.3895C26.4875 79.9895 23.309 81.3842 20.163 82.9248C17.098 84.4491 13.9843 85.9897 10.5464 86.4438C7.96792 86.7843 5.40569 86.5249 2.87587 85.9897C2.77857 86.4924 2.66507 87.0114 2.58398 87.5303C6.70305 88.3736 10.8546 88.5196 15.0547 87.0438Z" fill="white"/>
<path d="M45.2335 40.8582C49.0931 39.1068 52.0445 35.8148 56.3582 35.0526C61.4503 34.1444 66.6072 35.9445 71.7155 35.3445C74.5535 35.0201 77.1481 33.966 79.7753 32.9444C82.9538 31.6957 86.262 30.8362 89.6351 30.3335C95.7813 29.4253 102.025 29.6524 108.203 29.3605C111.593 29.1983 114.949 28.8577 118.29 28.2739C121.906 27.6577 125.588 27.3334 129.253 27.1712C136.615 26.8631 143.994 27.2361 151.356 27.3496C156.043 27.4145 160.762 27.4955 165.449 27.1388C164.865 26.6036 164.281 26.0847 163.681 25.5657C161.638 25.6955 159.594 25.7441 157.535 25.7441C150.205 25.7441 142.891 25.4198 135.577 25.4036C131.88 25.4036 128.166 25.5009 124.485 25.8252C120.933 26.1333 117.431 26.8631 113.895 27.2523C107.506 27.982 101.084 27.7063 94.6785 28.128C91.5811 28.3388 88.4837 28.728 85.4511 29.4416C82.0781 30.2362 78.9807 31.647 75.6887 32.7336C73.4345 33.4795 71.148 33.8687 68.7641 33.7877C66.2505 33.6904 63.7693 33.3498 61.2557 33.2201C58.5313 33.0903 55.7907 33.2038 53.2446 34.2417C51.331 35.0201 49.6769 36.2202 47.9742 37.3878C46.0281 38.7175 43.9686 39.8203 41.6496 40.3717C38.8766 41.0366 35.9899 40.7609 33.2493 40.1122C30.7681 39.5446 28.368 38.7013 25.9517 37.8905C25.6274 38.2797 25.3193 38.6851 24.9949 39.0743C24.9463 39.123 24.9139 39.1878 24.8652 39.2365C26.3572 39.723 27.8329 40.2419 29.3086 40.7122C34.5791 42.3825 40.0279 43.2258 45.2335 40.8582Z" fill="white"/>
<path d="M11.4702 110.899C14.4541 109.78 17.3082 109.553 20.438 110.12C24.6706 110.899 28.8059 112.228 32.925 113.477C37.1576 114.758 41.4713 115.958 45.9147 116.201C50.3094 116.445 54.542 115.585 58.6286 113.996C62.4396 112.52 66.0721 110.639 70.0128 109.504C74.2129 108.304 78.478 108.304 82.6943 109.358C90.5433 111.336 97.484 116.153 105.592 117.223C110.263 117.839 114.868 116.996 119.49 116.412C121.777 116.12 124.08 115.91 126.399 116.007C128.701 116.104 130.518 116.72 132.61 117.645C134.28 118.391 136.064 119.169 137.929 119.12C139.583 119.088 141.237 118.423 142.648 117.564C145.729 115.682 147.934 112.763 151.599 111.888C159.984 109.861 168.887 115.212 177.011 111.223C178.373 110.542 179.573 109.601 180.855 108.79C182.638 107.655 184.568 106.925 186.676 106.763C188.622 106.617 190.568 106.779 192.514 106.779C192.677 106.228 192.839 105.677 192.985 105.125C192.628 105.142 192.271 105.142 191.898 105.142C189.66 105.109 187.406 104.931 185.184 105.304C183.336 105.628 181.584 106.39 179.995 107.396C178.763 108.19 177.611 109.115 176.281 109.763C174.368 110.72 172.211 111.061 170.087 111.093C165.643 111.19 161.313 110.039 156.886 109.844C152.864 109.666 149.151 110.444 145.94 112.958C143.264 115.05 140.361 118.147 136.599 117.353C134.653 116.931 132.902 115.91 131.053 115.196C129.139 114.466 127.112 114.336 125.069 114.353C120.334 114.385 115.696 115.504 110.976 115.764C106.565 116.007 102.414 115.099 98.2949 113.574C94.4839 112.147 90.8189 110.347 86.9918 108.969C83.2457 107.623 79.2888 106.715 75.2832 106.925C71.1155 107.152 67.1911 108.612 63.3964 110.234C59.6016 111.855 55.8069 113.623 51.704 114.272C47.1309 115.001 42.5253 114.369 38.0819 113.218C33.6872 112.082 29.4059 110.574 24.995 109.455C21.8165 108.644 18.4758 107.785 15.1838 108.223C11.7621 108.677 8.34033 110.234 5.34022 111.872C3.83206 112.699 2.46984 113.672 1.0752 114.58C1.12385 115.228 1.17249 115.893 1.22114 116.542C2.69687 115.634 4.04288 114.515 5.55105 113.639C7.36733 112.553 9.42685 111.661 11.4702 110.899Z" fill="white"/>
<path d="M31.6437 60.6106C34.6113 60.3998 37.433 60.6917 40.3034 61.5187C43.6927 62.508 46.9199 64.0323 50.3741 64.7459C53.3742 65.3621 56.7635 65.3945 59.4393 63.7404C62.0988 62.1187 64.1097 59.4754 67.3206 58.8916C71.2288 58.1943 75.2506 59.7997 79.1751 59.816C83.359 59.8322 87.5105 59.2484 91.6458 58.6321C95.6189 58.0483 99.6569 57.351 103.695 57.5132C107.733 57.6754 111.706 58.5511 115.728 58.8267C119.749 59.1024 123.625 58.4375 127.55 57.5943C131.572 56.7348 135.561 55.6807 139.566 54.7239C147.675 52.7617 156.059 51.0913 164.427 52.1941C171.87 53.1833 179.395 54.7239 186.919 55.6158C186.628 55.032 186.336 54.432 186.044 53.8482C180.076 53.1184 174.157 52.0157 168.221 51.1076C164.459 50.5238 160.729 50.1021 156.918 50.2481C152.88 50.394 148.875 51.0265 144.934 51.8373C140.831 52.6806 136.761 53.7509 132.69 54.7401C128.701 55.7131 124.615 56.7997 120.528 57.1889C116.409 57.5781 112.338 56.8321 108.268 56.3294C104.279 55.8266 100.435 55.8429 96.4459 56.3456C92.3431 56.8645 88.2889 57.6105 84.1699 57.9835C82.0941 58.1618 80.0021 58.2916 77.9264 58.1943C75.8506 58.097 73.8073 57.6105 71.7478 57.351C69.9477 57.124 68.099 57.0429 66.3152 57.4807C64.8394 57.8537 63.4934 58.6321 62.2934 59.5403C61.0771 60.4484 59.9582 61.5025 58.6771 62.3134C57.2824 63.1891 55.7094 63.4972 54.0715 63.5134C50.5525 63.5783 47.2118 62.1998 43.9522 61.0322C40.9034 59.9457 37.8061 59.0213 34.5465 58.924C28.676 58.7457 22.6758 60.2863 17.1297 62.1025C14.5674 62.9296 12.0213 63.8702 9.50775 64.9405C9.19963 65.6702 8.89151 66.3838 8.59961 67.1135C10.2537 66.3838 11.9403 65.7027 13.6268 65.0702C19.3838 62.8647 25.4813 61.0485 31.6437 60.6106Z" fill="white"/>
<path d="M54.8986 17.4899C57.7365 16.7115 60.5096 15.6736 63.3151 14.7817C66.753 13.679 70.2397 12.8357 73.8236 12.3978C81.1536 11.5059 88.5484 11.9762 95.8946 11.4248C99.5758 11.1492 103.257 10.5978 106.809 9.55991C107.944 9.21936 109.095 8.92746 110.246 8.65177C116.117 7.28956 122.085 6.33277 128.053 5.55436C126.82 5.14894 125.588 4.77596 124.355 4.41919C120.382 5.00299 116.409 5.6841 112.484 6.49494C109.095 7.19226 105.803 8.27879 102.414 8.94368C95.1487 10.3545 87.7051 9.98155 80.3589 10.2735C76.6129 10.4194 72.8506 10.7599 69.1694 11.5059C65.8611 12.187 62.6502 13.2573 59.4555 14.3276C55.6607 15.6088 51.7038 16.971 47.7469 16.7764C47.1145 17.2467 46.4821 17.7332 45.8496 18.2197C46.2712 18.3008 46.6929 18.3656 47.1307 18.3981C49.7579 18.6413 52.385 18.171 54.8986 17.4899Z" fill="white"/>
<path d="M78.0071 181.636C73.5637 181.231 69.1041 180.696 64.6282 180.971C62.4876 181.101 60.3632 181.425 58.2875 181.993C56.309 182.544 54.4116 183.274 52.4656 183.89C50.5358 184.507 48.5736 185.025 46.5465 185.139C44.4708 185.253 42.4436 184.912 40.449 184.344C36.6867 183.258 33.0866 181.555 29.1621 181.166C29.7783 181.831 30.3946 182.496 31.027 183.161C33.6055 183.712 36.0867 184.669 38.6327 185.496C40.4976 186.096 42.395 186.599 44.3572 186.761C46.3519 186.923 48.379 186.68 50.3251 186.209C54.2333 185.269 57.882 183.469 61.8876 182.885C66.2661 182.252 70.6771 182.577 75.0557 182.982C79.3855 183.388 83.7154 183.874 88.0777 183.566C89.067 183.501 90.04 183.388 91.013 183.225C91.3697 182.625 91.7103 182.025 92.0346 181.409C91.613 181.49 91.1751 181.555 90.7535 181.62C86.5371 182.285 82.2397 182.025 78.0071 181.636Z" fill="white"/>
</svg>
