<svg width="48" height="48" viewBox="0 0 48 48" fill="none" xmlns="http://www.w3.org/2000/svg">
<circle cx="24" cy="24" r="24" fill="#363636"/>
<path d="M18.8772 33.0602H14.7307V21.4033H18.8772V33.0602ZM16.8017 19.8132C15.4758 19.8132 14.4004 18.8545 14.4004 17.697C14.4004 17.141 14.6534 16.6077 15.1037 16.2146C15.5541 15.8215 16.1649 15.6006 16.8017 15.6006C17.4386 15.6006 18.0494 15.8215 18.4997 16.2146C18.9501 16.6077 19.2031 17.141 19.2031 17.697C19.2031 18.8545 18.1272 19.8132 16.8017 19.8132ZM34.3959 33.0602H30.2584V27.3857C30.2584 26.0333 30.2272 24.299 28.1026 24.299C25.9468 24.299 25.6165 25.7683 25.6165 27.2883V33.0602H21.4745V21.4033H25.4513V22.9934H25.5093C26.0629 22.0776 27.4151 21.111 29.4325 21.111C33.629 21.111 34.4004 23.5235 34.4004 26.6569V33.0602H34.3959Z" fill="white"/>
</svg>
