<svg width="48" height="48" viewBox="0 0 48 48" fill="none" xmlns="http://www.w3.org/2000/svg">
<circle cx="24" cy="24" r="24" fill="#363636"/>
<path d="M33.3602 26.2551C33.4897 25.6354 33.57 24.9757 33.57 24.3161C33.57 19.2913 29.4674 15.2273 24.4049 15.2273C23.7397 15.2273 23.079 15.3025 22.4495 15.4354C21.6013 14.7846 20.5477 14.3994 19.4004 14.3994C16.6415 14.3994 14.4004 16.6218 14.4004 19.3577C14.4004 20.4955 14.7888 21.5403 15.4406 22.377C15.3111 22.9968 15.2307 23.6564 15.2307 24.3161C15.2307 29.3408 19.3334 33.4049 24.3959 33.4049C25.0611 33.4049 25.7218 33.3296 26.3513 33.1968C27.1995 33.8432 28.2531 34.2283 29.3959 34.2283C32.1549 34.2283 34.3959 32.0059 34.3959 29.27C34.4004 28.1367 34.012 27.0919 33.3602 26.2551ZM24.6727 30.3059C21.7441 30.3059 19.2932 29.0132 19.2932 27.4283C19.2932 26.72 19.695 26.0736 20.6102 26.0736C22.0031 26.0736 22.1325 28.0614 24.5432 28.0614C25.6906 28.0614 26.4316 27.5567 26.4316 26.8971C26.4316 26.0692 25.7174 25.9408 24.5566 25.6575C21.7665 24.9757 19.2977 24.6835 19.2977 21.7971C19.2977 19.1762 21.9138 18.2067 24.1682 18.2067C26.6281 18.2067 29.1147 19.1762 29.1147 20.6593C29.1147 21.4075 28.6057 22.0671 27.762 22.0671C26.4986 22.0671 26.4584 20.584 24.4138 20.584C23.2665 20.584 22.5388 20.8939 22.5388 21.5801C22.5388 22.4567 23.4674 22.5452 25.6236 23.0411C27.4718 23.4528 29.6727 24.2275 29.6727 26.4765C29.6727 29.0929 27.1236 30.3059 24.6727 30.3059Z" fill="white"/>
</svg>
