<svg width="48" height="48" viewBox="0 0 48 48" fill="none" xmlns="http://www.w3.org/2000/svg">
<circle cx="24" cy="24" r="24" fill="#363636"/>
<path d="M33.5369 18.9874C33.5513 19.1887 33.5513 19.3901 33.5513 19.5915C33.5513 25.7327 28.877 32.8089 20.3339 32.8089C17.7019 32.8089 15.2569 32.0466 13.2002 30.7234C13.5742 30.7666 13.9337 30.7809 14.322 30.7809C16.4937 30.7809 18.4929 30.0475 20.0894 28.7962C18.0471 28.753 16.3355 27.4155 15.7459 25.5745C16.0335 25.6176 16.3212 25.6464 16.6232 25.6464C17.0403 25.6464 17.4574 25.5889 17.8457 25.4882C15.7171 25.0567 14.1206 23.187 14.1206 20.929V20.8715C14.739 21.2167 15.4582 21.4324 16.2204 21.4611C14.9692 20.6269 14.1494 19.2031 14.1494 17.5923C14.1494 16.7293 14.3795 15.9383 14.7822 15.248C17.069 18.0669 20.5064 19.9078 24.3609 20.1092C24.289 19.764 24.2458 19.4045 24.2458 19.0449C24.2458 16.4848 26.3169 14.3994 28.8913 14.3994C30.2289 14.3994 31.437 14.9603 32.2856 15.8664C33.3355 15.6651 34.3422 15.2767 35.234 14.7446C34.8887 15.8233 34.1553 16.7294 33.1917 17.3046C34.1265 17.204 35.0326 16.9451 35.8668 16.5856C35.2341 17.506 34.443 18.3257 33.5369 18.9874Z" fill="white"/>
</svg>
