<svg width="194" height="121" viewBox="0 0 194 121" fill="none" xmlns="http://www.w3.org/2000/svg">
<path d="M193.117 1.19719C190.478 -35.5974 178.924 -70.52 151.796 -77.2253C151.796 -77.2253 151.796 -77.2253 151.78 -77.2253C129.977 -82.5956 106.04 -58.6592 88.7786 -48.1026C53.6411 -26.6519 15.6497 1.78025 5.38468 43.8991C4.17251 48.8552 3.88098 53.7652 5.26193 58.7367C7.99313 68.5107 15.5577 76.3054 23.1836 82.5964C57.1088 110.538 128.627 137.328 168.597 106.103C175.333 100.84 180.151 93.5672 183.466 85.7725C190.646 68.8483 195.48 34.2785 193.117 1.19719Z" fill="#72CCA6"/>
<path d="M102.23 83.6691C88.3258 78.593 73.8143 75.6354 59.2819 73.0764C44.4563 70.4544 29.526 68.231 14.8889 64.7071C4.48167 62.19 -6.90974 59.1275 -15.0554 51.7441C-20.1439 47.1295 -22.887 40.9836 -22.4473 34.1036C-21.9657 26.6992 -18.4477 19.6723 -14.5738 13.4845C-9.75759 5.78644 -3.85249 -1.17748 2.32484 -7.82677C8.6278 -14.6229 15.3077 -21.0624 22.0504 -27.3971C27.7461 -32.7459 33.4627 -37.9059 39.7867 -42.5205C47.702 -48.2888 56.0152 -53.5118 64.6425 -58.1474C73.8981 -63.1186 83.5515 -67.4816 93.6236 -70.565C102.649 -73.3338 112.197 -75.1796 121.662 -74.3196C128.656 -73.6694 136.572 -71.383 140.906 -65.5937C145.618 -59.301 147.67 -51.0576 149.24 -43.4854C151.335 -33.3751 152.319 -23.0341 152.905 -12.7351C153.491 -2.31017 153.638 8.11473 153.449 18.5606C153.345 25.3358 152.905 32.0899 153.073 38.8651C153.219 44.7382 153.47 50.6324 153.24 56.5056C152.989 62.3788 152.34 68.231 150.225 73.7686C148.319 78.7817 144.969 83.1447 140.111 85.6618C133.535 89.0808 125.474 88.871 118.312 87.7384C112.847 86.8783 107.507 85.41 102.251 83.6691C100.701 83.1657 100.052 85.5988 101.581 86.1023C111.046 89.2276 121.411 91.8915 131.462 90.7169C137.786 89.9827 143.838 87.4866 148.005 82.5154C151.795 77.9847 153.743 72.2583 154.727 66.511C155.795 60.3441 155.899 54.0514 155.795 47.8007C155.711 42.389 155.334 36.9563 155.543 31.5446C155.899 22.0006 156.109 12.4777 155.941 2.93375C155.753 -7.97359 155.208 -18.9019 153.91 -29.7463C152.779 -39.1854 151.23 -48.7922 147.817 -57.7069C146.476 -61.1679 144.864 -64.545 142.561 -67.4816C140.425 -70.2084 137.744 -72.0543 134.624 -73.4806C126.332 -77.2772 116.993 -77.5709 108.072 -76.3752C97.7279 -74.9699 87.7185 -71.5928 78.1489 -67.4816C68.4118 -63.2864 59.0515 -58.2103 50.0892 -52.5469C42.6555 -47.8483 35.3892 -42.7303 28.7093 -36.962C22.2179 -31.3615 16.0615 -25.2995 9.98891 -19.3005C3.16244 -12.5673 -3.47557 -5.58237 -9.42255 1.96887C-14.7413 8.70206 -19.6832 15.9387 -22.6986 24.0143C-25.1276 30.5377 -26.0699 37.8792 -23.3477 44.4865C-20.102 52.3944 -12.7101 57.5334 -5.17171 60.9315C0.691511 63.5744 6.8479 65.3573 13.088 66.8885C20.5427 68.7134 28.0811 70.2027 35.6405 71.5661C50.6546 74.272 65.7942 76.4534 80.6408 79.9773C87.7185 81.6554 94.7335 83.6481 101.56 86.1442C103.089 86.6476 103.738 84.2144 102.23 83.6691Z" fill="#165368"/>
<path d="M145.213 81.8291C145.09 81.6297 144.983 81.5069 144.845 81.2307C144.921 81.9058 145.075 81.9519 145.213 81.8291Z" fill="white"/>
<path d="M134.473 92.5696C133.169 91.7103 132.064 90.8664 130.913 93.567C132.632 93.3061 133.951 93.9352 134.918 95.132C135.654 94.0426 137.097 93.4595 137.219 91.8945C135.854 90.7744 135.516 93.2754 134.473 92.5696Z" fill="white"/>
<path d="M106.793 109.678C105.688 108.834 105.212 107.806 104.016 108.374C104.123 109.602 104.936 110.077 106.839 110.047C107.79 111.366 106.363 111.903 105.857 112.747C108.818 113.606 108.941 110.844 110.997 109.694C109.002 109.126 107.821 108.957 106.793 109.678Z" fill="white"/>
<path d="M179.308 51.4944C179.369 52.4611 179.446 53.397 179.507 54.3637C179.952 54.3944 180.458 54.5785 180.811 54.4251C181.364 54.1949 183.082 55.7753 182.392 53.7806C182.023 52.6605 181.072 51.2182 179.308 51.4944Z" fill="white"/>
<path d="M159.469 73.2215C162.967 73.5284 162.967 73.5284 162.384 70.3215C161.157 70.6284 160.696 71.7178 159.469 73.2215Z" fill="white"/>
<path d="M166.388 92.5849C167.293 92.5849 167.983 92.5849 168.214 92.5849C168.659 91.5569 169.088 90.5442 169.61 89.332C167.446 90.0072 166.71 90.9892 166.388 92.5849Z" fill="white"/>
<path d="M182.974 46.922C183.542 45.2495 183.297 43.9913 181.793 42.9326C182.115 44.1601 181.317 45.7099 182.974 46.922Z" fill="white"/>
<path d="M158.317 100.257C157.105 99.1214 156.108 98.1854 155.279 97.4182C155.663 99.5357 155.663 99.5357 158.317 100.257Z" fill="white"/>
<path d="M53.8866 88.4272C53.9019 88.4886 53.7178 88.3658 53.5183 88.3198C53.0733 88.2278 52.8585 88.596 53.1654 89.1023C53.2728 89.2865 53.8405 89.2098 54.1934 89.2558C55.5744 89.7315 56.0654 90.7134 57.2469 90.1457C57.1241 88.7801 56.3723 88.2124 53.8866 88.4272Z" fill="white"/>
<path d="M80.7842 95.9764C80.9069 97.1118 81.536 97.6335 83.0397 97.8023C82.6561 96.2372 82.2418 95.3012 80.7842 95.9764Z" fill="white"/>
<path d="M178.357 65.4725C179.615 64.7207 180.49 64.4905 180.275 63.2937C180.259 63.1709 180.014 62.9868 179.907 62.9868C178.817 63.0022 178.326 63.6006 178.357 65.4725Z" fill="white"/>
<path d="M97.5255 85.6191C97.2186 84.1768 96.7123 83.517 95.5922 83.563C95.4234 84.99 96.0525 85.527 97.5255 85.6191Z" fill="white"/>
<path d="M109.094 99.8271C108.787 98.3848 108.281 97.725 107.161 97.771C106.992 99.2134 107.606 99.7504 109.094 99.8271Z" fill="white"/>
<path d="M134.043 111.658C135.454 111.704 136.083 111.029 135.93 109.617C134.503 109.556 133.889 110.231 134.043 111.658Z" fill="white"/>
<path d="M122.075 91.6184C122.029 90.2067 121.308 89.5316 119.896 89.5776C119.943 90.9893 120.664 91.6644 122.075 91.6184Z" fill="white"/>
<path d="M74.8927 103.709C74.8467 102.298 74.1255 101.622 72.7139 101.668C72.7599 103.095 73.4811 103.771 74.8927 103.709Z" fill="white"/>
<path d="M152.886 69.3855C152.303 70.3675 153.408 71.3188 154.743 71.3956C154.743 70.9966 154.789 70.3215 154.727 70.3062C153.976 70.122 153.607 68.1427 152.886 69.3855Z" fill="white"/>
<path d="M122.045 105.121C122.152 106.195 122.781 106.732 124.254 106.824C123.947 105.382 123.441 104.722 122.321 104.768C122.214 104.768 122.03 104.998 122.045 105.121Z" fill="white"/>
<path d="M155.723 69.1707C156.122 69.186 156.813 69.2934 156.813 69.232C156.936 68.5109 158.9 68.2807 157.595 67.4675C156.583 66.8077 155.693 67.8511 155.723 69.1707Z" fill="white"/>
<path d="M161.539 79.4663C161.493 78.0546 160.772 77.3795 159.36 77.4255C159.406 78.8372 160.128 79.5123 161.539 79.4663Z" fill="white"/>
<path d="M157.013 88.0131C158.271 87.2612 159.146 87.0311 158.931 85.8342C157.489 85.5581 156.998 86.1565 157.013 88.0131Z" fill="white"/>
<path d="M171.329 75.124C171.206 73.9886 170.577 73.4669 169.073 73.2981C169.441 74.8785 169.856 75.8145 171.329 75.124Z" fill="white"/>
<path d="M174.276 74.3872C174.229 72.9755 173.508 72.3004 172.097 72.3464C172.143 73.7734 172.864 74.4485 174.276 74.3872Z" fill="white"/>
<path d="M177.083 71.0889C176.96 69.9534 176.331 69.4317 174.827 69.2629C175.211 70.828 175.625 71.764 177.083 71.0889Z" fill="white"/>
<path d="M144.646 104.231C143.342 105.827 145.198 106.349 145.873 107.254C147.177 105.658 145.321 105.152 144.646 104.231Z" fill="white"/>
<path d="M154.896 97.8634C155.632 96.3137 157.151 96.0529 156.384 94.5952C155.019 94.6259 154.512 95.347 154.896 97.8634Z" fill="white"/>
<path d="M159.591 94.6257C159.545 93.2141 158.824 92.5389 157.412 92.585C157.458 93.9966 158.179 94.6717 159.591 94.6257Z" fill="white"/>
<path d="M163.35 103.755C163.043 102.313 162.536 101.653 161.416 101.699C161.248 103.142 161.877 103.679 163.35 103.755Z" fill="white"/>
<path d="M28.2629 59.7798C28.6004 59.6877 28.9227 59.5803 29.2449 59.4883C29.2295 59.2121 29.2142 58.9972 29.1989 58.7671C28.8766 58.8745 28.5084 58.9512 28.2322 59.1354C28.1401 59.1967 28.2475 59.5496 28.2629 59.7798Z" fill="white"/>
<path d="M59.0119 59.2583C59.3495 59.1509 59.6717 59.0588 59.9939 58.9668C59.9786 58.6906 59.9632 58.4758 59.9479 58.2456C59.6257 58.353 59.2574 58.4297 58.9812 58.6139C58.8892 58.6752 58.9966 59.0435 59.0119 59.2583Z" fill="white"/>
<path d="M93.8428 103.756C93.8428 103.878 94.1803 104.032 94.3798 104.17C94.4872 103.832 94.5946 103.51 94.702 103.188C94.4719 103.019 94.2877 102.881 94.1036 102.743C94.0116 103.08 93.8581 103.418 93.8428 103.756Z" fill="white"/>
<path d="M93.1671 82.2434C93.5047 82.3354 93.8423 82.4429 94.1952 82.5349C94.1798 82.3048 94.2412 81.9518 94.1338 81.8905C93.8269 81.7063 93.4587 81.645 93.1211 81.5222C93.1364 81.7524 93.1518 81.9672 93.1671 82.2434Z" fill="white"/>
<path d="M98.0928 103.249C98.3229 103.249 98.6758 103.341 98.7372 103.234C98.906 102.942 98.9367 102.574 99.0287 102.236C98.8139 102.236 98.5838 102.236 98.3076 102.236C98.2462 102.574 98.1695 102.911 98.0928 103.249Z" fill="white"/>
<path d="M110.398 83.164C110.705 83.3481 111.073 83.4095 111.411 83.5322C111.396 83.3021 111.38 83.0873 111.365 82.8111C111.027 82.719 110.675 82.6116 110.337 82.5195C110.337 82.7497 110.291 83.1026 110.398 83.164Z" fill="white"/>
<path d="M143.295 50.1443C143.617 50.0369 143.986 49.9602 144.262 49.776C144.354 49.7147 144.246 49.3464 144.231 49.1316C143.893 49.2237 143.571 49.3311 143.249 49.4231C143.264 49.6993 143.28 49.9295 143.295 50.1443Z" fill="white"/>
<path d="M118.316 81.5071C118.653 81.415 118.975 81.3076 119.298 81.2155C119.282 80.9394 119.267 80.7245 119.252 80.4944C118.929 80.6018 118.561 80.6785 118.285 80.8626C118.193 80.924 118.3 81.2769 118.316 81.5071Z" fill="white"/>
<path d="M117.671 86.5552C117.901 86.5552 118.254 86.6319 118.315 86.5398C118.484 86.2483 118.515 85.88 118.607 85.5425C118.377 85.5425 118.162 85.5425 117.886 85.5425C117.824 85.88 117.748 86.2176 117.671 86.5552Z" fill="white"/>
<path d="M151.795 51.1719C151.627 51.4635 151.596 51.8317 151.504 52.1693C151.734 52.1693 152.087 52.246 152.148 52.1539C152.317 51.8624 152.348 51.4942 152.44 51.1566C152.21 51.1566 151.857 51.0645 151.795 51.1719Z" fill="white"/>
<path d="M115.277 110.077C115.6 109.97 115.968 109.893 116.244 109.709C116.336 109.648 116.229 109.28 116.213 109.065C115.876 109.157 115.554 109.264 115.231 109.356C115.247 109.632 115.262 109.863 115.277 110.077Z" fill="white"/>
<path d="M159.36 61.4217C159.345 61.7746 159.222 62.1735 159.345 62.4804C159.483 62.7873 159.652 62.9407 159.805 62.9407C159.667 63.2936 159.452 63.6312 159.406 63.9994C159.345 64.4291 159.729 64.6746 160.22 64.4137C160.388 64.3217 160.281 63.7386 160.296 63.3857C160.143 63.2323 159.974 63.0942 159.821 62.9407C159.974 62.9407 160.128 62.7873 160.204 62.4804C160.281 62.1735 160.112 61.7746 159.989 61.437C159.974 61.3603 159.606 61.4217 159.36 61.4217Z" fill="white"/>
<path d="M151.244 60.2559C151.229 60.6088 151.106 61.0078 151.229 61.3146C151.352 61.6215 151.52 61.775 151.674 61.775C151.536 62.1279 151.321 62.4654 151.275 62.8337C151.213 63.2633 151.597 63.5088 152.088 63.248C152.257 63.1559 152.149 62.5728 152.165 62.2199C152.011 62.0665 151.843 61.9284 151.689 61.775C151.843 61.775 151.996 61.6215 152.073 61.3146C152.149 61.0078 151.996 60.6088 151.858 60.2713C151.858 60.1945 151.474 60.2559 151.244 60.2559Z" fill="white"/>
<path d="M115.907 103.525C116.015 103.71 116.582 103.633 116.935 103.679C117.073 103.525 117.211 103.372 117.349 103.234C116.981 103.065 116.628 102.835 116.245 102.743C115.815 102.651 115.6 103.019 115.907 103.525Z" fill="white"/>
<path d="M159.207 61.2527C159.437 61.2527 159.79 61.3447 159.851 61.2373C160.02 60.9458 160.051 60.5776 160.143 60.24C159.913 60.24 159.698 60.24 159.422 60.24C159.36 60.5776 159.284 60.9151 159.207 61.2527Z" fill="white"/>
<path d="M157.474 65.0122C157.811 65.1042 158.149 65.2116 158.502 65.3037C158.486 65.0735 158.548 64.7206 158.44 64.6593C158.134 64.4751 157.765 64.4138 157.428 64.291C157.428 64.5212 157.443 64.736 157.474 65.0122Z" fill="white"/>
<path d="M126.357 102.221C127.032 101.546 126.986 100.871 126.218 100.196C125.528 100.871 125.589 101.546 126.357 102.221Z" fill="white"/>
<path d="M126.494 104.231C127.169 103.556 127.123 102.881 126.356 102.206C125.681 102.896 125.727 103.571 126.494 104.231Z" fill="white"/>
<path d="M126.126 105.382C126.648 106.119 127.169 105.781 127.584 105.244C127.231 104.907 126.863 104.569 126.51 104.231C126.356 104.63 125.988 105.183 126.126 105.382Z" fill="white"/>
<path d="M134.518 96.2064C134.457 96.636 134.84 96.8815 135.331 96.6053C135.5 96.5133 135.393 95.9302 135.408 95.5773C135.239 95.4239 135.086 95.2704 134.932 95.1323C134.779 95.4852 134.564 95.8382 134.518 96.2064Z" fill="white"/>
<path d="M156.905 71.3644C157.028 71.7019 157.151 72.0548 157.274 72.3771C157.55 72.3771 157.765 72.3771 157.995 72.3771C157.857 72.0395 157.765 71.6712 157.565 71.3797C157.488 71.2723 157.135 71.3644 156.905 71.3644Z" fill="white"/>
<path d="M127.583 105.244C127.951 105.582 128.304 105.919 128.657 106.257C128.795 105.873 129.179 105.321 129.041 105.122C128.519 104.37 127.997 104.723 127.583 105.244Z" fill="white"/>
<path d="M129.992 103.725C130.33 103.633 130.652 103.525 130.974 103.433C130.959 103.157 130.944 102.942 130.928 102.712C130.606 102.82 130.238 102.896 129.962 103.08C129.87 103.142 129.977 103.51 129.992 103.725Z" fill="white"/>
<path d="M149.786 84.5144C150.108 84.407 150.477 84.3303 150.753 84.1461C150.86 84.0848 150.738 83.7165 150.722 83.5017C150.385 83.5938 150.047 83.7012 149.74 83.7932C149.756 84.0694 149.771 84.2843 149.786 84.5144Z" fill="white"/>
<path d="M166.71 67.3142C166.848 67.6518 166.94 68.02 167.14 68.3116C167.216 68.419 167.569 68.3269 167.784 68.3269C167.661 67.9893 167.539 67.6518 167.416 67.3142C167.155 67.3142 166.925 67.3142 166.71 67.3142Z" fill="white"/>
<path d="M169.872 64.2914C169.703 64.5829 169.672 64.9512 169.58 65.2887C169.795 65.2887 170.025 65.2887 170.301 65.2887C170.378 64.9665 170.455 64.6136 170.516 64.2761C170.301 64.2761 169.933 64.1993 169.872 64.2914Z" fill="white"/>
<path d="M154.896 85.5115C155.126 85.5115 155.479 85.6035 155.54 85.4961C155.709 85.2046 155.739 84.8363 155.831 84.4988C155.601 84.4988 155.387 84.4988 155.11 84.4988C155.049 84.8363 154.972 85.1739 154.896 85.5115Z" fill="white"/>
<path d="M164.547 79.4512C164.885 79.3591 165.207 79.2517 165.529 79.1596C165.514 78.8835 165.498 78.6686 165.483 78.4385C165.161 78.5459 164.793 78.6226 164.516 78.8067C164.424 78.8681 164.532 79.221 164.547 79.4512Z" fill="white"/>
<path d="M171.528 78.07C171.835 78.2541 172.203 78.3155 172.541 78.4382C172.525 78.2081 172.51 77.9933 172.495 77.7171C172.157 77.625 171.82 77.5176 171.467 77.4255C171.482 77.6404 171.421 78.0086 171.528 78.07Z" fill="white"/>
<path d="M152.011 101.331C152.317 101.516 152.686 101.577 153.023 101.7C153.008 101.47 152.993 101.255 152.977 100.979C152.64 100.886 152.302 100.779 151.949 100.687C151.964 100.902 151.903 101.27 152.011 101.331Z" fill="white"/>
<path d="M149.295 105.735C149.418 106.073 149.54 106.41 149.663 106.748C149.939 106.748 150.154 106.748 150.384 106.748C150.246 106.41 150.154 106.042 149.955 105.751C149.863 105.659 149.51 105.735 149.295 105.735Z" fill="white"/>
<path d="M158.072 96.6514C157.903 96.943 157.872 97.3112 157.78 97.6488C158.01 97.6488 158.363 97.7255 158.425 97.6334C158.594 97.3419 158.624 96.9737 158.716 96.6361C158.501 96.6361 158.133 96.544 158.072 96.6514Z" fill="white"/>
<path d="M163.549 93.5976C163.764 93.5976 164.132 93.6744 164.193 93.5823C164.362 93.2908 164.393 92.9225 164.485 92.585C164.255 92.585 164.04 92.585 163.764 92.585C163.687 92.9225 163.61 93.2601 163.549 93.5976Z" fill="white"/>
<path d="M158.501 107.392C158.808 107.576 159.176 107.637 159.513 107.76C159.498 107.53 159.483 107.315 159.467 107.039C159.13 106.947 158.792 106.839 158.439 106.747C158.455 106.962 158.393 107.33 158.501 107.392Z" fill="white"/>
<path d="M168.92 98.3548C169.258 98.4468 169.595 98.5542 169.948 98.6463C169.933 98.4161 169.994 98.0632 169.887 98.0019C169.58 97.8177 169.212 97.7563 168.874 97.6489C168.889 97.8637 168.905 98.0939 168.92 98.3548Z" fill="white"/>
<path d="M172.05 94.6261C171.882 94.9176 171.851 95.2858 171.759 95.6234C171.989 95.6234 172.204 95.6234 172.48 95.6234C172.557 95.3012 172.618 94.9483 172.695 94.6107C172.465 94.5953 172.096 94.5186 172.05 94.6261Z" fill="white"/>
</svg>
