<svg width="185" height="145" viewBox="0 0 185 145" fill="none" xmlns="http://www.w3.org/2000/svg">
<path d="M26.5414 179.887C42.1024 181.235 56.7645 170.341 64.1918 156.578C68.5583 148.487 72.2613 138.213 81.1869 135.965C87.9079 134.274 94.6717 138.063 101.542 138.833C107.964 139.54 114.385 137.1 119.244 132.84L119.201 132.926C129.325 128.388 140.713 127.831 151.586 125.712C162.481 123.593 173.868 119.184 179.669 109.723C189.707 93.3275 178.02 72.4796 165.627 57.7961C163.401 55.142 160.983 52.4236 157.708 51.2464C149.852 48.3996 142.168 55.5487 134.056 57.5179C117.938 61.3921 105.138 45.1033 92.8737 33.973C79.4318 21.8153 60.5959 14.281 42.98 18.4976C28.2966 22.008 16.1603 33.4379 9.95301 47.201C3.74572 60.964 3.06079 76.8033 6.07881 91.6151C9.09683 106.427 15.5824 122.245 9.22526 135.944C7.4701 139.711 4.83735 143.029 3.29623 146.881C-2.52577 161.394 10.9804 178.538 26.5414 179.887Z" fill="#FBDD77"/>
<path d="M26.5208 165.696C46.0203 166.895 59.9117 152.682 68.131 136.564C70.143 132.605 72.2407 128.324 75.4941 125.22C80.7168 120.254 86.9669 121.196 93.3882 122.887C103.512 125.563 111.967 125.027 120.336 118.178C119.502 117.536 118.667 116.894 117.832 116.252C117.811 116.273 117.811 116.316 117.789 116.337C117.04 117.857 118.517 119.141 119.973 118.521C135.919 111.757 154.412 114.004 169.695 105.314C182.324 98.1221 187.332 84.7444 183.758 70.8315C181.831 63.3185 178.021 56.3193 173.655 49.9622C169.802 44.3328 164.965 36.4774 158.286 34.0159C152.186 31.747 146.172 34.9577 140.713 37.462C131.916 41.5075 124.211 41.5289 115.884 36.3276C102.571 28.0013 93.7093 14.4309 79.6466 6.98215C66.4187 -0.0384971 50.558 -2.56424 36.3883 3.15074C23.246 8.43763 12.9718 19.6536 7.64212 32.6674C1.09237 48.6994 1.90574 66.0155 5.90837 82.5397C8.41269 92.878 12.0515 104.073 9.37591 114.732C7.25687 123.208 0.171988 129.373 0.257605 138.512C0.450245 152.639 13.0575 164.112 26.5208 165.696C28.5543 165.931 28.5328 162.742 26.5208 162.507C13.0575 160.923 -0.0634413 146.946 4.32446 132.862C6.52912 125.777 11.7946 120.554 12.9932 112.998C14.0849 106.17 13.0788 99.2566 11.6233 92.557C8.13443 76.4609 3.87496 61.2851 7.32107 44.7181C10.3391 30.1845 18.6654 16.764 31.5723 9.07977C45.2925 0.924693 61.6455 1.86647 75.751 8.56606C89.0431 14.8804 97.7547 26.3317 109.035 35.3002C117.939 42.385 127.956 46.2378 138.98 41.7215C146.621 38.5965 154.113 33.1598 161.519 39.9235C166.977 44.8894 171.45 51.7816 175.046 58.1601C179.327 65.7587 182.73 74.5773 181.617 83.4387C180.504 92.4286 174.554 99.2352 166.698 103.302C151.694 111.072 133.821 109.188 118.367 115.759C119.095 116.487 119.823 117.215 120.55 117.943C120.572 117.921 120.572 117.878 120.593 117.857C121.428 116.187 119.48 114.775 118.089 115.931C112.652 120.383 106.316 122.352 99.3601 121.089C94.6511 120.233 90.1776 118.307 85.3402 118.178C77.87 117.985 72.5617 122.63 68.7946 128.666C64.0214 136.329 61.0676 144.484 54.5392 151.012C47.0477 158.525 37.2016 163.149 26.478 162.507C24.4874 162.378 24.4874 165.567 26.5208 165.696Z" fill="#4C4C4C"/>
</svg>
