<svg width="152" height="166" viewBox="0 0 152 166" fill="none" xmlns="http://www.w3.org/2000/svg">
<path d="M69.6468 131.094C69.4778 131.118 69.3166 131.156 69.1475 131.181C69.1296 131.118 69.0978 131.063 69.0445 131.002C64.9548 125.6 61.3104 119.922 58.1034 113.955C57.6392 113.087 56.3319 113.677 56.5367 114.603C58.2603 122.25 58.3166 130.055 56.6809 137.719C56.5036 138.554 57.4839 139.142 58.1224 138.535C61.5209 135.383 65.5268 133.473 70.0868 132.744C71.164 132.58 70.7239 130.93 69.6468 131.094ZM60.9655 126.365C60.9517 126.373 60.9379 126.381 60.9321 126.402C60.93 126.367 60.9279 126.332 60.9258 126.296C60.9554 126.316 60.9633 126.329 60.9655 126.365ZM60.8541 131.849C60.8758 131.855 60.8895 131.847 60.9249 131.845C60.9191 131.866 60.9133 131.888 60.9154 131.924C60.8448 132.404 61.1217 132.757 61.4646 132.907C61.284 132.974 61.0954 133.028 60.901 133.104C60.8755 132.679 60.8579 132.268 60.8541 131.849ZM62.4936 132.532C62.5189 132.481 62.5364 132.416 62.5401 132.359C63.0286 132.095 63.523 131.81 64.0116 131.546C64.2081 131.506 64.3729 131.411 64.5139 131.274C64.5551 131.25 64.6101 131.219 64.6513 131.195C65.4951 131.642 66.3812 130.544 65.6778 129.833C65.2313 129.377 64.8043 128.891 64.4127 128.403C64.4247 128.011 64.3363 127.605 64.1887 127.159C65.0836 128.455 65.998 129.722 66.934 130.994C65.4591 131.516 63.9763 132.024 62.4936 132.532ZM59.584 120.039C59.4388 120.105 59.3093 120.198 59.2174 120.324C59.1803 119.943 59.1295 119.569 59.0708 119.182C59.251 119.463 59.4175 119.751 59.584 120.039ZM59.7119 135.072C59.3981 135.29 59.0924 135.521 58.7866 135.753C58.9379 134.841 59.0618 133.946 59.1777 133.037C59.1953 133.448 59.1991 133.867 59.2167 134.278C59.2221 134.604 59.4181 134.912 59.7119 135.072Z" fill="#6FABF6"/>
<path d="M96.407 116.963C94.7398 114.043 93.0806 111.138 91.4134 108.218C91.2152 107.875 90.9093 107.631 90.5606 107.502C90.0178 106.626 89.4691 105.77 88.8497 104.92C88.0442 103.81 86.0652 103.744 85.7202 105.335C84.4493 111.031 83.1923 116.719 81.9215 122.415C81.6303 123.718 82.7167 124.775 84.0157 124.52C88.8107 123.564 93.3868 122.039 97.8486 120.031C99.7428 119.157 98.2733 116.453 96.407 116.963ZM90.1505 117.004C90.323 116.447 90.4661 115.87 90.609 115.293C90.9036 116.057 91.1843 116.829 91.4376 117.616C90.9927 117.543 90.5748 117.327 90.1505 117.004ZM86.7318 116.506L86.726 116.528L86.7318 116.506ZM85.9099 120.57C85.8825 120.585 85.8608 120.58 85.8333 120.595C85.845 120.552 85.8565 120.509 85.8544 120.473C85.8703 120.501 85.8861 120.528 85.9099 120.57Z" fill="#6FABF6"/>
<path d="M90.8086 149.034C88.5404 144.979 85.9252 141.179 82.9941 137.561C82.1734 136.551 80.4059 137.169 80.1279 138.337C79.3888 141.528 78.6575 144.734 77.9184 147.925C77.461 149.892 75.8223 153.365 76.8283 155.33C77.6497 156.943 79.3127 156.715 80.776 156.237C84.1974 155.122 87.5584 153.712 90.928 152.444C92.7287 151.789 92.3021 149.179 90.8086 149.034ZM85.0794 149.577C85.331 149.981 85.6159 150.348 85.9203 150.685C85.5452 150.828 85.1839 150.963 84.8089 151.107C84.9207 150.603 85.0109 150.093 85.0794 149.577Z" fill="#6FABF6"/>
<path d="M65.6524 104.671C69.2944 104.509 72.8602 104.025 76.3969 103.173C78.3794 102.706 77.7884 99.8429 76.0101 99.8076C75.9879 99.6739 75.944 99.5345 75.8647 99.3972C74.3074 96.4144 73.5172 93.4282 72.944 90.1519C72.474 87.5301 71.8209 85.2888 70.0906 83.2116C69.3015 82.2572 67.4432 82.7808 67.2243 83.9875C66.1523 90.1546 65.0882 96.3354 64.0024 102.51C63.8221 103.53 64.4685 104.713 65.6524 104.671ZM72.048 100.081C72.149 100.224 72.242 100.353 72.3567 100.489C72.111 100.539 71.8575 100.575 71.6039 100.612C71.7803 100.473 71.9329 100.294 72.048 100.081Z" fill="#6FABF6"/>
<path d="M91.8352 77.0114C91.6662 77.0357 91.5051 77.0738 91.336 77.0981C91.318 77.0353 91.2863 76.9803 91.2329 76.9196C87.1433 71.517 83.4988 65.8391 80.2918 59.872C79.8277 59.0047 78.5203 59.5947 78.7251 60.5202C80.4487 68.1677 80.5051 75.9721 78.8694 83.6366C78.6921 84.4714 79.6723 85.0591 80.3108 84.4524C83.7093 81.3 87.7152 79.39 92.2752 78.6616C93.3524 78.4975 92.9182 76.8256 91.8352 77.0114ZM83.1676 72.2743C83.1539 72.2822 83.1401 72.2902 83.1343 72.3118C83.1322 72.2764 83.1301 72.241 83.1279 72.2056C83.1359 72.2193 83.1517 72.2468 83.1676 72.2743ZM83.0346 77.7527C83.0562 77.7585 83.07 77.7506 83.1054 77.7485C83.0996 77.7701 83.0938 77.7918 83.0959 77.8272C83.0253 78.3075 83.3022 78.6603 83.6451 78.8102C83.4644 78.8779 83.2759 78.9318 83.0815 79.0074C83.056 78.5827 83.0521 78.1637 83.0346 77.7527ZM84.6958 78.4417C84.7211 78.3904 84.7385 78.3254 84.7422 78.2683C85.2308 78.0046 85.7252 77.7191 86.2138 77.4554C86.3966 77.4231 86.575 77.32 86.7161 77.1836C86.7573 77.1599 86.8122 77.1281 86.8534 77.1043C87.6973 77.551 88.5834 76.4535 87.88 75.7426C87.4334 75.2863 87.0064 74.8004 86.6148 74.3124C86.6268 73.9209 86.5385 73.5141 86.391 73.0683C87.2858 74.3644 88.2001 75.631 89.1361 76.9034C87.6396 77.4195 86.1648 77.9414 84.6958 78.4417ZM81.7783 65.9352C81.633 66.0008 81.5035 66.0938 81.4116 66.2201C81.3745 65.8387 81.3238 65.4652 81.265 65.078C81.4394 65.3801 81.6197 65.6606 81.7783 65.9352ZM81.9062 80.9677C81.5925 81.1855 81.2866 81.417 80.9808 81.6485C81.1321 80.7371 81.256 79.8417 81.3719 78.9324C81.3895 79.3434 81.3933 79.7624 81.4109 80.1734C81.4163 80.4999 81.6203 80.8215 81.9062 80.9677Z" fill="#6FABF6"/>
<path d="M118.6 62.8582C116.933 59.9388 115.266 57.0195 113.607 54.1139C113.409 53.7706 113.103 53.5261 112.754 53.3978C112.211 52.521 111.662 51.6659 111.043 50.815C110.238 49.7053 108.259 49.6394 107.914 51.2302C106.643 56.9262 105.386 62.6141 104.115 68.3101C103.824 69.6134 104.91 70.6708 106.209 70.4152C111.004 69.4595 115.58 67.9345 120.042 65.9261C121.944 65.066 120.467 62.3483 118.6 62.8582ZM112.352 62.9136C112.524 62.3562 112.667 61.7792 112.81 61.2023C113.105 61.9661 113.386 62.7378 113.639 63.5254C113.186 63.4389 112.762 63.2442 112.352 62.9136ZM108.933 62.4154L108.927 62.4371C108.919 62.4233 108.919 62.4233 108.933 62.4154ZM108.09 66.473C108.062 66.4888 108.04 66.483 108.013 66.4989C108.025 66.4556 108.036 66.4123 108.048 66.3689C108.064 66.3964 108.074 66.4455 108.09 66.473Z" fill="#6FABF6"/>
<path d="M112.988 94.938C110.72 90.8825 108.105 87.0822 105.174 83.4644C104.353 82.455 102.586 83.0727 102.308 84.2403C101.568 87.432 100.837 90.6373 100.098 93.829C99.6407 95.796 98.002 99.269 99.008 101.233C99.8294 102.847 101.492 102.619 102.956 102.14C106.377 101.025 109.738 99.616 113.108 98.348C114.916 97.7066 114.503 95.0886 112.988 94.938ZM107.267 95.4945C107.519 95.8986 107.803 96.2651 108.108 96.6021C107.733 96.7454 107.372 96.8807 106.997 97.024C107.114 96.4983 107.204 95.9885 107.267 95.4945Z" fill="#6FABF6"/>
<path d="M87.8465 50.5662C91.4885 50.4045 95.0543 49.9205 98.591 49.0688C100.574 48.6017 99.9825 45.7385 98.2042 45.7031C98.182 45.5695 98.1381 45.4301 98.0588 45.2927C96.5015 42.31 95.7113 39.3238 95.1381 36.0475C94.6681 33.4257 94.015 31.1844 92.2847 29.1072C91.4956 28.1528 89.6373 28.6764 89.4184 29.8831C88.3464 36.0502 87.2823 42.231 86.1965 48.406C86.0241 49.4394 86.6489 50.6168 87.8465 50.5662ZM94.25 45.9902C94.351 46.1334 94.4441 46.2627 94.5588 46.3979C94.3131 46.4482 94.0595 46.4848 93.806 46.5213C93.9744 46.3691 94.1349 46.2032 94.25 45.9902Z" fill="#6FABF6"/>
<path d="M34.467 78.565C34.298 78.5893 34.1369 78.6274 33.9679 78.6518C33.9499 78.5889 33.9182 78.534 33.8648 78.4733C29.7751 73.0707 26.1307 67.3927 22.9236 61.4256C22.4595 60.5583 21.1522 61.1483 21.3569 62.0738C23.0805 69.7214 23.137 77.5258 21.5012 85.1902C21.324 86.025 22.3041 86.6127 22.9426 86.006C26.3412 82.8537 30.3471 80.9437 34.9071 80.2153C35.9842 80.0512 35.5363 78.3871 34.467 78.565ZM25.7857 73.8359C25.772 73.8438 25.7582 73.8517 25.7524 73.8734C25.7502 73.838 25.7482 73.8026 25.746 73.7672C25.7677 73.773 25.7698 73.8084 25.7857 73.8359ZM25.6665 79.3064C25.6882 79.3122 25.7018 79.3042 25.7372 79.3021C25.7314 79.3238 25.7256 79.3455 25.7277 79.3809C25.6571 79.8611 25.9341 80.2139 26.277 80.3638C26.0963 80.4315 25.9078 80.4854 25.7134 80.561C25.6879 80.1363 25.6703 79.7253 25.6665 79.3064ZM27.3139 80.0032C27.3393 79.9519 27.3566 79.887 27.3603 79.8299C27.8489 79.5662 28.3433 79.2807 28.8318 79.0169C29.0284 78.9767 29.1932 78.8815 29.3342 78.7452C29.3754 78.7214 29.4303 78.6897 29.4715 78.6659C30.3154 79.1126 31.2015 78.015 30.4981 77.3042C30.0515 76.8479 29.6245 76.362 29.2329 75.874C29.2449 75.4825 29.1566 75.0757 29.0091 74.6299C29.9039 75.926 30.8182 77.1926 31.7542 78.465C30.2657 78.9948 28.7967 79.495 27.3139 80.0032ZM24.3963 67.4968C24.2511 67.5624 24.1217 67.6554 24.0298 67.7817C23.9927 67.4002 23.9418 67.0268 23.8831 66.6395C24.0575 66.9417 24.2378 67.2221 24.3963 67.4968ZM24.5243 82.5293C24.2105 82.7471 23.9047 82.9786 23.5989 83.2101C23.7502 82.2987 23.8741 81.4032 23.99 80.494C24.0076 80.905 24.0114 81.3239 24.029 81.7349C24.0344 82.0614 24.2384 82.3831 24.5243 82.5293Z" fill="#6FABF6"/>
<path d="M61.2186 64.42C59.5514 61.5006 57.8921 58.595 56.225 55.6757C56.0268 55.3324 55.7208 55.0879 55.3721 54.9596C54.8293 54.0828 54.2669 53.2356 53.6612 52.3768C52.8557 51.2671 50.8768 51.2011 50.5318 52.7919C49.2609 58.4879 48.0038 64.1759 46.733 69.8718C46.4418 71.1752 47.5283 72.2325 48.8273 71.9769C53.6223 71.0213 58.1984 69.4962 62.6602 67.4878C64.5623 66.6276 63.0849 63.9101 61.2186 64.42ZM54.97 64.4753C55.1426 63.9179 55.2855 63.341 55.4285 62.764C55.723 63.5278 56.0038 64.2996 56.2571 65.0872C55.8043 65.0007 55.3806 64.8059 54.97 64.4753ZM51.5512 63.9772L51.5454 63.9989C51.5375 63.9851 51.5512 63.9772 51.5512 63.9772ZM50.7078 68.0347C50.6803 68.0506 50.6587 68.0448 50.6312 68.0606C50.6428 68.0173 50.6544 67.974 50.6523 67.9386C50.6819 67.9581 50.7056 67.9993 50.7078 68.0347Z" fill="#6FABF6"/>
<path d="M55.6202 96.4916C53.352 92.4361 50.7367 88.6358 47.8057 85.018C46.9849 84.0087 45.2174 84.6263 44.9394 85.7939C44.2003 88.9855 43.4691 92.1909 42.73 95.3826C42.2726 97.3495 40.6338 100.823 41.6398 102.787C42.4613 104.4 44.1244 104.172 45.5876 103.694C49.009 102.579 52.37 101.17 55.7396 99.9017C57.5345 99.2682 57.1216 96.6501 55.6202 96.4916ZM49.8852 97.056C50.1368 97.4601 50.4217 97.8266 50.7261 98.1636C50.351 98.3069 49.9897 98.4422 49.6147 98.5855C49.7323 98.0598 49.8225 97.55 49.8852 97.056Z" fill="#6FABF6"/>
<path d="M69.9034 25.4767C67.6352 21.4212 65.0199 17.621 62.0889 14.0031C61.2681 12.9938 59.5006 13.6114 59.2226 14.779C58.4835 17.9707 57.7523 21.1761 57.0132 24.3677C56.5558 26.3347 54.917 29.8078 55.923 31.7722C56.7445 33.3853 58.4076 33.1575 59.8708 32.679C63.2922 31.5642 66.6532 30.1547 70.0228 28.8868C71.8177 28.2534 71.4048 25.6353 69.9034 25.4767ZM64.1684 26.0412C64.42 26.4453 64.7049 26.8118 65.0093 27.1488C64.6342 27.2921 64.2729 27.4274 63.8979 27.5707C64.0155 27.045 64.1057 26.5352 64.1684 26.0412Z" fill="#6FABF6"/>
<path d="M30.464 52.1279C34.106 51.9661 37.6717 51.4821 41.2084 50.6304C43.1909 50.1633 42.5999 47.3001 40.8217 47.2648C40.7995 47.1311 40.7556 46.9917 40.6763 46.8544C39.119 43.8716 38.3288 40.8854 37.7556 37.6091C37.2856 34.9874 36.6325 32.746 34.9022 30.6688C34.1131 29.7144 32.2547 30.2381 32.0358 31.4447C30.9638 37.6119 29.8997 43.7927 28.8139 49.9677C28.6415 51.0011 29.288 52.1843 30.464 52.1279ZM36.8675 47.5519C36.9685 47.695 37.0615 47.8244 37.1762 47.9596C36.9305 48.0099 36.6769 48.0464 36.4234 48.083C36.5918 47.9308 36.7524 47.7648 36.8675 47.5519Z" fill="#6FABF6"/>
</svg>
