<svg width="198" height="145" viewBox="0 0 198 145" fill="none" xmlns="http://www.w3.org/2000/svg">
<path d="M2.75911 112.601C3.83772 117.444 5.29707 122.267 7.8773 126.623C9.90764 130.071 12.9108 133.285 17.2041 134.491C22.2377 135.908 27.6731 134.047 31.48 130.959C36.9366 126.539 40.257 120.152 42.9219 114.145C45.3752 108.646 47.5748 102.957 49.2667 97.2467C50.1761 94.1589 50.9799 91.0288 52.27 88.0467C52.7353 86.9469 53.2428 85.678 54.1522 84.7897C54.7656 84.1975 56.3941 83.2246 57.5785 83.3304C60.0107 83.563 60.6452 87.6449 60.9413 89.2945C61.2585 91.0288 61.4911 92.763 61.5123 94.5184C61.6603 103.295 60.8144 112.072 61.1528 120.849C61.3431 125.524 61.7449 130.261 62.9716 134.808C63.8387 138.002 65.2346 141.682 68.3224 143.67C71.7486 145.89 75.8728 145.023 79.3836 143.31C86.4687 139.842 91.333 133.349 95.0553 127.131C99.3275 119.982 102.352 112.347 105.82 104.882C107.703 100.821 109.733 96.6122 110.621 92.2766C111.277 89.1042 111.51 85.8683 112.461 82.717C112.842 81.4269 113.35 80.0099 114.301 78.9524C114.682 78.5506 115.105 78.2333 115.613 77.9584C115.888 77.8103 115.824 77.8315 116.057 77.7469C116.141 77.7046 116.585 77.5777 116.607 77.5777C116.691 77.5566 116.797 77.5566 116.903 77.5566C116.966 77.5777 117.178 77.5989 117.241 77.62C117.114 77.5777 117.22 77.5989 117.368 77.6835C117.431 77.7469 117.601 77.8738 117.643 77.9161C117.643 77.9161 117.643 77.9161 117.664 77.9372C117.727 78.0007 117.791 78.0641 117.833 78.1487C117.939 78.2756 118.024 78.4237 118.129 78.5506C118.129 78.5717 118.277 78.8255 118.299 78.889C118.404 79.1216 118.51 79.3754 118.595 79.6292C119.335 81.6596 119.483 83.9014 119.589 86.0586C119.716 88.6177 119.673 91.198 119.61 93.757C119.546 95.7239 119.441 97.6908 119.441 99.6577C119.462 102.217 119.8 104.797 120.223 107.314C121.238 113.574 123.142 120.363 128.218 124.952C132.913 129.182 140.315 129.944 146.66 128.675C152.709 127.469 157.911 124.085 162.014 119.982C171.066 110.973 176.058 98.7906 179.442 87.2642C182.297 77.4931 183.756 67.4048 184.285 57.38C184.602 51.3524 184.539 45.2825 183.65 39.2972C182.847 33.8829 181.43 28.3841 178.3 23.6678C176.756 21.3202 174.725 19.3321 172.293 17.8305C170.157 14.3409 166.667 11.8875 162.247 10.7666C156.727 9.37073 150.657 10.0052 145.095 11.0204C138.729 12.2047 132.532 14.0448 126.42 16.0751C121.408 17.7459 116.48 19.6282 111.425 21.1933C102.183 24.0485 92.3481 25.2328 82.704 25.973C71.8755 26.819 61.0258 27.0094 50.1973 27.6439C45.4175 27.9188 40.5954 28.1515 35.9214 29.1455C32.178 29.9492 28.5826 31.2393 25.2621 32.9947C11.8534 40.0586 5.297 53.8269 2.39953 66.8972C0.22114 76.6894 -0.0749105 86.6085 0.601879 96.5065C0.940273 101.963 1.59588 107.335 2.75911 112.601Z" fill="#71AEFB"/>
<path d="M12.5299 104.733C14.2853 112.537 17.2039 121.737 24.4159 126.179C31.7336 130.684 40.6375 127.554 46.2844 121.864C52.1217 115.964 55.4422 107.948 58.4877 100.355C60.2219 95.9986 61.6812 91.5783 62.9925 87.0735C63.6481 84.8317 64.3038 82.5898 65.2132 80.4537C65.8477 78.9521 66.461 77.5351 68.0684 76.9006C69.147 76.4776 69.5277 77.1121 69.9295 78.1696C70.4371 79.4597 70.6486 80.8979 70.8601 82.2514C71.6426 86.9043 71.2408 91.7898 71.0927 96.4639C70.7755 105.939 70.2467 115.668 72.2771 125.016C73.0808 128.632 74.2651 132.46 76.8876 135.21C79.8274 138.276 84.0362 138.974 88.0335 137.896C95.6684 135.823 101.527 129.415 105.799 123.091C110.727 115.773 114.09 107.588 117.727 99.594C119.631 95.3641 121.788 91.1976 123.099 86.7351C124.368 82.3783 124.22 77.5774 126.018 73.3898C126.314 72.713 126.716 71.9728 127.308 71.5075C127.393 71.4441 128.281 70.9788 127.921 71.1057C127.964 71.0845 128.302 71.0211 128.302 70.9788C128.323 70.9788 128.365 70.9576 128.387 70.9576C127.964 70.9153 127.9 70.9153 128.175 70.9576C129.994 71.3383 131.199 68.885 129.486 67.8698C129.465 67.8698 129.465 67.8487 129.444 67.8487C128.873 68.8215 128.302 69.7944 127.731 70.7673C128.365 71.0845 128.704 72.8188 128.852 73.6013C129.211 75.2933 129.254 77.0275 129.317 78.7406C129.444 82.4206 129.211 86.0795 129.148 89.7595C129.063 93.376 129.529 96.9714 130.163 100.525C130.671 103.422 131.39 106.298 132.511 109.048C134.837 114.758 138.834 119.517 144.82 121.484C150.572 123.387 157.298 122.901 162.881 120.722C174.937 115.985 182.846 104.183 187.774 92.7204C193.294 79.7981 196.234 65.9029 197.207 51.902C197.736 44.4151 197.736 36.907 196.509 29.4836C195.43 22.8849 193.21 15.9056 188.345 11.0835C187.203 9.94147 185.913 8.94743 184.538 8.10146C184.75 8.31296 184.94 8.5033 185.152 8.7148C181.07 2.20076 173.583 -0.0622232 166.244 0.00122344C157.89 0.0646702 149.515 2.3488 141.584 4.82329C133.505 7.36123 125.637 10.6606 117.389 12.6698C109.141 14.679 100.681 15.5672 92.221 16.1594C83.4017 16.7939 74.5824 17.0265 65.7419 17.4707C57.3244 17.8937 48.632 18.0417 40.6375 21.0872C33.9966 23.6252 28.1382 27.7493 23.6122 33.2482C19.467 38.3029 16.4637 44.1401 14.3276 50.2946C9.0614 65.5434 8.97677 82.5264 11.3244 98.3462C11.6839 100.482 12.0646 102.618 12.5299 104.733C12.9952 106.869 16.2522 105.96 15.7869 103.824C14.1373 96.3158 13.4605 88.5963 13.3548 80.919C13.249 73.3052 13.8412 65.6491 15.5966 58.2257C18.198 47.1434 23.4219 36.0187 32.8122 29.124C38.5437 24.9153 45.3327 22.5888 52.3754 21.764C60.1796 20.8546 68.1318 20.7277 75.9782 20.4104C91.3116 19.7548 107.11 19.2895 121.957 14.9539C129.338 12.7966 136.487 9.89918 143.847 7.65732C150.953 5.50008 158.398 3.51203 165.885 3.38513C169.268 3.32169 172.822 3.66008 175.952 5.03481C177.305 5.62699 178.595 6.40952 179.695 7.38239C180.795 8.35526 181.472 9.49732 182.402 10.5759C182.931 11.2104 183.798 11.5911 184.454 12.0987C185.131 12.6274 185.765 13.2196 186.357 13.8541C187.499 15.0596 188.43 16.4132 189.255 17.8514C190.989 20.8969 192.046 24.2596 192.765 27.6859C194.373 35.2362 194.415 43.0404 193.929 50.7176C193.463 58.3737 192.406 65.9875 190.608 73.4533C187.52 86.2275 182.593 99.5094 173.477 109.259C169.036 114.018 163.516 117.74 157.002 118.903C151.334 119.919 144.65 119.221 140.336 115.033C135.895 110.74 134.224 104.501 133.272 98.6C132.659 94.7931 132.511 91.0919 132.659 87.2427C132.807 83.4569 132.913 79.65 132.595 75.8643C132.447 74.0666 132.193 72.2266 131.517 70.5346C131.094 69.4983 130.523 68.3985 129.486 67.891C127.562 66.9181 125.891 69.6887 127.773 70.8096C127.794 70.8096 127.794 70.8307 127.816 70.8307C128.26 69.7944 128.683 68.7792 129.127 67.7429C125.341 66.9815 123.078 71.2326 122.232 74.2358C120.942 78.6983 120.815 83.3512 119.271 87.7503C117.77 92.0436 115.655 96.1043 113.793 100.228C111.953 104.353 110.135 108.477 108.104 112.495C104.615 119.348 100.364 126.517 94.0611 131.149C91.1424 133.285 87.3778 135.421 83.6343 135.04C79.912 134.66 77.776 131.339 76.6762 128.082C75.2803 124.022 74.7304 119.686 74.4766 115.435C74.1806 110.676 74.244 105.897 74.392 101.117C74.5401 96.3158 74.7727 91.5149 74.7093 86.6928C74.667 83.3512 74.3074 79.4597 72.8693 76.3507C72.2559 75.0183 71.1985 73.8339 69.718 73.4744C67.9838 73.0726 66.0592 73.982 64.7479 75.0606C63.3309 76.245 62.6541 78.0427 61.9562 79.7135C61.089 81.8284 60.4334 84.028 59.7778 86.2064C57.3456 94.6239 54.3212 103.02 50.1548 110.761C46.644 117.275 41.1239 124.508 33.066 124.973C24.4582 125.481 19.8476 117.254 17.5212 110.148C16.8444 108.075 16.3156 105.981 15.8292 103.866C15.3216 101.709 12.0646 102.597 12.5299 104.733Z" fill="#7D7D7D"/>
</svg>
