<svg width="202" height="227" viewBox="0 0 202 227" fill="none" xmlns="http://www.w3.org/2000/svg">
<path d="M1.07634 126.126C3.87533 165.149 16.1291 202.187 44.9001 209.298C44.9001 209.298 44.9001 209.298 44.9164 209.298C68.0407 214.994 93.4269 189.608 111.734 178.412C149 155.662 189.292 125.508 200.179 80.8376C201.465 75.5813 201.774 70.3739 200.309 65.1014C197.413 54.7353 189.39 46.4685 181.302 39.7965C145.322 10.1629 69.4727 -18.2501 27.0809 14.8659C19.937 20.4476 14.8272 28.1611 11.3122 36.4279C3.69633 54.3773 -1.42974 91.0409 1.07634 126.126Z" fill="#FFE179"/>
<path d="M65.3348 55.8109C80.1609 61.2194 95.6345 64.3706 111.13 67.0972C126.939 69.8908 142.859 72.2598 158.467 76.0145C169.564 78.6964 181.71 81.9593 190.396 89.8262C195.822 94.743 198.747 101.291 198.278 108.622C197.764 116.511 194.013 123.998 189.883 130.591C184.747 138.793 178.45 146.213 171.864 153.298C165.143 160.539 158.02 167.4 150.83 174.149C144.757 179.848 138.661 185.346 131.918 190.263C123.478 196.409 114.614 201.974 105.414 206.913C95.5452 212.21 85.2518 216.858 74.5118 220.144C64.8883 223.094 54.7066 225.06 44.6141 224.144C37.1564 223.451 28.7163 221.015 24.0944 214.847C19.0705 208.142 16.8823 199.359 15.2076 191.291C12.9748 180.519 11.9254 169.501 11.3002 158.527C10.675 147.42 10.5187 136.312 10.7196 125.182C10.8313 117.964 11.3002 110.767 11.1215 103.549C10.9652 97.2908 10.6973 91.0107 10.9429 84.753C11.2109 78.4952 11.903 72.2599 14.1582 66.3597C16.1901 61.0183 19.7626 56.3697 24.9428 53.6878C31.9539 50.0449 40.5503 50.2684 48.1866 51.4752C54.0144 52.3915 59.7081 53.956 65.3125 55.8109C66.9648 56.3473 67.657 53.7548 66.027 53.2184C55.9346 49.8884 44.8821 47.0501 34.1644 48.3016C27.4213 49.0839 20.9684 51.7434 16.525 57.0401C12.4836 61.8675 10.407 67.9688 9.3576 74.0925C8.21885 80.6631 8.10722 87.3678 8.21886 94.0278C8.30818 99.7939 8.71008 105.582 8.48679 111.348C8.10721 121.517 7.88394 131.664 8.06257 141.833C8.26353 153.454 8.84405 165.098 10.2284 176.652C11.4341 186.709 13.0865 196.945 16.726 206.444C18.155 210.131 19.8743 213.729 22.3304 216.858C24.6079 219.764 27.4659 221.73 30.7929 223.25C39.6349 227.295 49.5933 227.608 59.1052 226.334C70.1355 224.837 80.8084 221.239 91.0125 216.858C101.395 212.389 111.376 206.98 120.933 200.946C128.859 195.94 136.607 190.486 143.73 184.34C150.652 178.373 157.216 171.914 163.691 165.523C170.97 158.348 178.049 150.906 184.39 142.861C190.061 135.686 195.331 127.976 198.546 119.372C201.136 112.421 202.141 104.599 199.238 97.559C195.777 89.1334 187.895 83.6579 179.857 80.0373C173.605 77.2213 167.041 75.3217 160.387 73.6902C152.438 71.7458 144.4 70.159 136.339 68.7063C120.33 65.8233 104.186 63.499 88.3554 59.7444C80.8084 57.9565 73.3284 55.8333 66.0493 53.1737C64.4194 52.6374 63.7272 55.2299 65.3348 55.8109Z" fill="#165368"/>
</svg>
