<svg width="207" height="207" viewBox="0 0 207 207" fill="none" xmlns="http://www.w3.org/2000/svg">
<path d="M78.2117 111.852C76.8111 111.602 75.0413 112.525 75.1933 114.176C75.7362 120.451 79.1237 126.575 83.8793 131.352C84.6393 132.177 85.4862 132.937 86.3765 133.632C90.2526 136.835 94.7692 139.202 99.3185 140.19C100.393 140.418 101.229 139.973 101.74 139.289C103.184 139.148 104.422 137.997 103.976 136.336C102.294 130.049 101.012 123.491 95.9853 118.942C91.1212 114.534 84.4873 113.003 78.2117 111.852Z" fill="#73B1FF"/>
<path d="M131.239 93.1773C129.556 86.8909 128.275 80.333 123.248 75.7838C118.373 71.3648 111.75 69.823 105.474 68.6721C104.074 68.4224 102.304 69.3453 102.456 70.9956C102.999 77.2712 106.386 83.3948 111.142 88.1721C111.902 88.9972 112.749 89.7573 113.639 90.4521C117.515 93.6551 122.032 96.022 126.581 97.01C127.656 97.2381 128.492 96.7929 129.002 96.1089C130.457 95.9786 131.684 94.8385 131.239 93.1773Z" fill="#73B1FF"/>
<path d="M38.4509 28.9231C37.0612 28.6625 35.2805 29.5963 35.4325 31.2466C35.9754 37.5222 39.363 43.6458 44.1185 48.4231C44.8785 49.2482 45.7254 50.0083 46.6157 50.7032C50.4918 53.9061 55.0085 56.273 59.5578 57.261C60.6326 57.489 61.4687 57.0439 61.979 56.3598C63.4231 56.2187 64.6608 55.0679 64.2156 53.4067C62.5327 47.1202 61.2515 40.5623 56.2246 36.0131C51.3604 31.6049 44.7265 30.074 38.4509 28.9231Z" fill="#73B1FF"/>
<path d="M92.0547 50.7141C95.9308 53.917 100.448 56.2839 104.997 57.272C106.072 57.5 106.908 57.0548 107.418 56.3707C108.862 56.2296 110.1 55.0787 109.655 53.4175C107.972 47.1311 106.691 40.5732 101.664 36.024C96.7886 31.605 90.1656 30.0632 83.89 28.9123C82.4894 28.6626 80.7196 29.5855 80.8716 31.2358C81.4144 37.5114 84.802 43.635 89.5575 48.4123C90.3393 49.2591 91.1644 50.0192 92.0547 50.7141Z" fill="#73B1FF"/>
<path d="M49.342 94.7519C50.4169 94.9799 51.2529 94.5348 51.7632 93.8508C53.2072 93.7097 54.445 92.5588 53.9998 90.8976C52.3169 84.6111 51.0358 78.0532 46.0088 73.5039C41.1338 69.085 34.5107 67.5432 28.2351 66.3923C26.8345 66.1426 25.0648 67.0655 25.2168 68.7158C25.7597 74.9914 29.1472 81.115 33.9027 85.8923C34.6627 86.7175 35.5096 87.4774 36.3999 88.1723C40.276 91.4187 44.7819 93.7748 49.342 94.7519Z" fill="#73B1FF"/>
<path d="M104.335 156.151C102.934 155.901 101.164 156.824 101.316 158.474C101.859 164.75 105.247 170.873 110.002 175.651C110.762 176.476 111.609 177.236 112.499 177.931C116.376 181.134 120.892 183.501 125.442 184.489C126.516 184.717 127.352 184.271 127.863 183.587C129.307 183.446 130.545 182.295 130.099 180.634C128.416 174.348 127.135 167.79 122.108 163.241C117.244 158.832 110.61 157.302 104.335 156.151Z" fill="#73B1FF"/>
<path d="M155.452 105.034C154.051 104.784 152.282 105.707 152.434 107.357C152.976 113.633 156.364 119.756 161.119 124.534C161.88 125.359 162.726 126.119 163.617 126.814C167.493 130.017 172.009 132.384 176.559 133.372C177.634 133.6 178.47 133.154 178.98 132.47C180.424 132.329 181.662 131.178 181.217 129.517C179.534 123.231 178.253 116.673 173.226 112.124C168.361 107.716 161.727 106.185 155.452 105.034Z" fill="#73B1FF"/>
<path d="M145.234 149.343C143.834 149.093 142.064 150.016 142.216 151.666C142.759 157.942 146.146 164.066 150.902 168.843C151.662 169.668 152.509 170.428 153.399 171.123C157.275 174.326 161.792 176.693 166.341 177.681C167.416 177.909 168.252 177.464 168.762 176.78C170.206 176.639 171.444 175.488 170.999 173.827C169.316 167.54 168.035 160.982 163.008 156.433C158.133 152.014 151.51 150.494 145.234 149.343Z" fill="#73B1FF"/>
<path d="M109.361 104.437C106.343 117.336 121.261 127.151 131.652 130.658C132.835 131.059 133.725 130.538 134.203 129.713C135.256 129.507 136.179 128.606 136.212 127.379C136.375 121.592 134.713 116.174 130.696 111.874C125.691 106.522 118.894 106.435 112.89 102.949C111.554 102.179 109.709 102.917 109.361 104.437ZM114.801 109.03C114.453 109.312 114.171 109.681 114.008 110.105C113.9 109.627 113.834 109.149 113.791 108.671C114.128 108.791 114.475 108.921 114.801 109.03ZM127.157 115.262C126.125 114.317 125.029 113.525 123.867 112.819C123.693 112.623 123.487 112.461 123.302 112.276C124.801 113.123 126.082 114.122 127.157 115.262Z" fill="#73B1FF"/>
<path d="M95.3445 97.7812C98.0263 97.792 98.3846 94.1982 96.4302 93.2211C97.1902 85.7294 94.7148 81.8859 89.9701 76.1641C84.6282 69.7364 77.2886 69.693 69.7752 67.2175C68.1683 66.6963 66.9089 68.1078 66.7569 69.5409C65.9643 77.2171 69.0369 82.7002 74.8239 87.4883C81.7727 93.2428 86.1374 97.7377 95.3445 97.7812Z" fill="#73B1FF"/>
</svg>
