<svg width="128" height="242" viewBox="0 0 128 242" fill="none" xmlns="http://www.w3.org/2000/svg">
<path d="M-5.26076 119.875C-0.979365 117.405 3.58011 115.176 5.92956 110.593C8.21331 106.148 8.04247 100.985 7.65314 96.155C7.56101 95.0783 6.53598 93.9612 5.35505 94.3972C0.857497 96.0292 -2.96928 99.7184 -5.53938 104.147C-5.99537 104.866 -6.38651 105.637 -6.7213 106.427C-8.30923 109.9 -9.15787 113.68 -8.98843 117.212C-8.9444 118.045 -8.45342 118.571 -7.85125 118.811C-7.46965 119.853 -6.39203 120.529 -5.26076 119.875Z" fill="#72CAA4"/>
<path d="M23.6404 39.1674C23.5584 38.0966 22.5233 36.9737 21.3424 37.4097C16.8448 39.0417 13.018 42.7309 10.4479 47.1591C9.99194 47.8789 9.60078 48.6496 9.26599 49.4395C7.67806 52.9129 6.82944 56.692 6.99888 60.224C7.04291 61.0574 7.53388 61.5833 8.13605 61.8232C8.52349 62.8549 9.61114 63.5368 10.7424 62.8836C15.0238 60.413 19.5833 58.1839 21.9328 53.6013C24.2107 49.166 24.0298 43.9979 23.6404 39.1674Z" fill="#72CAA4"/>
<path d="M18.1909 82.7787C16.603 86.2522 15.7544 90.0313 15.9238 93.5633C15.9678 94.3967 16.4588 94.9226 17.061 95.1625C17.4484 96.1942 18.5361 96.8761 19.6674 96.2229C23.9488 93.7524 28.5083 91.5232 30.8577 86.9406C33.1415 82.4952 32.9706 77.333 32.5813 72.5025C32.4892 71.4258 31.4642 70.3087 30.2832 70.7447C25.7857 72.3767 21.9589 76.0659 19.3888 80.4941C18.9211 81.2341 18.5257 81.9889 18.1909 82.7787Z" fill="#72CAA4"/>
<path d="M-15.6944 94.4454C-15.1751 96.4151 -12.468 95.9714 -12.1353 94.3455C-6.48942 93.4303 -4.15616 90.8585 -0.890904 86.2526C2.77474 81.0698 1.36373 75.6763 1.70292 69.6772C1.76938 68.3958 0.486263 67.7493 -0.595114 67.9195C-6.3828 68.8471 -9.80157 72.1793 -12.1769 77.3664C-15.0327 83.5958 -17.4725 87.6818 -15.6944 94.4454Z" fill="#72CAA4"/>
<path d="M29.6961 116.733C29.604 115.656 28.5789 114.539 27.398 114.975C22.9005 116.607 19.0737 120.296 16.5036 124.725C16.0476 125.444 15.6564 126.215 15.3217 127.005C13.7337 130.478 12.8851 134.257 13.0545 137.789C13.0986 138.623 13.5895 139.149 14.1917 139.389C14.5792 140.42 15.6669 141.102 16.7981 140.449C21.0795 137.979 25.639 135.749 27.9885 131.167C30.2664 126.731 30.0854 121.563 29.6961 116.733Z" fill="#72CAA4"/>
<path d="M61.4013 158.363C65.6827 155.892 70.2422 153.663 72.5917 149.08C74.8754 144.635 74.7046 139.473 74.3152 134.642C74.2231 133.566 73.1981 132.449 72.0172 132.885C67.5196 134.517 63.6928 138.206 61.1227 142.634C60.6667 143.354 60.2756 144.124 59.9408 144.914C58.3529 148.388 57.5042 152.167 57.6737 155.699C57.7177 156.532 58.2087 157.058 58.8109 157.298C59.1925 158.34 60.2701 159.016 61.4013 158.363Z" fill="#72CAA4"/>
<path d="M90.3026 77.655C90.2205 76.5841 89.1854 75.4612 88.0045 75.8972C83.5069 77.5292 79.6801 81.2184 77.11 85.6466C76.654 86.3664 76.2629 87.1372 75.9281 87.927C74.3402 91.4005 73.4916 95.1796 73.661 98.7115C73.705 99.545 74.196 100.071 74.7982 100.311C75.1856 101.342 76.2733 102.024 77.4045 101.371C81.6859 98.9006 86.2455 96.6714 88.5949 92.0889C90.8728 87.6536 90.6919 82.4855 90.3026 77.655Z" fill="#72CAA4"/>
<path d="M84.853 121.266C83.2651 124.74 82.4165 128.519 82.5859 132.051C82.6299 132.884 83.1209 133.41 83.7231 133.65C84.1105 134.682 85.1983 135.363 86.3295 134.71C90.6109 132.24 95.1704 130.01 97.5198 125.428C99.8036 120.983 99.6328 115.82 99.2434 110.99C99.1513 109.913 98.1263 108.796 96.9453 109.232C92.4478 110.864 88.621 114.553 86.0509 118.981C85.5833 119.721 85.1878 120.476 84.853 121.266Z" fill="#72CAA4"/>
<path d="M39.5084 105.941C39.5524 106.775 40.0433 107.301 40.6455 107.541C41.0329 108.572 42.1207 109.254 43.2519 108.601C47.5333 106.13 52.0929 103.901 54.4423 99.3188C56.726 94.8734 56.5552 89.7111 56.1658 84.8805C56.0737 83.8038 55.0487 82.6869 53.8678 83.1228C49.3702 84.7548 45.5434 88.444 42.9733 92.8722C42.5173 93.592 42.1262 94.3628 41.7914 95.1526C40.1716 98.6346 39.3288 102.404 39.5084 105.941Z" fill="#72CAA4"/>
<path d="M9.90999 151.003C9.81786 149.926 8.79281 148.809 7.61188 149.245C3.11433 150.877 -0.712433 154.567 -3.28253 158.995C-3.73852 159.715 -4.12968 160.485 -4.46447 161.275C-6.0524 164.749 -6.90104 168.528 -6.7316 172.06C-6.68757 172.893 -6.19658 173.419 -5.59441 173.659C-5.20697 174.691 -4.11932 175.372 -2.98805 174.719C1.29335 172.249 5.85289 170.02 8.20234 165.437C10.4803 161.002 10.2993 155.834 9.90999 151.003Z" fill="#72CAA4"/>
<path d="M57.4627 178.457C57.3706 177.381 56.3455 176.264 55.1646 176.7C50.6671 178.332 46.8403 182.021 44.2702 186.449C43.8142 187.169 43.4231 187.94 43.0883 188.729C41.5003 192.203 40.6517 195.982 40.8211 199.514C40.8652 200.347 41.3561 200.873 41.9583 201.113C42.3457 202.145 43.4334 202.827 44.5647 202.174C48.8461 199.703 53.4056 197.474 55.7551 192.891C58.033 188.456 57.852 183.288 57.4627 178.457Z" fill="#72CAA4"/>
<path d="M22.9451 179.672C22.853 178.595 21.828 177.478 20.6471 177.914C16.1495 179.546 12.3227 183.235 9.75261 187.664C9.29662 188.384 8.90552 189.154 8.57073 189.944C6.9828 193.418 6.13418 197.197 6.30362 200.729C6.34765 201.562 6.83856 202.088 7.44073 202.328C7.82817 203.36 8.9159 204.041 10.0472 203.388C14.3286 200.918 18.8881 198.689 21.2376 194.106C23.5213 189.661 23.3345 184.503 22.9451 179.672Z" fill="#72CAA4"/>
<path d="M58.2391 41.6362C58.1469 40.5595 57.122 39.4425 55.941 39.8784C51.4435 41.5104 47.6166 45.1996 45.0466 49.6278C44.5906 50.3476 44.1995 51.1184 43.8647 51.9082C42.2767 55.3817 41.4281 59.1608 41.5976 62.6927C41.6416 63.5262 42.1325 64.052 42.7347 64.292C43.1221 65.3237 44.2098 66.0055 45.3411 65.3524C49.6225 62.8818 54.1821 60.6526 56.5315 56.0701C58.8152 51.6247 58.6284 46.4667 58.2391 41.6362Z" fill="#72CAA4"/>
<path d="M85.3963 50.5812C85.3042 49.5045 84.2792 48.3876 83.0983 48.8235C78.6007 50.4555 74.7739 54.1447 72.2038 58.5729C71.7478 59.2927 71.3567 60.0635 71.0219 60.8533C69.434 64.3268 68.5854 68.1059 68.7548 71.6378C68.7988 72.4713 69.2897 72.9971 69.8919 73.237C70.2793 74.2687 71.3671 74.9506 72.4983 74.2974C76.7797 71.8269 81.3393 69.5977 83.6887 65.0152C85.9725 60.5698 85.7856 55.4118 85.3963 50.5812Z" fill="#72CAA4"/>
<path d="M44.125 141.81C34.0682 142.131 29.7998 155.005 29.2695 163.318C29.2074 164.265 29.7647 164.816 30.4641 165.005C30.8225 165.737 31.665 166.237 32.5716 166.019C36.8494 165.001 40.4978 162.717 42.8625 158.925C45.8057 154.2 44.5333 149.196 45.91 144.106C46.2131 142.975 45.3085 141.766 44.125 141.81ZM41.8248 146.703C41.5494 146.504 41.223 146.369 40.8803 146.333C41.2095 146.16 41.5472 146.018 41.8891 145.892C41.8677 146.163 41.8404 146.443 41.8248 146.703ZM39.6813 156.994C40.1716 156.051 40.5376 155.091 40.827 154.1C40.9362 153.934 41.0151 153.751 41.1143 153.579C40.7875 154.845 40.3065 155.981 39.6813 156.994Z" fill="#72CAA4"/>
<path d="M50.9677 132.933C51.487 134.902 54.1941 134.459 54.5268 132.833C60.1727 131.918 62.5059 129.346 65.7712 124.74C69.4369 119.557 68.0258 114.164 68.365 108.165C68.4315 106.883 67.1484 106.237 66.067 106.407C60.2793 107.334 56.8605 110.667 54.4853 115.854C51.6294 122.083 49.1896 126.169 50.9677 132.933Z" fill="#72CAA4"/>
</svg>
