<svg width="94" height="193" viewBox="0 0 94 193" fill="none" xmlns="http://www.w3.org/2000/svg">
<path d="M158.763 133.831C156.565 118.874 142.396 103.973 149.957 90.8682C154.782 82.5051 167.181 79.1322 168.826 69.6079C169.379 66.4424 168.522 63.2077 167.527 60.1527C163.974 49.2876 158.03 38.6989 148.451 32.4646C141.235 27.7647 131.655 26.2026 123.693 28.9258C111.515 22.4012 101.548 11.8816 89.0519 5.79937C73.708 -1.67905 54.3829 -1.49935 40.2001 7.98346C26.0174 17.4801 18.4422 36.6392 24.1098 52.7434C29.7221 68.6817 46.4897 79.9754 48.1347 96.7846C49.1162 106.751 44.4301 116.303 42.6883 126.173C38.1819 151.746 56.1108 178.674 80.9237 186.374C105.723 194.073 134.489 183.263 149.902 162.362C155.957 154.138 160.242 143.936 158.763 133.831Z" fill="#6FABF6"/>
<path d="M138.373 136.043C136.811 126.518 131.393 118.335 128.656 109.184C127.301 104.664 126.762 99.8533 128.683 95.416C130.48 91.2828 134.005 88.4214 137.489 85.7258C143.253 81.2471 149.349 76.478 148.547 68.3775C147.677 59.5583 142.534 49.7575 137.129 42.9011C131.365 35.6024 123.361 30.3219 113.989 29.2851C111.805 29.0501 109.607 29.0363 107.423 29.299C104.714 29.6169 102.848 30.626 100.359 29.1469C95.7008 26.3961 91.3741 23.1338 87.0613 19.8853C78.8502 13.6924 70.5147 7.47192 60.5481 4.40314C51.7288 1.67994 42.1769 1.22376 33.164 3.31108C15.9816 7.27838 2.55917 21.4197 0.292143 39.0444C-0.799901 47.5872 1.21832 55.7568 5.5312 63.1523C10.0929 70.9902 16.3825 77.653 20.9719 85.4632C23.4601 89.6931 25.4092 94.3239 25.893 99.2312C26.4736 105.148 24.9945 110.981 23.4324 116.635C20.9304 125.634 18.9398 134.177 20.253 143.549C22.6168 160.4 33.2884 175.785 47.8029 184.521C78.7811 203.155 125.158 185.765 136.784 151.511C138.456 146.59 139.065 141.462 138.415 136.292C138.263 135.103 136.383 135.089 136.535 136.292C139.023 156.087 122.615 173.988 106.289 182.683C90.8765 190.894 71.8279 193.133 55.4749 186.304C39.6748 179.711 27.3721 165.196 23.1698 148.636C20.8751 139.595 21.5248 130.748 23.9439 121.819C26.3492 112.944 29.3488 103.986 26.9988 94.7525C22.8657 78.5377 7.03794 68.4052 2.89094 52.1904C-1.60165 34.5933 8.8488 15.6415 24.9253 8.13543C33.869 3.96079 44.1674 2.97933 53.8299 4.72107C63.6306 6.49045 72.0906 11.2319 80.0667 17.01C83.9925 19.8576 87.7939 22.8573 91.7336 25.6911C93.6135 27.0458 95.5211 28.359 97.4702 29.5893C98.7972 30.4325 100.815 32.188 102.419 32.3401C103.193 32.4092 104.41 31.7733 105.211 31.5936C106.511 31.3033 107.838 31.1375 109.165 31.0407C111.777 30.8748 114.418 31.1098 116.961 31.6766C121.951 32.7686 126.458 35.1739 130.328 38.4777C137.696 44.7534 142.382 53.7939 145.34 62.8759C147.055 68.1426 147.497 73.2434 143.792 77.7359C141.58 80.4177 138.65 82.4635 135.927 84.5923C130.425 88.8914 125.739 93.8263 125.545 101.222C125.324 109.253 129.609 116.856 132.651 124.03C134.365 128.081 135.858 132.186 136.576 136.54C136.756 137.729 138.567 137.232 138.373 136.043Z" fill="#4C4C4C"/>
</svg>
