<svg width="151" height="158" viewBox="0 0 151 158" fill="none" xmlns="http://www.w3.org/2000/svg">
<path d="M133.771 75.3745C136.322 70.716 139.575 66.6074 142.798 62.4224C145.838 58.4664 148.908 54.1898 150.068 49.2564C150.588 47.0569 150.878 44.491 150.221 42.3068C149.916 41.2835 149.335 40.3518 148.419 39.7714C147.365 39.1146 146.082 38.9924 144.875 38.916C133.588 38.2745 123.538 44.5979 112.617 46.278C107.684 47.0417 102.323 46.9653 97.7557 44.6895C93.7845 42.7192 90.9894 39.2979 89.1566 35.3267C85.4756 27.369 85.1701 18.2811 81.3822 10.354C79.4577 6.33703 76.1433 2.33529 71.6528 1.23558C67.8038 0.288605 64.0312 1.72436 61.3277 4.50419C58.4868 7.42148 56.7303 11.3163 55.4473 15.1347C54.6989 17.38 54.1491 19.6863 53.5839 21.9774C52.8355 25.0474 52.0718 28.1175 51.3234 31.1722C50.575 34.1811 49.8419 37.2054 49.0934 40.2143C48.4519 42.8414 47.9174 45.5449 46.8482 48.0498C45.8859 50.3256 44.328 52.2653 42.0828 53.3498C39.9903 54.3578 37.6075 54.5716 35.3165 54.3731C25.6176 53.5483 16.9727 44.048 6.90724 47.9123C6.60176 48.0345 3.82193 49.2564 3.30263 50.0201C1.46977 51.578 0.339512 56.71 0.538071 56.8016C-0.653284 62.4376 0.263142 68.6235 2.01963 74.0457C5.28822 84.1875 11.917 93.0769 13.6735 103.738C15.598 115.438 9.87036 126.267 7.19744 137.34C5.44096 144.641 5.94499 155.791 15.1856 157.441C17.8585 157.914 20.5926 157.532 23.2502 157.089C25.9842 156.631 28.6877 155.974 31.3453 155.165C36.5995 153.53 41.6093 151.224 46.2678 148.307C54.5156 143.144 62.1372 135.981 71.8208 133.613C76.235 132.529 80.7865 132.728 85.1396 134.026C89.2329 135.248 93.0208 137.325 96.6102 139.616C104.125 144.397 111.013 150.292 119.231 153.882C123.477 155.745 128.563 157.334 133.206 156.081C137.91 154.813 140.599 150.43 141.485 145.878C143.287 136.531 138.98 127.657 135.008 119.485C132.885 115.102 130.717 110.688 129.327 105.999C127.86 101.05 127.494 95.933 128.273 90.8316C129.113 85.4247 131.129 80.1858 133.771 75.3745Z" fill="#FFDC79"/>
<path d="M87.5066 31.0806C87.3386 30.546 87.1706 30.0114 87.0178 29.4768C80.0835 30.0114 73.0576 29.5685 66.1844 28.4535C61.6633 27.7203 57.1576 26.7428 52.7129 25.6278C52.5907 26.1471 52.4532 26.6512 52.3311 27.1705C55.8135 28.0411 59.3112 28.8353 62.8394 29.4921C70.9498 31.0195 79.274 31.7373 87.5066 31.0806Z" fill="white"/>
<path d="M103.438 52.0362C116.924 51.5779 130.258 48.5385 142.874 43.8036C145.15 42.9483 147.426 42.0318 149.671 41.0696C149.351 40.5656 148.953 40.1073 148.419 39.7866C148.281 39.6949 148.144 39.6339 148.006 39.5575C147.579 39.7408 147.136 39.9393 146.708 40.1073C134.291 45.2851 121.109 48.7676 107.684 49.8062C101.055 50.3255 94.3955 50.2491 87.7972 49.5007C80.4047 48.6759 73.0886 47.2555 65.8488 45.5448C60.1669 44.2007 54.5462 42.6886 48.9102 41.1765C48.788 41.7111 48.6505 42.2609 48.5283 42.7955C52.5606 43.9105 56.5929 45.0408 60.6404 46.0794C74.6007 49.6687 88.9275 52.5402 103.438 52.0362Z" fill="white"/>
<path d="M51.7055 67.6918C68.583 68.8679 85.5828 68.0889 102.323 65.7826C117.49 63.6901 132.58 60.4368 147.258 56.0074C147.717 55.2131 148.159 54.4036 148.541 53.5789C136.017 57.4431 123.156 60.3757 110.265 62.5446C93.907 65.2938 77.3044 66.6074 60.717 66.1644C51.3389 65.9201 41.9608 65.0953 32.7049 63.6137C24.9458 62.3766 17.2173 60.6506 9.8095 58.0082C6.81584 56.9391 3.91382 55.6866 1.10345 54.312C0.920163 54.9076 0.767424 55.4728 0.675781 55.9157C2.08097 56.6183 3.5167 57.2904 4.96771 57.9166C19.6458 64.1789 35.8666 66.5768 51.7055 67.6918Z" fill="white"/>
<path d="M49.0328 88.2198C64.6579 88.5559 80.4204 87.7922 95.908 85.7149C108.203 84.0654 120.377 81.5299 132.321 78.185C132.657 77.4976 132.993 76.8256 133.344 76.1536C123.447 78.9945 113.397 81.2703 103.239 82.9351C88.317 85.3942 73.2265 86.4176 58.1207 86.6161C41.3959 86.8299 24.2587 85.9746 8.37398 80.3233C6.80078 79.7581 5.24285 79.1625 3.7002 78.5516C3.95985 79.1778 4.23478 79.804 4.50971 80.4302C11.3371 83.1184 18.3478 85.0887 25.6028 86.2648C33.3619 87.5325 41.1973 88.0518 49.0328 88.2198Z" fill="white"/>
<path d="M107.516 109.038C114.603 107.007 121.522 104.563 128.365 101.905C128.258 101.264 128.166 100.622 128.09 99.9807C123.019 101.951 117.887 103.769 112.694 105.418C95.7244 110.779 78.0985 114.048 60.2587 114.033C44.5267 114.033 28.6114 111.742 13.9639 105.922C14.025 106.564 14.0555 107.205 14.0708 107.847C26.7328 112.795 40.2348 115.209 53.8895 115.835C72.0348 116.66 90.1037 114.017 107.516 109.038Z" fill="white"/>
<path d="M138.324 126.633C138.033 125.961 137.743 125.274 137.438 124.617C128.93 127.947 120.178 130.727 111.411 133.048C105.164 134.698 98.8408 136.103 92.4717 137.188C93.4797 137.737 94.4726 138.318 95.4501 138.913C99.0547 138.257 102.659 137.493 106.218 136.638C117.062 134.056 127.876 130.742 138.324 126.633Z" fill="white"/>
<path d="M20.6994 133.659C16.8962 132.437 13.1694 131.017 9.53423 129.413C9.35094 129.994 9.16766 130.589 8.98438 131.17C11.0311 132.086 13.093 132.941 15.1703 133.736C28.153 138.669 41.8994 141.22 55.7527 141.846C56.7455 141.159 57.7383 140.471 58.7464 139.815C45.8553 139.509 32.9795 137.615 20.6994 133.659Z" fill="white"/>
</svg>
