<svg width="269" height="278" viewBox="0 0 269 278" fill="none" xmlns="http://www.w3.org/2000/svg">
<path d="M42.6324 253.446C50.8008 261.772 60.2258 269.222 71.0421 273.777C80.6241 277.794 91.2834 278.849 101.112 275.079C112.961 270.523 121.309 259.819 127.031 248.913C131.093 241.149 134.302 232.958 138.094 225.059C142.156 216.621 146.599 208.296 152.209 200.756C157.572 193.553 164.192 187.067 172.361 183.163C180.327 179.325 189.415 178.473 198.055 180.021C205.146 181.278 211.946 183.903 219.127 184.554C225.455 185.115 231.783 183.836 237.55 181.255C239.435 180.739 241.298 180.021 243.093 179.056C249.668 175.466 254.672 169.407 258.375 162.989C266.454 148.963 269.707 132.492 268.541 116.447C265.78 78.6126 242.846 44.9744 211.766 24.217C184.052 5.72602 149.606 -3.45213 116.417 1.19305C99.721 3.52685 83.4965 9.63066 69.561 19.1679C55.9172 28.5255 43.7769 40.3965 33.4768 53.3222C14.1331 77.5804 2.1723 107.292 0.287301 138.327C-1.4855 167.275 4.95492 197.143 19.3617 222.366C25.8021 233.609 33.5665 244.201 42.6324 253.446Z" fill="#73B1FF"/>
<path d="M105.376 222.209C99.384 222.501 93.3924 222.95 87.4233 223.556C81.3419 224.184 75.283 225.037 69.224 225.732C63.412 226.406 57.5999 226.989 51.743 227.281C46.0431 227.573 40.4105 227.415 34.7106 227.236C30.7835 227.124 26.677 227.258 22.6377 227.842C23.0865 228.56 23.5353 229.256 23.9841 229.951C26.8789 229.592 29.7737 229.458 32.5563 229.458C35.2268 229.458 37.8972 229.659 40.5901 229.704C43.4624 229.772 46.3572 229.727 49.2296 229.637C54.8846 229.435 60.4947 228.941 66.1272 228.336C72.1188 227.685 78.1105 226.854 84.1021 226.159C90.0488 225.463 96.0404 224.969 102.032 224.633C114.015 223.937 125.998 223.803 138.004 223.825C138.228 223.825 138.475 223.825 138.7 223.825C139.059 223.062 139.44 222.321 139.822 221.558C128.332 221.558 116.843 221.648 105.376 222.209Z" fill="white"/>
<path d="M134.077 189.334C129.364 189.222 124.854 188.369 120.299 187.224C116.012 186.125 111.726 184.823 107.328 184.217C103.334 183.656 99.3616 183.746 95.4345 184.689C91.9787 185.497 88.7024 186.91 85.4037 188.234C82.1049 189.558 78.7164 190.748 75.1484 191.062C70.9071 191.443 66.5761 191.353 62.3348 191.443C57.8916 191.533 53.4709 191.578 49.0277 191.6C46.9407 191.6 44.8313 191.69 42.7444 191.398C40.792 191.129 38.8622 190.613 36.9996 189.962C33.4316 188.728 30.043 187.022 26.5199 185.631C22.9743 184.24 19.3614 183.342 15.5465 183.185C12.2478 183.05 8.949 183.454 5.76245 184.285C5.31364 184.397 4.88731 184.532 4.46094 184.644C4.64046 185.384 4.81998 186.125 5.02195 186.865C6.14397 186.529 7.26599 186.215 8.38802 185.99C11.6643 185.339 15.0752 185.227 18.374 185.676C22.0767 186.192 25.555 187.583 28.9435 189.087C32.3544 190.568 35.7878 192.139 39.4231 193.036C43.3502 194.001 47.3446 193.867 51.339 193.844C55.7598 193.822 60.1581 193.755 64.5789 193.642C68.6406 193.553 72.837 193.71 76.8538 193.104C83.8103 192.027 89.8469 188.167 96.6912 186.708C105.129 184.891 113.275 187.853 121.376 189.827C125.729 190.882 130.083 191.555 134.548 191.623C139.463 191.712 144.377 191.353 149.292 191.062C153.286 190.837 157.213 190.725 161.163 190.815C162.015 190.052 162.891 189.311 163.788 188.593C163.205 188.548 162.621 188.526 162.038 188.504C152.703 188.055 143.412 189.536 134.077 189.334Z" fill="white"/>
<path d="M19.7655 119.656C24.119 118.13 28.0909 115.729 32.3097 113.912C37.1569 111.825 42.2284 110.815 47.5019 110.658C58.9241 110.321 70.1443 113.261 81.2299 115.527C86.638 116.649 92.0911 117.637 97.589 118.175C100.416 118.445 103.289 118.602 106.139 118.534C108.473 118.489 110.874 118.422 113.095 117.592C117.067 116.088 120.164 112.565 124.719 113.126C129.208 113.665 132.574 117.412 135.85 120.195C139.598 123.381 143.502 125.244 148.461 125.693C153.825 126.186 159.121 124.952 164.372 123.965C167.222 123.426 170.117 122.977 173.034 122.91C176.131 122.843 179.227 123.202 182.324 123.269C188.271 123.426 194.218 123.202 200.142 122.641C211.99 121.564 223.682 119.275 235.373 117.21C246.279 115.28 257.028 112.386 267.8 109.648C267.688 108.885 267.576 108.144 267.463 107.404C259.766 109.379 252.092 111.421 244.417 113.126C232.636 115.729 220.63 117.794 208.669 119.409C203.014 120.172 197.314 120.733 191.615 120.958C188.585 121.07 185.556 121.093 182.549 121.025C179.452 120.958 176.333 120.599 173.236 120.644C162.846 120.778 150.683 127.062 140.899 121.16C137.084 118.871 134.212 115.28 130.442 112.924C126.874 110.68 122.7 110.097 118.818 111.914C117 112.767 115.407 113.979 113.611 114.876C111.39 115.999 109.034 116.178 106.588 116.245C100.91 116.425 95.2551 115.774 89.6899 114.832C78.5819 112.947 67.6534 109.872 56.4107 108.75C51.0924 108.212 45.6842 108.167 40.3882 109.064C35.586 109.895 31.1877 111.825 26.8342 113.956C22.593 116.066 18.2844 118.198 13.527 118.826C9.95896 119.297 6.41341 118.938 2.9127 118.198C2.77806 118.893 2.62099 119.611 2.50879 120.329C8.20867 121.496 13.9534 121.698 19.7655 119.656Z" fill="white"/>
<path d="M61.527 55.7459C66.8678 53.3223 70.952 48.7669 76.9211 47.7122C83.9674 46.4555 91.1035 48.9464 98.1722 48.1161C102.099 47.6673 105.69 46.2087 109.325 44.7949C113.723 43.067 118.301 41.8777 122.969 41.182C131.474 39.9253 140.113 40.2395 148.663 39.8356C153.353 39.6112 157.998 39.1399 162.621 38.3321C167.625 37.4793 172.719 37.0305 177.791 36.8061C187.979 36.3798 198.189 36.8959 208.377 37.053C214.863 37.1427 221.393 37.2549 227.878 36.7612C227.07 36.0207 226.262 35.3026 225.432 34.5845C222.605 34.764 219.777 34.8314 216.927 34.8314C206.784 34.8314 196.663 34.3825 186.543 34.3601C181.426 34.3601 176.287 34.4948 171.193 34.9436C166.279 35.3699 161.432 36.3797 156.54 36.9183C147.698 37.9281 138.812 37.5467 129.948 38.1301C125.662 38.4218 121.376 38.9604 117.179 39.9478C112.512 41.0474 108.226 42.9997 103.67 44.5032C100.551 45.5355 97.3869 46.074 94.0881 45.9618C90.6099 45.8272 87.1765 45.3559 83.6982 45.1764C79.9282 44.9969 76.1357 45.154 72.6126 46.5902C69.9646 47.6673 67.6757 49.3279 65.3194 50.9436C62.6266 52.7837 59.7767 54.3097 56.5677 55.0727C52.7304 55.9927 48.7359 55.6112 44.9435 54.7136C41.5101 53.9282 38.1889 52.7613 34.8453 51.6393C34.3965 52.1778 33.9701 52.7388 33.5213 53.2774C33.454 53.3447 33.4091 53.4345 33.3418 53.5018C35.4063 54.175 37.4484 54.8931 39.4905 55.5439C46.7836 57.8553 54.3236 59.0222 61.527 55.7459Z" fill="white"/>
<path d="M14.8062 152.666C18.9353 151.118 22.8848 150.804 27.2158 151.589C33.0727 152.666 38.7951 154.506 44.495 156.234C50.3519 158.007 56.3211 159.667 62.4698 160.004C68.5512 160.341 74.4081 159.151 80.0631 156.952C85.3366 154.91 90.3633 152.307 95.8163 150.736C101.628 149.076 107.53 149.076 113.365 150.534C124.226 153.272 133.83 159.937 145.051 161.418C151.514 162.271 157.887 161.104 164.282 160.296C167.446 159.892 170.633 159.6 173.842 159.735C177.028 159.869 179.542 160.722 182.436 162.001C184.748 163.034 187.216 164.111 189.797 164.043C192.086 163.999 194.375 163.078 196.327 161.889C200.591 159.286 203.643 155.247 208.714 154.035C220.316 151.23 232.636 158.635 243.878 153.115C245.763 152.172 247.424 150.871 249.197 149.749C251.665 148.178 254.336 147.168 257.253 146.944C259.946 146.742 262.639 146.966 265.332 146.966C265.556 146.203 265.78 145.44 265.982 144.677C265.489 144.7 264.995 144.7 264.479 144.7C261.382 144.655 258.263 144.408 255.188 144.924C252.63 145.373 250.207 146.428 248.007 147.819C246.302 148.918 244.709 150.198 242.869 151.095C240.221 152.419 237.236 152.89 234.296 152.935C228.148 153.07 222.156 151.477 216.03 151.207C210.465 150.961 205.326 152.038 200.883 155.516C197.18 158.411 193.163 162.697 187.957 161.597C185.264 161.014 182.84 159.6 180.282 158.613C177.634 157.603 174.829 157.423 172.002 157.446C165.449 157.491 159.031 159.039 152.501 159.398C146.397 159.735 140.652 158.478 134.952 156.369C129.679 154.394 124.607 151.903 119.311 149.996C114.128 148.133 108.652 146.876 103.109 147.168C97.3422 147.482 91.9117 149.502 86.6606 151.746C81.4095 153.99 76.1584 156.436 70.481 157.334C64.1528 158.344 57.7797 157.468 51.631 155.875C45.5497 154.304 39.6254 152.217 33.5215 150.669C29.1232 149.547 24.5005 148.358 19.9451 148.963C15.2102 149.592 10.4752 151.746 6.32373 154.013C4.23676 155.157 2.35175 156.503 0.421875 157.76C0.489196 158.658 0.55651 159.578 0.623831 160.475C2.66591 159.219 4.5285 157.67 6.61546 156.459C9.12879 154.955 11.9787 153.721 14.8062 152.666Z" fill="white"/>
<path d="M42.7219 83.0782C46.8285 82.7864 50.7331 83.1904 54.7051 84.3348C59.3951 85.7037 63.8608 87.8131 68.6406 88.8005C72.7921 89.6532 77.4822 89.6981 81.1848 87.4092C84.8651 85.1651 87.6477 81.5073 92.0909 80.6995C97.499 79.7345 103.064 81.9561 108.495 81.9786C114.284 82.001 120.029 81.1932 125.752 80.3404C131.249 79.5326 136.837 78.5676 142.425 78.792C148.012 79.0164 153.51 80.2282 159.076 80.6097C164.641 80.9912 170.004 80.0711 175.435 78.9042C181 77.7149 186.52 76.2563 192.063 74.9323C203.283 72.217 214.885 69.9056 226.464 71.4316C236.764 72.8004 247.177 74.9323 257.589 76.1665C257.185 75.3586 256.781 74.5284 256.377 73.7205C248.119 72.7107 239.929 71.1847 231.715 69.9281C226.509 69.1202 221.348 68.5368 216.074 68.7387C210.487 68.9407 204.944 69.8159 199.491 70.9379C193.813 72.1048 188.181 73.5858 182.548 74.9547C177.028 76.3011 171.373 77.8047 165.718 78.3432C160.018 78.8818 154.386 77.8495 148.753 77.1539C143.233 76.4582 137.914 76.4807 132.394 77.1763C126.716 77.8944 121.106 78.9267 115.407 79.4428C112.534 79.6896 109.639 79.8692 106.767 79.7345C103.895 79.5999 101.067 78.9267 98.2171 78.5676C95.7262 78.2535 93.168 78.1413 90.6996 78.7471C88.6575 79.2633 86.7949 80.3404 85.1343 81.5971C83.4513 82.8538 81.9029 84.3124 80.1301 85.4344C78.2002 86.6462 76.0235 87.0726 73.757 87.095C68.8875 87.1848 64.2647 85.2773 59.7542 83.6616C55.5353 82.1581 51.2492 80.879 46.7387 80.7443C38.6153 80.4975 30.3123 82.6294 22.6377 85.1427C19.0921 86.2872 15.5689 87.5887 12.0906 89.0698C11.6643 90.0796 11.2379 91.067 10.834 92.0768C13.1229 91.067 15.4567 90.1245 17.7905 89.2493C25.7569 86.1974 34.1945 83.6841 42.7219 83.0782Z" fill="white"/>
<path d="M74.9016 23.4093C78.8287 22.3321 82.666 20.8959 86.5482 19.6617C91.3056 18.1358 96.1303 16.9689 101.09 16.363C111.233 15.1287 121.466 15.7795 131.631 15.0165C136.725 14.6351 141.819 13.8721 146.734 12.4359C148.304 11.9646 149.898 11.5607 151.491 11.1792C159.614 9.29423 167.872 7.97023 176.131 6.89309C174.425 6.33208 172.72 5.81596 171.014 5.32227C165.516 6.13012 160.018 7.07262 154.588 8.19464C149.898 9.15958 145.342 10.6631 140.652 11.5832C130.599 13.5355 120.299 13.0193 110.133 13.4233C104.949 13.6252 99.7433 14.0965 94.6493 15.1287C90.0714 16.0712 85.6282 17.5523 81.2074 19.0334C75.9563 20.8062 70.4808 22.6912 65.0054 22.4219C64.1302 23.0727 63.2551 23.7459 62.3799 24.4191C62.9633 24.5313 63.5468 24.621 64.1527 24.6659C67.7881 25.0025 71.4234 24.3518 74.9016 23.4093Z" fill="white"/>
<path d="M106.879 250.552C100.73 249.99 94.5589 249.25 88.3654 249.631C85.4032 249.811 82.4635 250.26 79.5911 251.045C76.8534 251.808 74.2279 252.818 71.535 253.671C68.8646 254.523 66.1493 255.242 63.3443 255.399C60.4719 255.556 57.6668 255.085 54.9066 254.299C49.7004 252.796 44.7187 250.439 39.2881 249.901C40.1408 250.821 40.9935 251.741 41.8687 252.661C45.4368 253.424 48.8702 254.748 52.3933 255.892C54.974 256.723 57.5995 257.418 60.3148 257.643C63.075 257.867 65.8801 257.531 68.5729 256.88C73.9811 255.578 79.0301 253.087 84.5729 252.279C90.6318 251.404 96.7357 251.853 102.795 252.414C108.786 252.975 114.778 253.648 120.814 253.222C122.183 253.132 123.53 252.975 124.876 252.751C125.37 251.92 125.841 251.09 126.29 250.237C125.706 250.35 125.1 250.439 124.517 250.529C118.682 251.449 112.736 251.09 106.879 250.552Z" fill="white"/>
</svg>
