<svg width="265" height="123" viewBox="0 0 265 123" fill="none" xmlns="http://www.w3.org/2000/svg">
<path d="M102.64 122.845C112.135 123.137 121.713 122.115 130.79 119.298C136.403 117.566 141.703 115.082 146.524 111.723C151.636 108.155 156.018 103.793 160.421 99.4112C164.302 95.5508 168.309 91.6904 173.359 89.395C179.431 86.6614 186.38 86.7657 192.849 87.663C200.11 88.6647 207.143 90.9809 213.945 93.631C219.517 95.8012 224.483 99.2234 230.055 101.394C230.91 101.727 231.766 102.02 232.663 102.249C232.705 102.291 232.767 102.312 232.809 102.353C237.755 105.066 243.431 105.88 248.814 103.96C253.906 102.145 258.121 98.347 260.875 93.7353C263.797 88.8524 265.091 83.1349 264.527 77.4799C263.985 72.1379 261.981 67.0254 259.352 62.372C253.53 52.0636 244.87 43.5081 236.169 35.5995C227.822 28.0247 219.329 20.3873 210.21 13.7307C200.465 6.63585 188.905 0.0418559 176.51 0.000121994C170.312 -0.0207449 164.553 1.83641 159.169 4.79954C153.723 7.80441 148.735 11.6022 143.101 14.2732C136.799 17.2781 129.475 18.7388 122.547 19.1561C115.411 19.5944 108.65 18.4049 101.91 16.1096C90.2866 12.1448 79.5817 5.6551 67.5623 2.79631C56.5235 0.167043 44.7336 1.06431 33.7992 3.75617C24.3881 6.05156 14.831 10.2041 8.29957 17.5911C5.06516 21.2429 2.66547 25.5624 1.35084 30.2784C0.0153275 35.1404 -0.193383 40.2528 0.14051 45.261C0.745642 54.2756 3.39579 63.0398 7.71528 70.9693C16.6256 87.2874 31.7751 99.6198 48.0932 108.092C64.8495 116.856 83.7135 122.24 102.64 122.845Z" fill="#73CEA7"/>
<path d="M36.4704 101.686C37.0964 98.4095 37.6807 95.1334 38.1398 91.8364C39.3292 83.573 40.0387 75.2261 40.5186 66.8792C40.7482 62.831 40.9568 58.7828 41.1238 54.7346C42.7305 65.5855 44.3164 76.4364 45.9441 87.2873C46.278 89.4366 46.6119 91.6068 46.9457 93.7561C46.0693 97.9713 45.1303 102.186 44.1286 106.381C45.0259 106.882 45.9441 107.382 46.8622 107.883C47.363 105.817 47.843 103.731 48.3021 101.644C48.782 104.231 49.2828 106.819 49.8253 109.406C50.9522 109.97 52.0999 110.512 53.2476 111.055C51.9956 105.379 50.9313 99.6407 49.9923 93.9022C49.9923 93.8813 49.9923 93.8396 49.9714 93.8187C50.4096 91.7111 50.8479 89.6036 51.2444 87.496C55.0839 68.0687 58.047 48.4953 60.9893 28.9219C62.3039 20.1368 63.5768 11.3518 64.7871 2.54584C63.8064 2.35804 62.8256 2.19108 61.824 2.06587C60.9058 8.74336 59.9459 15.4208 58.9652 22.0775C56.0229 42.0265 53.0598 61.9964 49.2828 81.7993C49.0533 82.9678 48.8237 84.1364 48.5942 85.3258C46.1527 69.5711 44.0452 53.7747 41.6246 38.02C41.8124 30.8417 41.9584 23.6634 42.0628 16.506C42.1254 11.79 42.1463 7.07402 42.1254 2.35805C41.1238 2.50411 40.1222 2.67103 39.1206 2.85883C39.1414 5.63416 39.1414 8.43036 39.1206 11.2057C39.0997 14.3984 39.0579 17.591 39.0162 20.7837C38.1606 14.9826 37.326 9.18156 36.5539 3.35962C35.5731 3.5683 34.5924 3.79785 33.6116 4.02739C34.7384 12.6247 36.0113 21.201 37.3259 29.7774C37.7642 32.5945 38.1815 35.4324 38.5989 38.2495C38.3693 45.8451 38.0772 53.4617 37.7433 61.0365C37.159 74.0993 35.907 86.9952 33.6533 99.8076C34.6341 100.434 35.5522 101.06 36.4704 101.686Z" fill="white"/>
<path d="M229.22 64.2918C228.343 61.6417 227.467 58.9707 226.57 56.3205C226.069 46.3043 225.589 36.2881 225.213 26.2719C223.523 24.8112 221.833 23.3505 220.101 21.9315C218.724 23.5592 217.409 25.2493 216.157 26.9604C214.717 23.0792 213.277 19.2188 211.817 15.3375C211.212 14.8784 210.606 14.4194 209.98 13.9811C209.167 13.376 208.332 12.7917 207.497 12.2074C209.751 18.0711 211.942 23.9556 214.091 29.861C212.61 31.9895 211.212 34.1805 209.855 36.3924C207.414 31.9686 204.805 27.6282 202.051 23.3922C201.759 18.3215 201.487 13.2299 201.237 8.15919C199.797 7.30364 198.337 6.5107 196.855 5.75948C197.126 9.47383 197.418 13.209 197.711 16.9234C195.874 14.2732 193.975 11.6649 192.055 9.07735C191.137 7.84619 190.198 6.61498 189.259 5.38382C189.176 4.40306 189.113 3.4223 189.03 2.44155C186.651 1.64859 184.209 1.0435 181.747 0.667886C182.352 1.43997 182.978 2.21203 183.583 2.98411C183.27 7.70009 182.957 12.4369 182.665 17.1529C182.185 24.6234 181.726 32.073 181.33 39.5434C181.142 43.1325 180.975 46.7216 180.766 50.3108C177.428 34.9734 174.214 19.5944 171.314 4.17355C171.147 3.00499 170.98 1.85727 170.792 0.688714C169.749 0.876519 168.726 1.10609 167.724 1.37737C167.912 2.35812 168.079 3.33886 168.267 4.29875C168.663 6.96975 169.039 9.64073 169.415 12.3117C171.23 25.6041 172.733 38.9591 173.171 52.3558C171.856 45.5322 170.124 38.7921 168.163 32.1355C165.596 23.3922 162.842 14.6697 159.795 6.09329C159.649 5.65508 159.482 5.23775 159.315 4.79954C159.19 4.86214 159.065 4.92476 158.939 5.00822C158.188 5.42557 157.437 5.86377 156.686 6.30198C158.96 12.2074 160.713 18.3423 162.633 24.3521C165.554 33.5753 168.246 42.8821 170.103 52.3975C172.002 62.059 172.733 71.6997 172.649 81.5281C172.649 81.9037 172.649 82.3001 172.649 82.6758C172.503 85.1381 172.357 87.6212 172.169 90.0836C172.503 89.9166 172.816 89.7706 173.15 89.6037C173.943 89.2489 174.736 88.9359 175.55 88.6855C175.55 88.6438 175.55 88.602 175.55 88.5603C175.591 86.6614 175.633 84.7625 175.654 82.8635C176.05 76.04 176.301 69.1956 176.322 62.3512C176.343 54.9642 176.03 47.5772 175.487 40.232C176.05 42.9238 176.635 45.6157 177.219 48.2867C178.137 52.5227 179.014 56.7796 179.911 61.0365C179.911 61.0991 179.89 61.1826 179.89 61.2452C178.951 70.385 177.574 79.4831 176.05 88.5394C177.094 88.2264 178.137 87.976 179.222 87.7882C180.203 81.862 181.121 75.9565 181.893 70.0094C182.415 72.2839 182.978 74.5793 183.563 76.833C184.418 80.13 185.461 83.3852 186.588 86.5988C186.484 86.8492 186.38 87.0787 186.254 87.3292C187.548 87.3709 188.842 87.4543 190.115 87.5795C190.011 87.3083 189.906 87.0161 189.802 86.7449C190.198 85.8893 190.574 85.0546 190.95 84.2199C193.725 78.0641 196.208 71.804 198.796 65.5856C199.025 66.2533 199.255 66.9002 199.484 67.568C199.255 73.8072 198.9 80.0465 198.608 86.2858C198.566 87.1831 198.524 88.1012 198.483 88.9985C199.484 89.228 200.486 89.4785 201.467 89.7497C201.675 84.8668 201.905 79.9839 202.113 75.1219C203.553 79.191 205.014 83.26 206.433 87.3083C206.955 88.7898 207.476 90.2923 207.998 91.7739C209.271 92.2121 210.523 92.6711 211.775 93.151C210.919 89.6245 210.126 86.0771 209.396 82.5088C207.372 72.6178 205.744 62.6642 204.513 52.648C206.141 49.2675 207.852 45.9078 209.688 42.6317C214.383 51.8132 218.286 61.3704 221.019 71.4075C223.064 78.9405 224.462 86.5988 225.339 94.3405C225.401 96.1351 225.464 97.9296 225.526 99.7451C226.674 100.308 227.822 100.851 228.99 101.331C228.803 98.8895 228.594 96.4272 228.323 93.9858C228.093 87.8091 227.801 81.6324 227.509 75.4766C227.384 72.8473 227.258 70.1972 227.112 67.568C227.822 69.759 228.531 71.9501 229.241 74.162C229.282 83.3018 229.303 92.4416 229.554 101.561C229.637 101.602 229.721 101.623 229.783 101.665C230.639 101.999 231.494 102.291 232.392 102.52C232.433 102.562 232.496 102.583 232.538 102.625C232.893 102.813 233.247 103 233.602 103.167C234.562 100.976 235.397 98.7435 236.169 96.4898C236.523 97.6792 236.899 98.8687 237.254 100.037C237.755 101.686 238.297 103.313 238.861 104.92C239.925 105.129 241.01 105.233 242.095 105.254C240.509 100.705 239.132 96.0933 237.755 91.4817C238.673 88.3934 239.507 85.2842 240.342 82.2376C241.782 76.8956 243.284 71.5953 245.058 66.3368C246.748 61.3078 248.564 56.3206 250.108 51.2498C249.711 61.2243 249.294 71.1988 248.877 81.1733C248.543 88.8524 248.313 96.3855 248.918 104.044C249.941 103.668 250.922 103.188 251.84 102.667C251.464 96.5524 251.485 90.4592 251.756 84.2825C252.111 75.9565 252.466 67.6305 252.8 59.3045C252.883 57.4056 252.946 55.5067 253.029 53.6078C251.423 51.5629 249.732 49.5596 247.959 47.6398C246.456 53.0235 244.599 58.3447 242.784 63.6658C240.259 71.0737 238.339 78.6693 236.169 86.1814C235.96 85.4928 235.751 84.7833 235.522 84.0947C234.437 80.6308 233.352 77.146 232.225 73.7029C232.162 64.0414 232.12 54.3799 232.621 44.7393C232.809 41.0458 233.101 37.3732 233.477 33.7006C232.559 32.8659 231.64 32.0521 230.722 31.2174C229.47 42.1518 229.22 53.2531 229.22 64.2918ZM222.104 24.1851C222.25 28.296 222.417 32.4277 222.605 36.5385C222.751 39.7312 222.897 42.9447 223.043 46.1374C221.186 40.858 219.308 35.5995 217.388 30.3618C218.891 28.2542 220.456 26.1884 222.104 24.1851ZM198.149 23.0375C198.503 27.6282 198.837 32.1981 199.088 36.7889C199.442 43.1743 199.672 49.5804 199.693 55.9867C199.526 56.3414 199.38 56.6962 199.213 57.0718C197.919 53.0862 196.688 49.1005 195.603 45.0732C193.516 37.2897 191.93 29.3602 190.804 21.3681C190.324 17.9041 189.969 14.461 189.656 10.9971C192.598 14.941 195.436 18.9475 198.149 23.0375ZM190.574 77.7094C189.864 79.3579 189.113 80.9855 188.383 82.634C188.32 82.4462 188.258 82.2376 188.195 82.0498C185.941 75.0384 184.481 67.7766 182.937 60.5566C184.105 48.2449 184.46 35.8499 185.232 23.4966C185.566 17.9876 185.941 12.4787 186.296 6.96974C186.442 8.95213 186.609 10.9554 186.797 12.9378C187.611 21.1386 188.863 29.2976 190.637 37.3314C192.431 45.4487 194.789 53.4617 197.397 61.3912C195.102 66.8167 192.932 72.3048 190.574 77.7094ZM203.449 69.5921C203.115 68.5905 202.76 67.5888 202.426 66.5663C202.489 64.6257 202.531 62.685 202.573 60.7444C203.115 64.5422 203.699 68.3609 204.346 72.1379C204.033 71.3032 203.741 70.4476 203.449 69.5921ZM203.887 47.1807C203.449 43.1742 203.094 39.1469 202.781 35.0987C202.656 33.3041 202.531 31.5095 202.406 29.7149C204.367 32.9285 206.245 36.1629 208.019 39.4807C206.579 42.0057 205.202 44.5723 203.887 47.1807ZM224.337 72.2213C221.624 61.8503 217.722 51.7924 212.881 42.2144C212.422 41.3171 211.963 40.3989 211.483 39.5016C212.714 37.4358 213.987 35.3908 215.322 33.3667C216.721 37.2062 218.077 41.0667 219.454 44.9062C220.852 48.8918 222.229 52.8775 223.586 56.884C223.836 61.9964 224.107 67.1088 224.337 72.2213ZM234.645 91.3774C234.353 92.3164 234.061 93.2554 233.748 94.1944C233.352 95.3838 232.955 96.5733 232.517 97.7418C232.433 93.1302 232.371 88.5186 232.329 83.8861C233.122 86.3901 233.873 88.8733 234.645 91.3774Z" fill="white"/>
<path d="M154.223 7.84614C153.346 8.40955 152.449 8.95207 151.573 9.51549C152.845 13.8559 154.118 18.2171 155.37 22.5783C160.671 41.317 165.074 60.2226 167.682 79.5247C168.224 83.6147 168.746 87.7256 169.143 91.8781C170.04 91.273 170.958 90.7304 171.918 90.2296C170.29 72.409 166.931 54.7346 162.507 37.394C159.961 27.5029 157.123 17.6746 154.223 7.84614Z" fill="white"/>
<path d="M101.346 49.6221C101.784 38.4582 101.429 27.2943 100.887 16.1304C99.8644 15.7757 98.8419 15.4 97.8194 15.0036C98.2785 24.4355 98.6333 33.8466 98.4872 43.2577C98.2577 59.7636 96.2336 76.2277 94.0843 92.5876C92.7905 102.416 91.3506 112.224 89.9317 122.01C90.9333 122.156 91.9141 122.282 92.9157 122.386C94.0425 114.582 95.1694 106.798 96.2336 98.9938C98.5081 82.634 100.699 66.1489 101.346 49.6221Z" fill="white"/>
<path d="M113.596 75.7478C114.347 86.3483 114.91 96.928 115.244 107.549C115.035 111.973 114.868 116.397 114.764 120.821C114.743 121.447 114.743 122.052 114.722 122.678C116.016 122.553 117.31 122.386 118.604 122.198C118.437 117.148 118.416 112.098 118.27 107.049C118.687 98.326 119.209 89.6244 119.584 80.9646C120.231 66.441 120.252 51.9801 119.605 37.4566C119.334 31.4677 119.042 25.4997 118.729 19.5109C117.706 19.49 116.705 19.4483 115.703 19.3857C115.933 23.7469 116.162 28.0873 116.371 32.4276C117.059 46.9929 117.352 61.4956 116.767 76.0608C116.746 76.5825 116.726 77.0833 116.705 77.605C115.724 63.8118 114.388 50.0395 113.387 36.2463C112.97 30.487 112.594 24.7276 112.197 18.9683C111.175 18.8222 110.152 18.6344 109.151 18.4257C109.443 22.6409 109.714 26.856 110.006 31.0712C111.05 45.9912 112.531 60.8695 113.596 75.7478Z" fill="white"/>
<path d="M131.416 51.7924C129.663 40.8789 128.682 29.8819 127.618 18.9058C126.617 19.0518 125.615 19.1562 124.613 19.2605C125.469 27.9413 126.241 36.622 127.41 45.261C128.557 53.6913 130.018 62.0799 132.084 70.3433C133.962 77.8137 136.424 85.0964 139.179 92.2747C141.641 98.7226 144.312 105.087 146.983 111.472C147.818 110.867 148.652 110.241 149.445 109.594C147.818 105.692 146.169 101.769 144.583 97.8462C141.766 90.8974 139.095 83.8861 136.946 76.7078C134.525 68.5279 132.772 60.181 131.416 51.7924Z" fill="white"/>
</svg>
