<svg width="40" height="40" viewBox="0 0 40 40" fill="none" xmlns="http://www.w3.org/2000/svg">
<path d="M24.5767 10.475C24.8925 10.1658 25.3182 9.99479 25.7602 9.99948C26.2021 10.0042 26.6241 10.1842 26.9333 10.5L30 13.635V1.66667C30 1.22464 30.1756 0.800716 30.4882 0.488155C30.8007 0.175595 31.2246 0 31.6667 0C32.1087 0 32.5326 0.175595 32.8452 0.488155C33.1577 0.800716 33.3333 1.22464 33.3333 1.66667V13.635L36.4 10.5C36.7094 10.184 37.1317 10.0038 37.574 9.99907C38.0163 9.99438 38.4423 10.1656 38.7583 10.475C39.0744 10.7844 39.2546 11.2067 39.2593 11.649C39.2639 12.0913 39.0928 12.5173 38.7833 12.8333L34.5917 17.1167C33.8221 17.89 32.7777 18.3274 31.6867 18.3333C31.6763 18.3359 31.6654 18.3359 31.655 18.3333C31.1162 18.3335 30.5827 18.2273 30.085 18.0208C29.5874 17.8143 29.1354 17.5116 28.755 17.13L24.55 12.8333C24.3968 12.6768 24.2759 12.4916 24.1943 12.2883C24.1127 12.085 24.072 11.8677 24.0745 11.6486C24.077 11.4296 24.1226 11.2132 24.2088 11.0118C24.2949 10.8105 24.4199 10.628 24.5767 10.475ZM20 25.7033C21.3258 25.7048 22.598 25.1797 23.5367 24.2433L27.4383 20.3417C27.066 20.088 26.7174 19.8013 26.3967 19.485L22.1667 15.1667C21.2394 14.2189 20.7266 12.9416 20.7409 11.6158C20.7553 10.2899 21.2957 9.0241 22.2433 8.09667C23.0333 7.32333 24.6533 5.905 25.7 5H8.33333C6.90537 5.0039 5.5025 5.3757 4.26004 6.07955C3.01759 6.7834 1.97746 7.79553 1.24 9.01833L16.4633 24.2433C17.402 25.1797 18.6742 25.7048 20 25.7033ZM36.975 19.4467C36.1966 20.2482 35.2433 20.8589 34.1897 21.231C33.1362 21.6031 32.0108 21.7265 30.9017 21.5917L25.8933 26.6C24.3287 28.16 22.2094 29.036 20 29.036C17.7906 29.036 15.6713 28.16 14.1067 26.6L0.0766667 12.57C0.0533333 12.8333 0 13.0717 0 13.3333V31.6667C0.00264643 33.876 0.88147 35.9941 2.4437 37.5563C4.00593 39.1185 6.12401 39.9974 8.33333 40H31.6667C33.876 39.9974 35.9941 39.1185 37.5563 37.5563C39.1185 35.9941 39.9974 33.876 40 31.6667V16.3533L36.975 19.4467Z" fill="#282828"/>
</svg>
