<svg width="40" height="40" viewBox="0 0 40 40" fill="none" xmlns="http://www.w3.org/2000/svg">
<path d="M3 11.96V31.66C3 33.87 3.88 35.99 5.44 37.55C7.01 39.12 9.12 40 11.33 40H28C30.21 40 32.33 39.12 33.89 37.56C35.45 36 36.33 33.88 36.33 31.67V11.97C36.33 11.08 36.09 10.2 35.64 9.43C35.19 8.66 34.54 8.03 33.76 7.6L20.48 0.21C20.23 0.07 19.95 0 19.67 0C19.39 0 19.11 0.07 18.86 0.21L5.57 7.59C4.79 8.02 4.14 8.66 3.69 9.43C3.24 10.19 3 11.07 3 11.96ZM19.67 9.17C20.5 9.17 21.32 9.42 22.01 9.88C22.7 10.34 23.24 11 23.56 11.77C23.88 12.54 23.96 13.39 23.8 14.2C23.64 15.02 23.24 15.77 22.65 16.36C22.06 16.95 21.31 17.35 20.49 17.51C19.67 17.67 18.83 17.59 18.06 17.27C17.29 16.95 16.63 16.41 16.17 15.72C15.71 15.03 15.46 14.21 15.46 13.38C15.46 12.26 15.9 11.19 16.69 10.4C17.48 9.61 18.55 9.17 19.67 9.17Z" fill="#282828"/>
</svg>
