<svg width="40" height="40" viewBox="0 0 40 40" fill="none" xmlns="http://www.w3.org/2000/svg">
<g clip-path="url(#clip0_221:1374)">
<path d="M37.4748 18.2912L19.9998 28.7779L2.52483 18.2912C2.14579 18.0638 1.69193 17.9963 1.2631 18.1035C0.834267 18.2107 0.465587 18.4839 0.238163 18.8629C0.0107403 19.2419 -0.0567957 19.6958 0.0504126 20.1246C0.157621 20.5535 0.430791 20.9221 0.80983 21.1496L19.1432 32.1496C19.4024 32.3053 19.6991 32.3876 20.0015 32.3876C20.3039 32.3876 20.6006 32.3053 20.8598 32.1496L39.1932 21.1496C39.5722 20.9221 39.8454 20.5535 39.9526 20.1246C40.0598 19.6958 39.9922 19.2419 39.7648 18.8629C39.5374 18.4839 39.1687 18.2107 38.7399 18.1035C38.3111 17.9963 37.8572 18.0638 37.4782 18.2912H37.4748Z" fill="#282828"/>
<path d="M37.4751 25.9045L20.0001 36.3896L2.5251 25.9045C2.33742 25.7919 2.1294 25.7174 1.91291 25.6851C1.69642 25.6529 1.47571 25.6637 1.26337 25.7168C1.05104 25.7698 0.851236 25.8642 0.675377 25.9945C0.499518 26.1248 0.351045 26.2885 0.238437 26.4762C0.125828 26.6639 0.0512891 26.8719 0.0190747 27.0884C-0.0131396 27.3049 -0.00239805 27.5256 0.0506861 27.7379C0.157894 28.1668 0.431065 28.5354 0.810104 28.7629L19.1434 39.7629C19.4027 39.9187 19.6994 40.0009 20.0018 40.0009C20.3042 40.0009 20.6009 39.9187 20.8601 39.7629L39.1934 28.7629C39.5725 28.5354 39.8456 28.1668 39.9529 27.7379C40.0601 27.3091 39.9925 26.8552 39.7651 26.4762C39.5377 26.0971 39.169 25.824 38.7402 25.7168C38.3113 25.6096 37.8575 25.6771 37.4784 25.9045H37.4751Z" fill="#282828"/>
<path d="M0.808191 13.9281L17.4482 23.9131C18.2186 24.3766 19.1008 24.6215 19.9999 24.6215C20.899 24.6215 21.7811 24.3766 22.5515 23.9131L39.1915 13.9281C39.4379 13.7799 39.6418 13.5705 39.7834 13.3202C39.9249 13.07 39.9993 12.7873 39.9993 12.4998C39.9993 12.2122 39.9249 11.9296 39.7834 11.6793C39.6418 11.429 39.4379 11.2196 39.1915 11.0714L22.5515 1.08643C21.7809 0.623482 20.8988 0.378906 19.9999 0.378906C19.1009 0.378906 18.2188 0.623482 17.4482 1.08643L0.808191 11.0714C0.561771 11.2196 0.357876 11.429 0.216326 11.6793C0.0747757 11.9296 0.000385284 12.2122 0.000385284 12.4998C0.000385284 12.7873 0.0747757 13.07 0.216326 13.3202C0.357876 13.5705 0.561771 13.7799 0.808191 13.9281Z" fill="#282828"/>
</g>
<defs>
<clipPath id="clip0_221:1374">
<rect width="40" height="40" fill="white"/>
</clipPath>
</defs>
</svg>
