<svg width="40" height="38" viewBox="0 0 40 38" fill="none" xmlns="http://www.w3.org/2000/svg">
<path d="M-7.62939e-06 13.9994V28.9994C0.0026388 31.2087 0.881462 33.3268 2.44369 34.889C4.00592 36.4512 6.124 37.33 8.33333 37.3327H31.6667C33.876 37.33 35.9941 36.4512 37.5563 34.889C39.1185 33.3268 39.9973 31.2087 40 28.9994V13.9994H-7.62939e-06ZM23.3333 30.666H9.99999C9.55796 30.666 9.13404 30.4904 8.82148 30.1779C8.50892 29.8653 8.33333 29.4414 8.33333 28.9994C8.33333 28.5573 8.50892 28.1334 8.82148 27.8208C9.13404 27.5083 9.55796 27.3327 9.99999 27.3327H23.3333C23.7754 27.3327 24.1993 27.5083 24.5118 27.8208C24.8244 28.1334 25 28.5573 25 28.9994C25 29.4414 24.8244 29.8653 24.5118 30.1779C24.1993 30.4904 23.7754 30.666 23.3333 30.666ZM30 23.9994H9.99999C9.55796 23.9994 9.13404 23.8238 8.82148 23.5112C8.50892 23.1986 8.33333 22.7747 8.33333 22.3327C8.33333 21.8907 8.50892 21.4667 8.82148 21.1542C9.13404 20.8416 9.55796 20.666 9.99999 20.666H30C30.442 20.666 30.8659 20.8416 31.1785 21.1542C31.4911 21.4667 31.6667 21.8907 31.6667 22.3327C31.6667 22.7747 31.4911 23.1986 31.1785 23.5112C30.8659 23.8238 30.442 23.9994 30 23.9994ZM40 10.666V8.99935C39.9973 6.79003 39.1185 4.67195 37.5563 3.10972C35.9941 1.54749 33.876 0.668662 31.6667 0.666016H8.33333C6.124 0.668662 4.00592 1.54749 2.44369 3.10972C0.881462 4.67195 0.0026388 6.79003 -7.62939e-06 8.99935L-7.62939e-06 10.666H40ZM16.6667 3.99935C16.9963 3.99935 17.3185 4.0971 17.5926 4.28023C17.8667 4.46337 18.0803 4.72367 18.2065 5.02821C18.3326 5.33275 18.3656 5.66787 18.3013 5.99117C18.237 6.31447 18.0783 6.61144 17.8452 6.84453C17.6121 7.07762 17.3151 7.23635 16.9918 7.30066C16.6685 7.36497 16.3334 7.33196 16.0289 7.20582C15.7243 7.07967 15.464 6.86605 15.2809 6.59197C15.0977 6.31789 15 5.99565 15 5.66602C15 5.22399 15.1756 4.80007 15.4881 4.48751C15.8007 4.17494 16.2246 3.99935 16.6667 3.99935ZM11.6667 3.99935C11.9963 3.99935 12.3185 4.0971 12.5926 4.28023C12.8667 4.46337 13.0803 4.72367 13.2065 5.02821C13.3326 5.33275 13.3656 5.66787 13.3013 5.99117C13.237 6.31447 13.0783 6.61144 12.8452 6.84453C12.6121 7.07762 12.3151 7.23635 11.9918 7.30066C11.6685 7.36497 11.3334 7.33196 11.0289 7.20582C10.7243 7.07967 10.464 6.86605 10.2809 6.59197C10.0977 6.31789 9.99999 5.99565 9.99999 5.66602C9.99999 5.22399 10.1756 4.80007 10.4881 4.48751C10.8007 4.17494 11.2246 3.99935 11.6667 3.99935ZM6.66666 3.99935C6.99629 3.99935 7.31853 4.0971 7.59261 4.28023C7.86669 4.46337 8.08031 4.72367 8.20646 5.02821C8.3326 5.33275 8.36561 5.66787 8.3013 5.99117C8.23699 6.31447 8.07826 6.61144 7.84517 6.84453C7.61208 7.07762 7.31511 7.23635 6.99181 7.30066C6.66851 7.36497 6.3334 7.33196 6.02885 7.20582C5.72431 7.07967 5.46401 6.86605 5.28088 6.59197C5.09774 6.31789 4.99999 5.99565 4.99999 5.66602C4.99999 5.22399 5.17559 4.80007 5.48815 4.48751C5.80071 4.17494 6.22463 3.99935 6.66666 3.99935Z" fill="#E53B2A"/>
</svg>
