<?xml version="1.0" standalone="no"?>
<!DOCTYPE svg PUBLIC "-//W3C//DTD SVG 20010904//EN"
 "http://www.w3.org/TR/2001/REC-SVG-20010904/DTD/svg10.dtd">
<svg version="1.0" xmlns="http://www.w3.org/2000/svg"
 width="225.000000pt" height="44.000000pt" viewBox="0 0 225.000000 44.000000"
 preserveAspectRatio="xMidYMid meet">

<g transform="translate(0.000000,44.000000) scale(0.100000,-0.100000)"
fill="#000000" stroke="none">
<path d="M125 387 l-90 -53 -5 -115 -5 -115 142 102 c78 56 156 110 172 120
17 10 31 21 31 24 0 5 -143 90 -151 90 -2 0 -44 -24 -94 -53z"/>
<path d="M392 274 c-12 -19 -26 -33 -31 -31 -5 1 -10 -2 -11 -8 -3 -19 -25
-38 -84 -77 -59 -38 -60 -38 -79 -19 -19 19 -20 19 -69 -16 -55 -40 -58 -34
45 -92 l57 -33 93 54 92 54 6 100 c3 54 5 100 5 101 -1 1 -11 -14 -24 -33z"/>
<path d="M289 202 c-19 -15 -46 -35 -60 -45 -23 -17 -23 -17 9 0 32 17 103 72
92 72 -3 0 -21 -12 -41 -27z"/>
</g>
</svg>
