<svg width="64" height="64" viewBox="0 0 64 64" fill="none" xmlns="http://www.w3.org/2000/svg">
<path d="M32.0003 12.8266V50.6666C23.1737 50.6666 16.0003 43.6533 16.0003 35.0133C16.0003 30.8533 17.6537 26.9333 20.667 23.9732L32.0003 12.8266ZM32.0003 5.33325L16.9337 20.1599C13.067 23.9733 10.667 29.2266 10.667 35.0133C10.667 46.6133 20.2137 55.9999 32.0003 55.9999C43.787 55.9999 53.3337 46.6133 53.3337 35.0133C53.3337 29.2266 50.9337 23.9733 47.067 20.1599L32.0003 5.33325Z" fill="black"/>
<path d="M35 13V18.4721V50C43.2875 50 50 43.1453 50 34.6742C50 30.4484 48.3125 26.6121 45.5938 23.8274L35 13Z" fill="#B986FB"/>
</svg>
