<svg width="64" height="64" viewBox="0 0 64 64" fill="none" xmlns="http://www.w3.org/2000/svg">
<path d="M31.9997 58.6666C46.7197 58.6666 58.6663 46.7199 58.6663 31.9999C58.6663 17.2799 46.7197 5.33325 31.9997 5.33325C17.2797 5.33325 5.33301 17.2799 5.33301 31.9999C5.33301 46.7199 17.2797 58.6666 31.9997 58.6666ZM34.6663 10.8533C45.173 12.1599 53.333 21.1199 53.333 31.9999C53.333 42.8799 45.1997 51.8399 34.6663 53.1466V10.8533Z" fill="black"/>
<path d="M29.0909 54C29.7352 54 31 53.8937 31 53.8937V11.1063C30.3721 11.036 29.7352 11 29.0909 11C18.5527 11 10 20.632 10 32.5C10 44.368 18.5527 54 29.0909 54ZM31 15.4505V53.8937V49.5495V15.4505Z" fill="#81B73C"/>
</svg>
