<svg width="64" height="64" viewBox="0 0 64 64" fill="none" xmlns="http://www.w3.org/2000/svg">
<path d="M43.3073 20.6666C40.1873 17.5466 37.1072 16.5 33.0005 16.5V32L21.7602 43.28C28.0002 49.52 37.0673 49.52 43.334 43.28C49.574 37.04 49.574 26.9066 43.3073 20.6666ZM32.0007 5.30664C17.2807 5.30664 5.33398 17.2533 5.33398 31.9733C5.33398 46.6933 17.2807 58.64 32.0007 58.64C46.7207 58.64 58.6673 46.6933 58.6673 31.9733C58.6673 17.2533 46.7207 5.30664 32.0007 5.30664ZM32.0007 53.3066C20.214 53.3066 10.6673 43.76 10.6673 31.9733C10.6673 20.1866 20.214 10.64 32.0007 10.64C43.7873 10.64 53.334 20.1866 53.334 31.9733C53.334 43.76 43.7873 53.3066 32.0007 53.3066Z" fill="black"/>
<path d="M43.6133 20.6933C40.4933 17.5733 36.4133 16 32.3067 16V32L21 43.3067C27.24 49.5467 37.3733 49.5467 43.64 43.3067C49.88 37.0667 49.88 26.9333 43.6133 20.6933Z" fill="#F9C921"/>
</svg>
