<svg width="28" height="28" viewBox="0 0 28 28" fill="none" xmlns="http://www.w3.org/2000/svg">
<path d="M17.0213 9.3335L13.9997 12.3552L10.978 9.3335L9.33301 10.9785L12.3547 14.0002L9.33301 17.0218L10.978 18.6668L13.9997 15.6452L17.0213 18.6668L18.6663 17.0218L15.6447 14.0002L18.6663 10.9785L17.0213 9.3335ZM13.9997 2.3335C7.54801 2.3335 2.33301 7.5485 2.33301 14.0002C2.33301 20.4518 7.54801 25.6668 13.9997 25.6668C20.4513 25.6668 25.6663 20.4518 25.6663 14.0002C25.6663 7.5485 20.4513 2.3335 13.9997 2.3335ZM13.9997 23.3335C8.85467 23.3335 4.66634 19.1452 4.66634 14.0002C4.66634 8.85516 8.85467 4.66683 13.9997 4.66683C19.1447 4.66683 23.333 8.85516 23.333 14.0002C23.333 19.1452 19.1447 23.3335 13.9997 23.3335Z" fill="white"/>
</svg>
