<svg width="181" height="141" viewBox="0 0 181 141" fill="none" xmlns="http://www.w3.org/2000/svg">
<path d="M152.645 0.971011C146.718 -0.890515 139.614 -0.205822 135.099 4.15915C130.007 9.08043 129.6 16.5693 125.77 22.1967C124.294 24.3578 122.047 27.011 119.437 27.9953C117.832 28.5944 116.655 28.0595 115.414 27.011C113.788 25.5988 112.611 23.7159 111.434 21.9614C110.022 19.8431 108.653 17.7034 107.027 15.7349C104.737 12.9747 101.677 9.72234 97.8473 8.99485C91.1714 7.73244 88.1117 15.9275 86.4641 20.4636C83.9179 27.5246 82.4202 35.1419 78.6757 41.7535C77.9696 43.0159 77.3277 43.9788 76.1936 45.0914C75.4661 45.8189 74.5675 46.418 73.3906 46.7176C73.3478 46.739 73.3265 46.739 73.3051 46.739C73.2837 46.739 73.2409 46.739 73.1981 46.7604C73.0484 46.7818 72.8771 46.8032 72.7273 46.8246C72.5989 46.8246 72.4492 46.846 72.3208 46.846C71.9142 46.8673 72.2566 46.8673 72.0212 46.846C71.1867 46.7818 70.3523 46.5678 69.5606 46.2896C67.8489 45.6691 66.3725 44.6849 65.1743 43.4224C62.2857 40.4055 60.8092 36.2973 59.5682 32.4886C58.1346 28.0809 57.0648 23.5661 55.567 19.1798C54.1976 15.1572 52.4217 11.0704 49.362 7.92501C46.3236 4.80107 42.1298 3.32467 37.6792 3.34607C24.2847 3.38887 14.4207 13.3598 8.75057 23.8657C-10.8918 60.1976 4.12896 100.552 37.8933 123.982C47.7572 130.829 59.0761 136.071 71.1226 138.403C115.093 146.962 164.927 130.016 177.208 83.0923C182.108 64.37 183.114 44.2783 175.047 25.6844C172.694 20.2282 169.698 14.9218 165.74 10.3642C162.273 6.29885 157.951 2.63997 152.645 0.971011Z" fill="#73CFA8"/>
<path d="M34.2341 22.9884C27.8578 18.6662 25.2688 30.6271 24.5627 34.5213C23.0007 43.2298 23.5142 52.1523 25.5256 60.7539C28.1788 72.2012 34.6406 82.7285 42.3221 91.5012C49.9608 100.231 59.4397 107.549 70.2237 111.935C75.4873 114.075 80.9649 115.273 86.5922 116.001C92.6048 116.792 98.6816 117.113 104.737 116.771C110.557 116.45 116.227 115.444 121.705 113.454C127.139 111.465 132.275 108.769 136.939 105.324C141.326 102.071 145.455 98.3268 148.686 93.8977C151.703 89.7467 153.885 85.0394 155.512 80.2037C158.935 69.9973 159.877 59.0207 159.663 48.3223C159.513 40.2557 158.999 32.0606 156.004 24.4648C154.934 21.7687 153.372 17.9601 150.334 16.9758C146.482 15.7134 143.872 20.5063 142.545 23.2879C139.978 28.7227 138.886 34.7995 138.758 40.7906C138.651 45.8402 139.25 50.8899 139.571 55.9396C140.17 65.7394 140.577 76.823 135.313 85.5315C132.018 91.0091 123.01 99.1399 116.805 92.9348C113.745 89.8751 112.525 85.2105 111.776 81.0809C111.199 77.8714 111.07 74.6191 110.664 71.3881C110.214 67.8363 109.615 64.3272 108.995 60.8181C107.818 54.3776 106.556 47.9799 105.742 41.4753C105.486 39.4212 105.122 37.2173 103.731 35.6125C102.298 33.965 99.8584 33.4515 97.7829 34.0292C93.6961 35.1846 93.0328 40.1273 92.6904 43.7006C92.0485 50.248 93.2681 56.5601 94.4021 63.0006C94.9585 66.1031 95.2366 69.2057 95.6218 72.3082C95.8999 74.5977 96.4134 76.8444 96.9055 79.1124C97.8042 83.242 99.1094 88.0135 97.847 92.2073C96.4776 96.7435 91 98.3482 86.7634 98.6906C81.3286 99.1399 75.8938 97.5993 71.1223 95.0745C65.9015 92.3143 61.6221 88.4201 57.7493 83.9909C53.7267 79.3906 50.1533 74.4051 47.1364 69.0987C41.1452 58.5928 37.3367 46.7817 36.8018 34.6497C36.6092 30.3061 37.9571 25.342 33.5494 22.6032C32.1372 21.726 30.8534 23.9512 32.2442 24.8285C34.2341 26.0695 34.4267 28.2734 34.3411 30.4131C34.2555 32.8523 34.2126 35.1846 34.4266 37.6239C34.9401 43.4652 36.117 49.2424 37.9571 54.827C41.6802 66.1459 47.9067 76.5448 55.6951 85.5315C62.8845 93.8121 72.5132 100.873 83.8749 101.301C86.4639 101.408 89.0743 101.108 91.5563 100.36C93.8244 99.6748 96.1995 98.6906 97.9113 97.0002C100.992 93.9405 101.164 89.3615 100.65 85.3175C100.094 80.8456 98.6815 76.5234 98.1466 72.0728C97.7829 69.0773 97.526 66.0817 97.0125 63.1075C96.4348 59.7268 95.7287 56.3461 95.3222 52.944C94.9798 49.9271 94.9371 46.9315 95.2152 43.9145C95.3864 42.1814 95.579 40.3199 96.2851 38.7151C97.0126 37.0889 98.3606 36.1261 100.179 36.447C102.148 36.7894 102.704 38.8435 103.004 40.5338C103.453 42.9945 103.646 45.5193 104.052 48.0013C104.63 51.489 105.272 54.9767 105.935 58.4644C106.577 61.8665 107.197 65.2686 107.711 68.6921C108.224 72.0515 108.439 75.4536 108.866 78.8129C109.744 85.938 112.418 97.1286 121.319 97.7277C125.235 98.0059 128.894 95.7806 131.825 93.4055C135.634 90.2816 138.33 86.2162 139.977 81.6159C143.38 72.1156 142.545 61.567 141.86 51.703C141.497 46.5892 141.069 41.4753 141.625 36.34C141.946 33.3873 142.588 30.4345 143.551 27.6315C144.364 25.235 145.455 22.646 147.103 20.6989C147.488 20.2496 148.108 19.6719 148.494 19.5221C148.986 19.3295 149.2 19.3295 149.585 19.4793C149.756 19.5435 149.799 19.5649 150.077 19.736C150.269 19.8644 150.419 19.9928 150.633 20.2068C151.104 20.6775 151.489 21.2338 151.853 21.8115C153.65 24.7429 154.656 28.1878 155.469 31.5043C156.346 35.1418 156.581 38.5011 156.817 42.3312C157.138 47.5306 157.202 52.7515 156.881 57.9723C156.282 68.2642 154.335 78.8557 149.349 87.9921C144.257 97.3212 135.377 104.511 125.856 109.025C120.742 111.443 115.264 113.155 109.637 113.861C103.795 114.588 97.847 114.567 91.9843 114.096C86.4211 113.647 80.8365 112.855 75.4872 111.208C70.1166 109.539 65.0242 107.035 60.2955 103.976C50.8381 97.8561 42.8142 89.4899 36.7161 80.0325C33.6135 75.2182 30.8962 70.0615 29.1416 64.6053C27.1303 58.3788 26.4029 51.8742 26.1247 45.3695C26.0177 42.6521 26.2317 39.9989 26.6382 37.3029C27.109 34.0934 27.708 30.6913 29.0774 27.7171C29.3555 27.118 29.6765 26.5189 30.0617 25.9626C30.2329 25.7272 30.7464 25.1923 30.8748 25.1067C30.9818 25.0425 31.0674 24.9783 31.1744 24.9355C31.3883 24.8285 31.046 24.9783 31.2813 24.8927C31.6237 24.7643 31.431 24.7857 31.752 24.8285C31.8162 24.8285 31.6451 24.7857 31.8805 24.8499C32.0089 24.8713 32.1158 24.9141 32.2442 24.9569C32.287 24.9783 32.6721 25.1923 32.8861 25.3206C34.3197 26.1337 35.6035 23.9085 34.2341 22.9884Z" fill="white"/>
</svg>
