<svg width="148" height="194" viewBox="0 0 148 194" fill="none" xmlns="http://www.w3.org/2000/svg">
<path d="M17.2024 87.8036C16.5843 86.9172 15.1381 86.4624 14.3333 87.4304C11.2544 91.0925 9.78487 96.2008 9.77321 101.321C9.73822 102.172 9.78484 103.035 9.88981 103.887C10.2514 107.689 11.406 111.386 13.3187 114.36C13.7735 115.06 14.4617 115.27 15.1031 115.176C15.9545 115.876 17.2375 115.923 17.8906 114.791C20.3631 110.511 23.1971 106.301 22.9405 101.158C22.6956 96.1775 19.9549 91.7923 17.2024 87.8036Z" fill="#72AFFC"/>
<path d="M55.7129 106.254C58.1854 101.974 61.0194 97.7636 60.7628 92.6202C60.5179 87.6286 57.7889 83.2433 55.0364 79.2546C54.4183 78.3683 52.9721 77.9134 52.1673 78.8814C49.0883 82.5436 47.6189 87.6519 47.6072 92.7719C47.5722 93.6233 47.6188 94.4863 47.7238 95.3377C48.0853 99.1398 49.24 102.837 51.1527 105.811C51.6075 106.511 52.2957 106.721 52.9371 106.627C53.7885 107.339 55.0598 107.385 55.7129 106.254Z" fill="#72AFFC"/>
<path d="M40.388 21.9085C39.7815 21.0221 38.3236 20.5673 37.5189 21.5353C34.4399 25.1974 32.9704 30.3058 32.9588 35.4257C32.9238 36.2771 32.9704 37.1402 33.0754 37.9916C33.4369 41.7937 34.5915 45.4908 36.5042 48.4648C36.9591 49.1646 37.6472 49.3745 38.2887 49.2812C39.1401 49.981 40.4229 50.0276 41.076 48.8963C43.5486 44.6161 46.3827 40.4058 46.1261 35.2625C45.8812 30.2824 43.1404 25.8972 40.388 21.9085Z" fill="#72AFFC"/>
<path d="M57.4745 62.4018C57.836 66.2039 58.9907 69.9011 60.9034 72.8751C61.3582 73.5749 62.0464 73.7848 62.6878 73.6915C63.5392 74.3912 64.8221 74.4379 65.4753 73.3066C67.9478 69.0263 70.7818 64.8161 70.5252 59.6727C70.2803 54.681 67.5512 50.2958 64.7988 46.3071C64.1807 45.4208 62.7344 44.9659 61.9297 45.9339C58.8507 49.596 57.3812 54.7044 57.3696 59.8244C57.3346 60.6991 57.3695 61.5505 57.4745 62.4018Z" fill="#72AFFC"/>
<path d="M10.8813 63.1134C11.3361 63.8132 12.0242 64.0231 12.6657 63.9298C13.5171 64.6296 14.8 64.6763 15.4531 63.545C17.9256 59.2647 20.7597 55.0544 20.5031 49.9111C20.2582 44.9194 17.5291 40.5341 14.7766 36.5454C14.1585 35.6591 12.7124 35.2042 11.9076 36.1723C8.82864 39.8344 7.35908 44.9427 7.34742 50.0627C7.31243 50.9141 7.35912 51.7771 7.46409 52.6285C7.80231 56.4539 8.95693 60.1394 10.8813 63.1134Z" fill="#72AFFC"/>
<path d="M7.44072 125.626C6.82259 124.74 5.37637 124.285 4.57163 125.253C1.49264 128.915 0.0231535 134.023 0.0114906 139.143C-0.0234979 139.995 0.023125 140.858 0.128091 141.709C0.489639 145.511 1.64426 149.208 3.55697 152.182C4.01182 152.882 4.69996 153.092 5.34142 152.999C6.19281 153.699 7.47566 153.745 8.12878 152.614C10.6013 148.334 13.4354 144.123 13.1788 138.98C12.9339 134 10.1931 129.615 7.44072 125.626Z" fill="#72AFFC"/>
<path d="M58.7571 125.708C58.139 124.821 56.6928 124.367 55.888 125.335C52.809 128.997 51.3396 134.105 51.3279 139.225C51.2929 140.076 51.3395 140.939 51.4445 141.791C51.806 145.593 52.9607 149.29 54.8734 152.264C55.3282 152.964 56.0163 153.174 56.6578 153.08C57.5091 153.78 58.7921 153.827 59.4452 152.696C61.9177 148.415 64.7518 144.205 64.4952 139.062C64.2503 134.082 61.5096 129.696 58.7571 125.708Z" fill="#72AFFC"/>
<path d="M33.0638 143.937C32.4456 143.05 30.9995 142.595 30.1947 143.563C27.1157 147.226 25.6462 152.334 25.6345 157.454C25.5995 158.305 25.6462 159.168 25.7512 160.02C26.1127 163.822 27.2674 167.519 29.1801 170.493C29.6349 171.193 30.323 171.403 30.9645 171.309C31.8158 172.009 33.0988 172.056 33.7519 170.925C36.2244 166.644 39.0585 162.434 38.8019 157.291C38.557 152.299 35.8162 147.925 33.0638 143.937Z" fill="#72AFFC"/>
<path d="M37.9154 100.551C29.3665 105.858 32.1073 119.142 35.8044 126.606C36.2243 127.457 36.9824 127.656 37.6821 127.469C38.3586 127.924 39.3382 127.936 40.0147 127.294C43.2103 124.273 45.228 120.471 45.3796 116.004C45.5662 110.441 41.9624 106.744 40.6095 101.647C40.3063 100.516 38.9184 99.9214 37.9154 100.551ZM38.3703 105.939C38.032 105.904 37.6821 105.951 37.3672 106.091C37.5655 105.776 37.7871 105.485 38.0203 105.205C38.1369 105.45 38.2536 105.706 38.3703 105.939ZM41.6591 115.923C41.6125 114.861 41.4492 113.847 41.2043 112.844C41.216 112.646 41.1927 112.447 41.1927 112.249C41.5425 113.509 41.6941 114.733 41.6591 115.923Z" fill="#72AFFC"/>
<path d="M33.9625 89.448C35.397 90.8942 37.5196 89.1564 36.9948 87.5819C41.4266 83.9664 42.1614 80.5726 42.6862 74.9511C43.2694 68.6298 39.3507 64.6644 36.6449 59.2995C36.0617 58.1566 34.6273 58.2382 33.7759 58.9263C29.2274 62.6234 27.9327 67.2186 28.4692 72.8984C29.1107 79.7212 29.0407 84.4796 33.9625 89.448Z" fill="#72AFFC"/>
<path d="M84.4153 86.0542C83.7972 85.1678 82.351 84.713 81.5462 85.681C78.4672 89.3431 76.9978 94.4514 76.9861 99.5714C76.9511 100.423 76.9977 101.286 77.1027 102.137C77.4642 105.939 78.6189 109.636 80.5316 112.61C80.9864 113.31 81.6746 113.52 82.316 113.427C83.1674 114.127 84.4503 114.173 85.1035 113.042C87.576 108.762 90.41 104.551 90.1534 99.4082C89.9085 94.4281 87.1678 90.0429 84.4153 86.0542Z" fill="#72AFFC"/>
<path d="M132.688 106.254C135.161 101.974 137.995 97.7636 137.738 92.6202C137.494 87.6286 134.764 83.2433 132.012 79.2546C131.394 78.3683 129.948 77.9134 129.143 78.8814C126.064 82.5436 124.594 87.6519 124.583 92.7719C124.548 93.6233 124.594 94.4863 124.699 95.3377C125.061 99.1398 126.216 102.837 128.128 105.811C128.583 106.511 129.271 106.721 129.913 106.627C130.764 107.339 132.035 107.385 132.688 106.254Z" fill="#72AFFC"/>
<path d="M117.363 21.9085C116.756 21.0221 115.298 20.5673 114.494 21.5353C111.415 25.1974 109.945 30.3058 109.933 35.4257C109.898 36.2771 109.945 37.1402 110.05 37.9916C110.412 41.7937 111.566 45.4908 113.479 48.4648C113.934 49.1646 114.622 49.3745 115.263 49.2812C116.115 49.981 117.398 50.0276 118.051 48.8963C120.523 44.6161 123.357 40.4058 123.101 35.2625C122.856 30.2824 120.115 25.8972 117.363 21.9085Z" fill="#72AFFC"/>
<path d="M134.449 62.4018C134.811 66.2039 135.965 69.9011 137.878 72.8751C138.333 73.5749 139.021 73.7848 139.662 73.6915C140.514 74.3912 141.797 74.4379 142.45 73.3066C144.922 69.0263 147.756 64.8161 147.5 59.6727C147.255 54.681 144.526 50.2958 141.773 46.3071C141.155 45.4208 139.709 44.9659 138.904 45.9339C135.825 49.596 134.356 54.7044 134.344 59.8244C134.309 60.6991 134.344 61.5505 134.449 62.4018Z" fill="#72AFFC"/>
<path d="M87.518 71.8021C87.9729 72.5019 88.6609 72.7118 89.3024 72.6185C90.1538 73.3183 91.4367 73.365 92.0898 72.2337C94.5624 67.9534 97.3964 63.7431 97.1399 58.5998C96.8949 53.6081 94.1658 49.2229 91.4134 45.2342C90.7952 44.3478 89.3491 43.893 88.5443 44.861C85.4654 48.5231 83.9958 53.6314 83.9841 58.7514C83.9491 59.6028 83.9958 60.4659 84.1008 61.3172C84.439 65.1427 85.5936 68.8281 87.518 71.8021Z" fill="#72AFFC"/>
<path d="M84.4153 125.626C83.7972 124.74 82.351 124.285 81.5462 125.253C78.4672 128.915 76.9978 134.023 76.9861 139.143C76.9511 139.995 76.9977 140.858 77.1027 141.709C77.4642 145.511 78.6189 149.208 80.5316 152.182C80.9864 152.882 81.6746 153.092 82.316 152.999C83.1674 153.699 84.4503 153.745 85.1034 152.614C87.5759 148.334 90.41 144.123 90.1534 138.98C89.9085 134 87.1678 129.615 84.4153 125.626Z" fill="#72AFFC"/>
<path d="M139.325 125.626C138.706 124.74 137.26 124.285 136.455 125.253C133.376 128.915 131.907 134.023 131.895 139.143C131.86 139.995 131.907 140.858 132.012 141.709C132.373 145.511 133.528 149.208 135.441 152.182C135.896 152.882 136.584 153.092 137.225 152.999C138.077 153.699 139.359 153.745 140.013 152.614C142.485 148.334 145.319 144.123 145.063 138.98C144.818 134 142.077 129.615 139.325 125.626Z" fill="#72AFFC"/>
<path d="M110.038 143.937C109.42 143.05 107.974 142.595 107.169 143.563C104.09 147.226 102.621 152.334 102.609 157.454C102.574 158.305 102.621 159.168 102.726 160.02C103.087 163.822 104.242 167.519 106.155 170.493C106.61 171.193 107.298 171.403 107.939 171.309C108.79 172.009 110.073 172.056 110.727 170.925C113.199 166.644 116.033 162.434 115.777 157.291C115.532 152.299 112.791 147.925 110.038 143.937Z" fill="#72AFFC"/>
<path d="M71.5862 6.74683C70.9681 5.86045 69.5219 5.40559 68.7172 6.37361C65.6382 10.0357 64.1687 15.1441 64.157 20.2641C64.122 21.1154 64.1687 21.9785 64.2737 22.8299C64.6352 26.632 65.7898 30.3291 67.7025 33.3031C68.1574 34.0029 68.8455 34.2128 69.4869 34.1195C70.3383 34.8193 71.6212 34.8659 72.2744 33.7346C74.7469 29.4544 77.581 25.2441 77.3244 20.1008C77.0795 15.1091 74.3386 10.7355 71.5862 6.74683Z" fill="#72AFFC"/>
<path d="M99.5774 0.915405C98.9593 0.0290287 97.5131 -0.425831 96.7084 0.542185C93.6294 4.20432 92.1599 9.31265 92.1482 14.4326C92.1132 15.284 92.1599 16.1471 92.2649 16.9985C92.6264 20.8006 93.781 24.4977 95.6938 27.4717C96.1486 28.1715 96.8367 28.3814 97.4781 28.2881C98.3295 28.9879 99.6124 29.0345 100.266 27.9032C102.738 23.6229 105.572 19.4127 105.316 14.2693C105.071 9.27764 102.33 4.9041 99.5774 0.915405Z" fill="#72AFFC"/>
<path d="M71.5862 165.362C70.9681 164.475 69.5219 164.02 68.7172 164.988C65.6382 168.65 64.1687 173.759 64.157 178.879C64.122 179.73 64.1687 180.593 64.2737 181.445C64.6352 185.247 65.7898 188.944 67.7025 191.918C68.1574 192.618 68.8455 192.828 69.4869 192.734C70.3383 193.434 71.6212 193.481 72.2744 192.349C74.7469 188.069 77.581 183.859 77.3244 178.715C77.0795 173.724 74.3386 169.35 71.5862 165.362Z" fill="#72AFFC"/>
<path d="M109.45 100.557C100.901 105.863 103.641 119.147 107.339 126.611C107.758 127.463 108.517 127.661 109.216 127.474C109.893 127.929 110.872 127.941 111.549 127.3C114.744 124.279 116.762 120.477 116.914 116.01C117.1 110.447 113.497 106.75 112.144 101.653C111.84 100.522 110.453 99.9268 109.45 100.557ZM109.904 105.945C109.566 105.91 109.216 105.956 108.901 106.096C109.1 105.782 109.321 105.49 109.554 105.21C109.671 105.455 109.788 105.712 109.904 105.945ZM113.193 115.928C113.147 114.867 112.983 113.852 112.739 112.849C112.75 112.651 112.727 112.453 112.727 112.254C113.077 113.514 113.228 114.739 113.193 115.928Z" fill="#72AFFC"/>
<path d="M110.937 89.448C112.372 90.8942 114.494 89.1564 113.969 87.5819C118.401 83.9664 119.136 80.5726 119.661 74.9511C120.244 68.6298 116.325 64.6644 113.62 59.2995C113.036 58.1566 111.602 58.2382 110.75 58.9263C106.202 62.6234 104.907 67.2186 105.444 72.8984C106.085 79.7212 106.015 84.4796 110.937 89.448Z" fill="#72AFFC"/>
</svg>
